<?xml version="1.0" standalone="no"?>
<!DOCTYPE svg PUBLIC "-//W3C//DTD SVG 1.1//EN" "http://www.w3.org/Graphics/SVG/1.1/DTD/svg11.dtd" >
<svg xmlns="http://www.w3.org/2000/svg" xmlns:xlink="http://www.w3.org/1999/xlink" version="1.1">
<metadata>
Created by FontForge 20170924 at Mon Jul 22 03:51:06 2019
 By www-data
Copyright \(c\) 2019 by studioJASO. All rights reserved. |DCNT
</metadata>
<defs>
<font id="CarmenSans-Bold" horiz-adv-x="900" >
  <font-face 
    font-family="Carmen Sans"
    font-weight="700"
    font-stretch="normal"
    units-per-em="1000"
    panose-1="2 11 9 4 0 0 0 0 0 0"
    ascent="773"
    descent="-227"
    x-height="506"
    cap-height="706"
    bbox="-91 -298 1350 1013"
    underline-thickness="50"
    underline-position="-260"
    stemh="107"
    stemv="130"
    unicode-range="U+0020-FFE6"
  />
<missing-glyph 
d="M653 694v-772h-407v772h407zM625 664h-350v-712h350v712z" />
    <glyph glyph-name="cid18375" unicode="ff" horiz-adv-x="880" 
d="M677 552v-46h183v-119h-183v-419h-136v419h-271v-419h-136v419h-115v119h115v48c0 147 70 223 203 223c49 0 101 -13 132 -33l-30 -108c-25 13 -53 20 -84 20c-57 0 -85 -35 -85 -104v-46h271v48c0 147 70 223 203 223c49 0 101 -13 132 -33l-30 -108
c-25 13 -53 20 -84 20c-57 0 -85 -35 -85 -104z" />
    <glyph glyph-name="cid18376" unicode="ft" 
d="M846 96l30 -109c-31 -20 -83 -33 -132 -33c-133 0 -203 76 -203 224v209h-271v-419h-136v419h-115v119h115v48c0 147 70 223 203 223c49 0 101 -13 132 -33l-30 -108c-25 13 -53 20 -84 20c-57 0 -85 -35 -85 -104v-46h271v143h136v-143h179v-119h-179v-208
c0 -68 29 -104 85 -104c30 0 58 7 84 21z" />
    <glyph glyph-name="cid18377" unicode="fft" horiz-adv-x="1307" 
d="M1253 96l30 -109c-31 -20 -83 -33 -132 -33c-133 0 -203 76 -203 224v209h-271v-419h-136v419h-271v-419h-136v419h-115v119h115v48c0 147 70 223 203 223c49 0 101 -13 132 -33l-30 -108c-25 13 -53 20 -84 20c-57 0 -85 -35 -85 -104v-46h271v48c0 147 70 223 203 223
c49 0 101 -13 132 -33l-30 -108c-25 13 -53 20 -84 20c-57 0 -85 -35 -85 -104v-46h271v143h136v-143h179v-119h-179v-208c0 -68 29 -104 85 -104c30 0 58 7 84 21z" />
    <glyph glyph-name="cid18378" unicode="tt" 
d="M846 96l30 -109c-31 -20 -83 -33 -132 -33c-133 0 -203 76 -203 224v209h-271v-208c0 -68 29 -104 85 -104c30 0 58 7 84 21l30 -109c-31 -20 -83 -33 -132 -33c-133 0 -203 76 -203 224v209h-115v119h115v143h136v-143h271v143h136v-143h179v-119h-179v-208
c0 -68 29 -104 85 -104c30 0 58 7 84 21z" />
    <glyph glyph-name=".notdef" 
d="M653 694v-772h-407v772h407zM625 664h-350v-712h350v712z" />
    <glyph glyph-name="cid1" unicode=" " horiz-adv-x="240" 
 />
    <glyph glyph-name="cid1" unicode="&#xa0;" horiz-adv-x="240" 
 />
    <glyph glyph-name="cid2" unicode="!" horiz-adv-x="288" 
d="M220 706l-13 -510h-126l-13 510h152zM55 41c0 49 38 87 89 87c52 0 90 -38 90 -87s-38 -87 -90 -87c-51 0 -89 38 -89 87z" />
    <glyph glyph-name="cid3" unicode="&#x22;" horiz-adv-x="417" 
d="M181 706l-18 -242h-102l-18 242h138zM374 706l-19 -242h-102l-17 242h138z" />
    <glyph glyph-name="cid4" unicode="#" horiz-adv-x="682" 
d="M27 147v102h109l34 177h-99v102h119l34 178h117l-34 -178h143l34 178h117l-34 -178h88v-102h-108l-34 -177h98v-102h-118l-35 -179h-117l35 179h-143l-35 -179h-117l35 179h-89zM431 426h-145l-34 -178h144z" />
    <glyph glyph-name="cid5" unicode="$" horiz-adv-x="640" 
d="M381 -23v-99h-116v99c-107 15 -189 71 -229 148l110 61c31 -55 94 -94 178 -94c80 0 140 35 140 86c0 48 -36 74 -128 98l-86 22c-127 32 -190 96 -190 192c0 53 19 99 56 137s87 61 149 70v99h116v-100c95 -15 171 -65 207 -137l-110 -60c-25 49 -88 83 -160 83
c-71 0 -124 -34 -124 -85c0 -45 36 -70 128 -94l86 -22c124 -32 190 -98 190 -197c0 -53 -20 -99 -60 -137c-39 -37 -92 -61 -157 -70z" />
    <glyph glyph-name="cid6" unicode="%" horiz-adv-x="948" 
d="M35 525c0 111 83 195 192 195s192 -84 192 -195c0 -109 -83 -194 -192 -194s-192 85 -192 194zM778 706l-495 -738h-113l495 738h113zM320 525c0 57 -38 100 -93 100s-92 -43 -92 -100s37 -99 92 -99s93 43 93 99zM529 149c0 111 83 195 192 195s192 -84 192 -195
c0 -110 -83 -195 -192 -195s-192 85 -192 195zM814 149c0 57 -38 100 -93 100s-92 -43 -92 -100s37 -99 92 -99s93 43 93 99z" />
    <glyph glyph-name="cid7" unicode="&#x26;" horiz-adv-x="783" 
d="M780 -31h-171l-73 70c-68 -57 -142 -85 -221 -85c-162 0 -274 90 -274 226c0 88 54 153 146 194c-52 56 -71 98 -71 151c0 113 92 195 233 195s234 -81 234 -189c0 -72 -47 -127 -103 -154l-81 81c33 16 55 43 55 75c0 44 -41 77 -105 77s-104 -33 -104 -84
c0 -19 8 -39 24 -62c17 -22 48 -55 94 -98l165 -157c28 36 61 85 98 148l110 -67c-42 -71 -81 -127 -117 -168zM448 123l-180 171c-63 -29 -96 -64 -96 -109c0 -67 59 -115 146 -115c45 0 86 16 130 53z" />
    <glyph glyph-name="cid8" unicode="'" horiz-adv-x="225" 
d="M182 706l-18 -242h-103l-18 242h139z" />
    <glyph glyph-name="cid9" unicode="(" horiz-adv-x="394" 
d="M71 317c0 93 18 181 55 263s87 151 150 208l95 -85c-105 -97 -169 -239 -169 -386s64 -289 169 -386l-95 -85c-63 57 -113 126 -150 208s-55 170 -55 263z" />
    <glyph glyph-name="cid10" unicode=")" horiz-adv-x="394" 
d="M192 317c0 147 -64 289 -169 386l95 85c63 -57 112 -126 149 -208s56 -170 56 -263s-19 -181 -56 -263s-86 -151 -149 -208l-95 85c105 97 169 239 169 386z" />
    <glyph glyph-name="cid11" unicode="*" horiz-adv-x="408" 
d="M142 525l-119 27l31 93l113 -49l-11 123h97l-11 -122l113 48l30 -93l-119 -27l81 -92l-79 -58l-64 106l-63 -106l-79 58z" />
    <glyph glyph-name="cid12" unicode="+" horiz-adv-x="648" 
d="M63 279v117h200v202h123v-202h199v-117h-199v-203h-123v203h-200z" />
    <glyph glyph-name="cid13" unicode="," horiz-adv-x="266" 
d="M226 114l-72 -253h-113l38 253h147z" />
    <glyph glyph-name="cid14" unicode="-" horiz-adv-x="498" 
d="M435 399v-123h-372v123h372z" />
    <glyph glyph-name="cid15" unicode="." horiz-adv-x="266" 
d="M44 41c0 49 38 87 89 87c52 0 90 -38 90 -87s-38 -87 -90 -87c-51 0 -89 38 -89 87z" />
    <glyph glyph-name="cid16" unicode="/" horiz-adv-x="548" 
d="M528 755l-388 -876h-120l388 876h120z" />
    <glyph glyph-name="cid17" unicode="0" horiz-adv-x="648" 
d="M38 337c0 233 109 383 286 383s286 -150 286 -383s-109 -383 -286 -383s-286 150 -286 383zM476 337c0 163 -56 255 -152 255s-151 -91 -151 -255s55 -255 151 -255s152 92 152 255z" />
    <glyph glyph-name="cid18" unicode="1" horiz-adv-x="648" 
d="M292 91v472l-189 -60l-39 117l252 86h112v-615h187v-123h-548v123h225z" />
    <glyph glyph-name="cid19" unicode="2" horiz-adv-x="648" 
d="M422 494c0 60 -47 100 -119 100c-63 0 -116 -38 -145 -91l-118 65c49 92 144 152 265 152c151 0 257 -91 257 -220c0 -41 -11 -78 -32 -113c-21 -34 -56 -75 -107 -124l-178 -172h350v-123h-532v112l256 253c39 39 65 69 80 91c15 23 23 46 23 70z" />
    <glyph glyph-name="cid20" unicode="3" horiz-adv-x="648" 
d="M29 107l115 63c29 -56 92 -92 169 -92c83 0 141 45 141 108c0 71 -54 107 -155 107h-60l-51 98l204 189h-327v126h500v-120l-215 -197h15c134 0 229 -86 229 -203c0 -134 -115 -232 -281 -232c-129 0 -236 58 -284 153z" />
    <glyph glyph-name="cid21" unicode="4" horiz-adv-x="648" 
d="M25 134v110l357 475h141v-467h106v-118h-106v-166h-132v166h-366zM391 544l-220 -292h220v292z" />
    <glyph glyph-name="cid22" unicode="5" horiz-adv-x="648" 
d="M29 107l116 63c29 -56 89 -91 168 -91c84 0 141 46 141 115c0 76 -56 114 -169 114h-204l21 398h465v-126h-340l-8 -156h96c176 0 279 -87 279 -230c0 -138 -115 -240 -281 -240c-129 0 -236 58 -284 153z" />
    <glyph glyph-name="cid23" unicode="6" horiz-adv-x="648" 
d="M40 216c0 64 21 120 74 195l210 295h157l-179 -250c13 6 29 9 47 9c139 0 257 -106 257 -249c0 -150 -120 -262 -283 -262s-283 112 -283 262zM475 216c0 83 -61 143 -152 143c-45 0 -81 -14 -110 -41c-28 -27 -42 -61 -42 -102s14 -76 42 -103c29 -27 65 -41 110 -41
c91 0 152 61 152 144z" />
    <glyph glyph-name="cid24" unicode="7" horiz-adv-x="648" 
d="M45 579v127h534v-121l-288 -617h-154l287 611h-379z" />
    <glyph glyph-name="cid25" unicode="8" horiz-adv-x="648" 
d="M39 172c0 83 55 153 131 180c-63 31 -105 87 -105 162c0 123 109 206 259 206c151 0 259 -83 259 -206c0 -76 -41 -131 -105 -162c76 -27 131 -97 131 -180c0 -129 -120 -218 -285 -218c-163 0 -285 90 -285 218zM455 503c0 63 -51 105 -131 105s-131 -42 -131 -105
s51 -105 131 -105s131 42 131 105zM478 181c0 68 -62 114 -154 114c-91 0 -154 -46 -154 -114s63 -114 154 -114c92 0 154 46 154 114z" />
    <glyph glyph-name="cid26" unicode="9" horiz-adv-x="648" 
d="M300 209c-139 -3 -261 107 -258 249c0 150 120 262 283 262s283 -112 283 -262c0 -64 -21 -118 -74 -194l-209 -296h-158l179 250c-12 -6 -27 -9 -46 -9zM477 458c0 83 -61 144 -152 144c-45 0 -81 -14 -110 -41c-28 -27 -42 -62 -42 -103s14 -76 42 -103
c29 -27 65 -40 110 -40c91 0 152 60 152 143z" />
    <glyph glyph-name="cid27" unicode=":" horiz-adv-x="266" 
d="M44 533c0 49 38 87 89 87c52 0 90 -38 90 -87s-38 -86 -90 -86c-51 0 -89 37 -89 86zM44 141c0 49 38 87 89 87c52 0 90 -38 90 -87s-38 -86 -90 -86c-51 0 -89 37 -89 86z" />
    <glyph glyph-name="cid28" unicode=";" horiz-adv-x="266" 
d="M44 533c0 49 38 87 89 87c52 0 90 -38 90 -87s-38 -86 -90 -86c-51 0 -89 37 -89 86zM226 214l-72 -253h-113l38 253h147z" />
    <glyph glyph-name="cid29" unicode="&#x3c;" horiz-adv-x="648" 
d="M83 393l476 218v-133l-329 -141l329 -141v-132l-476 218v111z" />
    <glyph glyph-name="cid30" unicode="=" horiz-adv-x="648" 
d="M575 520v-118h-502v118h502zM575 273v-119h-502v119h502z" />
    <glyph glyph-name="cid31" unicode="&#x3e;" horiz-adv-x="648" 
d="M419 337l-330 141v133l476 -218v-111l-476 -218v132z" />
    <glyph glyph-name="cid32" unicode="?" horiz-adv-x="571" 
d="M307 404c67 44 89 68 89 108c0 53 -48 89 -121 89c-63 0 -121 -38 -146 -94l-114 56c20 47 53 85 100 114s100 43 159 43c155 0 256 -84 256 -204c0 -39 -10 -71 -30 -98s-54 -55 -101 -86c-51 -32 -67 -61 -67 -113v-23h-136v23c0 91 19 125 111 185zM174 41
c0 49 38 87 90 87c51 0 89 -38 89 -87s-38 -87 -89 -87c-52 0 -90 38 -90 87z" />
    <glyph glyph-name="cid33" unicode="@" horiz-adv-x="1024" 
d="M619 454h116v-331h14c84 0 126 61 126 183c0 183 -152 288 -358 288c-206 2 -368 -136 -365 -348c-3 -212 159 -350 365 -348c92 0 174 27 235 72l62 -80c-80 -57 -185 -89 -297 -89c-265 -3 -477 180 -472 445c-5 265 207 448 472 445c262 2 465 -151 462 -391
c0 -165 -83 -271 -228 -271h-54c-52 0 -75 22 -78 67c-29 -45 -82 -70 -143 -70c-117 0 -205 97 -205 220c0 121 88 220 205 220c61 0 114 -25 143 -70v58zM618 246c0 71 -49 120 -116 120c-69 0 -118 -51 -118 -120s49 -120 118 -120c67 0 116 49 116 120z" />
    <glyph glyph-name="cid34" unicode="A" horiz-adv-x="757" 
d="M594 -32l-60 157h-315l-60 -157h-146l293 738h145l293 -738h-150zM264 243h225l-112 296z" />
    <glyph glyph-name="cid35" unicode="B" horiz-adv-x="726" 
d="M651 508c0 -75 -47 -140 -112 -161c74 -14 144 -81 144 -170c0 -124 -98 -209 -273 -209h-338v738h313c175 0 266 -77 266 -198zM513 492c0 59 -43 92 -131 92h-170v-188h170c84 0 131 36 131 96zM541 189c0 57 -49 92 -132 92h-197v-190h195c91 0 134 38 134 98z" />
    <glyph glyph-name="cid36" unicode="C" horiz-adv-x="781" 
d="M45 337c-3 217 162 387 375 383c137 0 252 -67 316 -168l-121 -69c-41 67 -111 105 -195 105c-138 0 -234 -109 -234 -251s96 -251 234 -251c84 0 152 40 195 105l121 -68c-64 -103 -177 -169 -316 -169c-213 -4 -378 168 -375 383z" />
    <glyph glyph-name="cid37" unicode="D" horiz-adv-x="775" 
d="M730 337c2 -215 -151 -372 -389 -369h-269v738h269c238 3 391 -154 389 -369zM589 337c0 152 -89 242 -248 242h-128v-484h128c159 0 248 90 248 242z" />
    <glyph glyph-name="cid38" unicode="E" horiz-adv-x="643" 
d="M590 706v-126h-378v-180h337v-125h-337v-180h388v-127h-528v738h518z" />
    <glyph glyph-name="cid39" unicode="F" horiz-adv-x="623" 
d="M586 706v-127h-373v-195h332v-127h-332v-289h-141v738h514z" />
    <glyph glyph-name="cid40" unicode="G" horiz-adv-x="821" 
d="M45 337c-4 217 166 387 385 383c144 0 261 -67 325 -168l-120 -68c-43 65 -114 105 -205 105c-145 0 -244 -109 -244 -252s105 -253 252 -253c81 0 153 22 193 58v118h-203v118h333v-299c-29 -36 -74 -66 -134 -89c-59 -24 -122 -36 -189 -36c-221 -4 -397 168 -393 383z
" />
    <glyph glyph-name="cid41" unicode="H" horiz-adv-x="784" 
d="M213 706v-305h358v305h141v-738h-141v307h-358v-307h-141v738h141z" />
    <glyph glyph-name="cid42" unicode="I" horiz-adv-x="284" 
d="M213 706v-738h-141v738h141z" />
    <glyph glyph-name="cid43" unicode="J" horiz-adv-x="608" 
d="M19 102l123 64c23 -48 68 -81 127 -81c85 0 131 61 131 176v445h141v-445c0 -195 -98 -307 -269 -307c-59 0 -111 14 -156 43c-45 28 -77 63 -97 105z" />
    <glyph glyph-name="cid44" unicode="K" horiz-adv-x="694" 
d="M691 -32h-175l-303 341v-341h-141v738h141v-337l285 337h174l-314 -368z" />
    <glyph glyph-name="cid45" unicode="L" horiz-adv-x="615" 
d="M213 706v-611h367v-127h-508v738h141z" />
    <glyph glyph-name="cid46" unicode="M" horiz-adv-x="927" 
d="M210 706l255 -441l255 441h136v-738h-137v486l-198 -340h-115l-199 342v-488h-135v738h138z" />
    <glyph glyph-name="cid47" unicode="N" horiz-adv-x="775" 
d="M207 706l358 -505v505h139v-738h-135l-358 505v-505h-139v738h135z" />
    <glyph glyph-name="cid48" unicode="O" horiz-adv-x="840" 
d="M45 337c-3 217 162 387 375 383c213 4 378 -166 375 -383c3 -215 -162 -387 -375 -383c-213 -4 -378 168 -375 383zM654 337c0 142 -94 251 -234 251c-138 0 -234 -109 -234 -251s96 -251 234 -251c140 0 234 109 234 251z" />
    <glyph glyph-name="cid49" unicode="P" horiz-adv-x="682" 
d="M644 452c0 -149 -115 -254 -313 -254h-119v-230h-140v738h259c198 0 313 -105 313 -254zM505 452c0 84 -57 128 -173 128h-120v-257h120c116 0 173 45 173 129z" />
    <glyph glyph-name="cid50" unicode="Q" horiz-adv-x="840" 
d="M805 -50l33 -115c-33 -19 -83 -30 -131 -30c-96 0 -170 44 -241 151c-20 -1 -35 -2 -46 -2c-213 -4 -378 168 -375 383c-3 217 162 387 375 383c213 4 378 -166 375 -383c0 -148 -73 -273 -190 -337c31 -49 64 -69 112 -69c33 0 63 6 88 19zM420 86
c140 0 234 109 234 251s-94 251 -234 251c-138 0 -234 -109 -234 -251s96 -251 234 -251z" />
    <glyph glyph-name="cid51" unicode="R" horiz-adv-x="699" 
d="M690 -32h-159l-160 247c-17 -1 -31 -2 -41 -2h-118v-245h-140v738h258c191 0 312 -98 312 -248c0 -96 -50 -171 -139 -211zM212 335h118c115 0 172 44 172 123s-57 122 -172 122h-118v-245z" />
    <glyph glyph-name="cid52" unicode="S" horiz-adv-x="669" 
d="M36 114l116 64c31 -57 99 -99 187 -99c84 0 148 36 148 91c0 51 -38 78 -135 102l-91 24c-133 34 -199 102 -199 203c0 128 110 221 273 221c127 0 235 -58 282 -150l-115 -62c-28 52 -94 87 -169 87s-131 -37 -131 -90c0 -48 38 -74 135 -98l91 -24
c133 -34 199 -103 199 -207c0 -129 -119 -222 -290 -222c-140 0 -252 63 -301 160z" />
    <glyph glyph-name="cid53" unicode="T" horiz-adv-x="674" 
d="M29 579v127h616v-127h-237v-611h-141v611h-238z" />
    <glyph glyph-name="cid54" unicode="U" horiz-adv-x="764" 
d="M68 299v407h141v-407c0 -145 57 -213 173 -213s174 68 174 213v407h140v-407c0 -225 -115 -345 -314 -345s-314 120 -314 345z" />
    <glyph glyph-name="cid55" unicode="V" horiz-adv-x="738" 
d="M172 706l199 -555l199 555h151l-280 -738h-144l-280 738h155z" />
    <glyph glyph-name="cid56" unicode="W" horiz-adv-x="1102" 
d="M178 706l155 -540l145 536h150l145 -536l155 540h151l-231 -738h-145l-152 513l-151 -513h-145l-232 738h155z" />
    <glyph glyph-name="cid57" unicode="X" horiz-adv-x="693" 
d="M10 706h169l170 -251l168 251h166l-254 -367l257 -371h-169l-172 257l-172 -257h-166l257 372z" />
    <glyph glyph-name="cid58" unicode="Y" horiz-adv-x="737" 
d="M17 706h158l195 -345l196 345h154l-281 -476v-262h-141v262z" />
    <glyph glyph-name="cid59" unicode="Z" horiz-adv-x="658" 
d="M434 580h-385v126h560v-120l-397 -492h407v-126h-582v120z" />
    <glyph glyph-name="cid60" unicode="[" horiz-adv-x="408" 
d="M361 755v-122h-136v-632h136v-122h-267v876h267z" />
    <glyph glyph-name="cid61" unicode="\" horiz-adv-x="548" 
d="M140 755l388 -876h-120l-388 876h120z" />
    <glyph glyph-name="cid62" unicode="]" horiz-adv-x="408" 
d="M184 1v632h-137v122h268v-876h-268v122h137z" />
    <glyph glyph-name="cid63" unicode="^" horiz-adv-x="584" 
d="M343 719l201 -353h-136l-116 218l-116 -218h-136l201 353h102z" />
    <glyph glyph-name="cid64" unicode="_" horiz-adv-x="506" 
d="M506 -41v-109h-506v109h506z" />
    <glyph glyph-name="cid65" unicode="`" horiz-adv-x="289" 
d="M174 736l95 -162h-130l-119 162h154z" />
    <glyph glyph-name="cid66" unicode="a" horiz-adv-x="682" 
d="M478 506h137v-538h-137v76c-36 -59 -100 -90 -175 -90c-150 0 -262 124 -262 283c-2 157 113 286 262 283c75 0 139 -30 175 -89v75zM478 237c0 99 -64 164 -153 164c-45 0 -82 -16 -111 -47c-28 -31 -42 -70 -42 -117c0 -93 62 -164 153 -164c89 0 153 65 153 164z" />
    <glyph glyph-name="cid67" unicode="b" horiz-adv-x="682" 
d="M641 237c3 -157 -112 -285 -262 -283c-76 0 -139 32 -175 91v-77h-136v751h136v-289c36 59 100 90 175 90c150 3 265 -126 262 -283zM511 237c0 47 -14 86 -43 117s-66 47 -111 47c-89 0 -152 -65 -152 -164s63 -164 152 -164c91 0 154 71 154 164z" />
    <glyph glyph-name="cid68" unicode="c" horiz-adv-x="597" 
d="M41 237c-3 159 125 285 286 283c103 0 191 -47 240 -124l-111 -63c-28 41 -74 67 -129 67c-92 0 -155 -71 -155 -163c0 -47 14 -85 43 -116s66 -46 112 -46c56 0 102 24 129 67l111 -64c-49 -76 -137 -124 -240 -124c-161 -2 -289 124 -286 283z" />
    <glyph glyph-name="cid69" unicode="d" horiz-adv-x="682" 
d="M478 719h137v-751h-137v76c-36 -59 -100 -90 -175 -90c-150 0 -262 124 -262 283c-2 157 113 286 262 283c75 0 139 -30 175 -89v288zM478 237c0 99 -64 164 -153 164c-45 0 -82 -16 -111 -47c-28 -31 -42 -70 -42 -117c0 -93 62 -164 153 -164c89 0 153 65 153 164z" />
    <glyph glyph-name="cid70" unicode="e" horiz-adv-x="638" 
d="M595 190h-421c17 -77 79 -119 162 -119c59 0 113 26 140 67l105 -66c-47 -71 -141 -118 -245 -118c-173 0 -295 122 -295 283s119 283 278 283c160 0 278 -111 278 -270c0 -17 -1 -37 -2 -60zM174 286h292c-7 72 -63 120 -146 120c-72 0 -130 -44 -146 -120z" />
    <glyph glyph-name="cid71" unicode="f" horiz-adv-x="473" 
d="M270 552v-46h183v-119h-183v-419h-136v419h-115v119h115v48c0 147 70 223 203 223c49 0 101 -13 132 -33l-30 -108c-25 13 -53 20 -84 20c-57 0 -85 -35 -85 -104z" />
    <glyph glyph-name="cid72" unicode="g" horiz-adv-x="682" 
d="M478 506h137v-487c0 -177 -129 -277 -298 -277c-112 0 -204 50 -253 122l106 66c29 -44 82 -72 147 -72c103 0 161 56 161 161v47c-36 -53 -100 -82 -175 -82c-149 -3 -264 119 -262 268c0 153 112 268 262 268c76 0 139 -29 175 -82v68zM478 252c0 91 -62 150 -153 150
s-153 -63 -153 -150s62 -149 153 -149s153 58 153 149z" />
    <glyph glyph-name="cid73" unicode="h" horiz-adv-x="662" 
d="M599 272v-304h-137v294c0 92 -42 139 -121 139s-137 -61 -137 -152v-281h-136v751h136v-290c31 55 93 91 169 91c140 0 226 -91 226 -248z" />
    <glyph glyph-name="cid74" unicode="i" horiz-adv-x="272" 
d="M51 659c0 45 36 81 85 81c48 0 85 -36 85 -81c0 -47 -36 -81 -85 -81s-85 34 -85 81zM204 506v-538h-136v538h136z" />
    <glyph glyph-name="cid75" unicode="j" horiz-adv-x="272" 
d="M51 659c0 45 36 81 85 81c48 0 85 -36 85 -81c0 -47 -36 -81 -85 -81s-85 34 -85 81zM-91 -233l31 110c17 -9 37 -13 61 -13c45 0 67 28 67 89v553h136v-554c0 -137 -65 -209 -178 -209c-48 0 -93 9 -117 24z" />
    <glyph glyph-name="cid76" unicode="k" horiz-adv-x="592" 
d="M589 -32h-162l-223 242v-242h-136v751h136v-452l211 239h161l-241 -268z" />
    <glyph glyph-name="cid77" unicode="l" horiz-adv-x="272" 
d="M204 719v-751h-136v751h136z" />
    <glyph glyph-name="cid78" unicode="m" horiz-adv-x="1001" 
d="M937 272v-304h-136v294c0 91 -38 139 -107 139c-71 0 -123 -63 -123 -152v-281h-137v294c0 91 -38 139 -107 139c-35 0 -65 -14 -88 -43s-35 -65 -35 -109v-281h-136v538h136v-77c29 55 86 91 155 91c84 0 146 -37 181 -105c35 64 98 105 183 105c133 0 214 -93 214 -248
z" />
    <glyph glyph-name="cid79" unicode="n" horiz-adv-x="662" 
d="M599 272v-304h-137v294c0 92 -42 139 -121 139s-137 -61 -137 -152v-281h-136v538h136v-77c31 55 93 91 169 91c140 0 226 -91 226 -248z" />
    <glyph glyph-name="cid80" unicode="o" horiz-adv-x="654" 
d="M41 237c-3 159 125 285 286 283c165 0 286 -122 286 -283s-121 -283 -286 -283c-161 -2 -289 124 -286 283zM483 237c0 92 -63 163 -156 163c-92 0 -155 -71 -155 -163c0 -47 14 -85 43 -116s66 -46 112 -46s83 15 112 46s44 69 44 116z" />
    <glyph glyph-name="cid81" unicode="p" horiz-adv-x="682" 
d="M641 237c3 -157 -112 -285 -262 -283c-76 0 -139 32 -175 91v-290h-136v751h136v-76c36 59 100 90 175 90c150 3 265 -126 262 -283zM511 237c0 47 -14 86 -43 117s-66 47 -111 47c-89 0 -152 -65 -152 -164s63 -164 152 -164c91 0 154 71 154 164z" />
    <glyph glyph-name="cid82" unicode="q" horiz-adv-x="682" 
d="M478 506h137v-751h-137v289c-36 -59 -100 -90 -175 -90c-150 0 -262 124 -262 283c-2 157 113 286 262 283c75 0 139 -30 175 -89v75zM478 237c0 99 -64 164 -153 164c-45 0 -82 -16 -111 -47c-28 -31 -42 -70 -42 -117c0 -93 62 -164 153 -164c89 0 153 65 153 164z" />
    <glyph glyph-name="cid83" unicode="r" horiz-adv-x="442" 
d="M417 507v-125c-19 5 -41 8 -64 8c-88 0 -149 -63 -149 -151v-271h-136v538h136v-90c27 60 84 100 152 100c25 0 45 -3 61 -9z" />
    <glyph glyph-name="cid84" unicode="s" horiz-adv-x="567" 
d="M25 81l103 59c28 -44 86 -77 157 -77c68 0 119 21 119 53s-22 45 -105 64l-79 18c-113 25 -168 73 -168 153c0 102 98 169 235 169c53 0 102 -11 145 -34s75 -50 95 -83l-102 -58c-25 39 -82 67 -141 67c-60 0 -103 -21 -103 -53c0 -31 22 -44 105 -63l79 -18
c113 -25 168 -74 168 -155c0 -102 -107 -169 -251 -169c-59 0 -111 13 -157 38s-79 54 -100 89z" />
    <glyph glyph-name="cid85" unicode="t" horiz-adv-x="493" 
d="M439 96l30 -109c-31 -20 -83 -33 -132 -33c-133 0 -203 76 -203 224v209h-115v119h115v143h136v-143h179v-119h-179v-208c0 -68 29 -104 85 -104c30 0 58 7 84 21z" />
    <glyph glyph-name="cid86" unicode="u" horiz-adv-x="662" 
d="M458 506h137v-538h-137v77c-29 -55 -92 -91 -168 -91c-140 0 -226 92 -226 249v303h136v-294c0 -92 42 -139 121 -139c80 0 137 61 137 153v280z" />
    <glyph glyph-name="cid87" unicode="v" horiz-adv-x="628" 
d="M160 506l156 -373l155 373h144l-233 -538h-136l-233 538h147z" />
    <glyph glyph-name="cid88" unicode="w" horiz-adv-x="908" 
d="M167 506l115 -369l112 363h124l112 -363l115 369h144l-187 -538h-137l-111 337l-111 -337h-136l-188 538h148z" />
    <glyph glyph-name="cid89" unicode="x" horiz-adv-x="611" 
d="M10 506h159l138 -174l138 174h156l-218 -267l221 -271h-159l-141 178l-141 -178h-156l220 271z" />
    <glyph glyph-name="cid90" unicode="y" horiz-adv-x="628" 
d="M471 506h144l-233 -548c-35 -81 -72 -137 -111 -168c-39 -32 -83 -48 -132 -48c-43 0 -89 11 -122 27l31 110c27 -11 54 -17 81 -17c55 0 91 25 120 96l4 10l-240 538h147l159 -375z" />
    <glyph glyph-name="cid91" unicode="z" horiz-adv-x="572" 
d="M345 388h-300v118h482v-110l-310 -310h318v-118h-500v110z" />
    <glyph glyph-name="cid92" unicode="{" horiz-adv-x="432" 
d="M117 25v161c0 42 -18 63 -55 63h-31v137h31c37 0 55 19 55 62v162c0 99 38 145 126 145h142v-122h-92c-33 0 -45 -14 -45 -50v-135c0 -80 -27 -122 -87 -131c60 -9 87 -51 87 -131v-134c0 -37 12 -51 45 -51h92v-122h-142c-88 0 -126 46 -126 146z" />
    <glyph glyph-name="cid93" unicode="|" horiz-adv-x="303" 
d="M209 755v-876h-115v876h115z" />
    <glyph glyph-name="cid94" unicode="}" horiz-adv-x="432" 
d="M184 52v134c0 80 27 122 87 131c-60 9 -87 51 -87 131v135c0 36 -12 50 -45 50h-92v122h142c88 0 126 -46 126 -145v-162c0 -43 18 -62 55 -62h31v-137h-31c-37 0 -55 -21 -55 -63v-161c0 -100 -38 -146 -126 -146h-142v122h92c33 0 45 14 45 51z" />
    <glyph glyph-name="cid95" unicode="~" horiz-adv-x="634" 
d="M205 434c39 0 72 -12 113 -33c43 -21 69 -33 90 -33c30 0 54 22 72 67l116 -49c-31 -93 -91 -150 -167 -150c-39 0 -72 12 -113 33c-43 21 -69 33 -90 33c-30 0 -54 -22 -72 -67l-116 49c31 93 91 150 167 150z" />
    <glyph glyph-name="uni20A9" unicode="&#x20a9;" horiz-adv-x="1044" 
d="M1020 435v-92h-129l-115 -375h-144l-110 503l-110 -503h-143l-115 375h-130v92h101l-83 271h143l75 -271h149l56 267h118l56 -267h149l75 271h140l-83 -271h100zM285 343l59 -213l45 213h-104zM704 130l59 213h-104z" />
    <glyph glyph-name="cid97" horiz-adv-x="498" 
d="M435 399v-123h-372v123h372z" />
    <glyph glyph-name="cid98" unicode="&#xa9;" horiz-adv-x="805" 
d="M45 308c-4 218 166 369 358 366c192 3 362 -148 358 -366c4 -218 -166 -369 -358 -366c-192 -3 -362 148 -358 366zM699 308c3 181 -137 310 -296 308c-159 3 -299 -126 -296 -308c-3 -182 137 -312 296 -309c158 -3 299 127 296 309zM210 308c0 114 86 198 200 198
c73 0 133 -33 169 -88l-84 -47c-19 28 -49 45 -85 45c-60 0 -102 -45 -102 -108c0 -61 42 -107 102 -107c36 0 66 17 85 45l84 -48c-36 -55 -97 -87 -169 -87c-114 0 -200 84 -200 197z" />
    <glyph glyph-name="cid99" horiz-adv-x="716" 
d="M27 624v82h259v-82h-85v-228h-88v228h-86zM404 706l88 -157l88 157h78v-310h-79v168l-62 -112h-50l-64 114v-170h-78v310h79z" />
    <glyph glyph-name="cid100" horiz-adv-x="799" 
d="M44 41c0 49 38 87 89 87c52 0 90 -38 90 -87s-38 -87 -90 -87c-51 0 -89 38 -89 87zM310 41c0 49 38 87 90 87c51 0 89 -38 89 -87s-38 -87 -89 -87c-52 0 -90 38 -90 87zM577 41c0 49 38 87 89 87c52 0 90 -38 90 -87s-38 -87 -90 -87c-51 0 -89 38 -89 87z" />
    <glyph glyph-name="uni3000" unicode="&#x3000;" horiz-adv-x="240" 
 />
    <glyph glyph-name="uni3000" unicode="&#x3164;" horiz-adv-x="240" 
 />
    <glyph glyph-name="cid102" 
d="M33 109l93 90c81 -65 166 -146 227 -222l-104 -87c-65 80 -145 163 -216 219z" />
    <glyph glyph-name="cid103" 
d="M44 46c0 84 67 148 151 148c43 0 79 -14 108 -42s43 -63 43 -106s-14 -78 -43 -106s-65 -42 -108 -42c-84 0 -151 64 -151 148zM261 46c0 39 -27 68 -66 68s-65 -29 -65 -68s26 -68 65 -68s66 29 66 68z" />
    <glyph glyph-name="cid104" unicode="&#xb7;" horiz-adv-x="266" 
d="M44 337c0 49 38 87 89 87c52 0 90 -38 90 -87s-38 -86 -90 -86c-51 0 -89 37 -89 86z" />
    <glyph glyph-name="cid105" unicode="&#x2025;" horiz-adv-x="533" 
d="M44 337c0 49 38 87 89 87c52 0 90 -38 90 -87s-38 -86 -90 -86c-51 0 -89 37 -89 86zM310 337c0 49 38 87 90 87c51 0 89 -38 89 -87s-38 -86 -89 -86c-52 0 -90 37 -90 86z" />
    <glyph glyph-name="cid106" unicode="&#x2026;" horiz-adv-x="799" 
d="M44 337c0 49 38 87 89 87c52 0 90 -38 90 -87s-38 -86 -90 -86c-51 0 -89 37 -89 86zM310 337c0 49 38 87 90 87c51 0 89 -38 89 -87s-38 -86 -89 -86c-52 0 -90 37 -90 86zM577 337c0 49 38 87 89 87c52 0 90 -38 90 -87s-38 -86 -90 -86c-51 0 -89 37 -89 86z" />
    <glyph glyph-name="cid107" unicode="&#xa8;" horiz-adv-x="405" 
d="M30 646c0 41 31 73 72 73s71 -32 71 -73c0 -40 -31 -73 -71 -73s-72 33 -72 73zM232 646c0 41 31 73 72 73s71 -32 71 -73c0 -40 -31 -73 -71 -73s-72 33 -72 73z" />
    <glyph glyph-name="uni3003" unicode="&#x3003;" 
d="M430 527l-90 -378h-112l56 378h146zM690 527l-91 -378h-112l57 378h146z" />
    <glyph glyph-name="uni00AD" unicode="&#xad;" horiz-adv-x="648" 
d="M585 399v-123h-522v123h522z" />
    <glyph glyph-name="uni00AD" unicode="&#x2013;" horiz-adv-x="648" 
d="M585 399v-123h-522v123h522z" />
    <glyph glyph-name="cid110" unicode="&#x2014;" 
d="M837 399v-123h-774v123h774z" />
    <glyph glyph-name="cid110" unicode="&#x2015;" 
d="M837 399v-123h-774v123h774z" />
    <glyph glyph-name="uni2016" unicode="&#x2016;" horiz-adv-x="496" 
d="M196 706v-827h-123v827h123zM423 706v-827h-123v827h123z" />
    <glyph glyph-name="uni2016" unicode="&#x2225;" horiz-adv-x="496" 
d="M196 706v-827h-123v827h123zM423 706v-827h-123v827h123z" />
    <glyph glyph-name="uniFF3C" unicode="&#xff3c;" horiz-adv-x="548" 
d="M140 755l388 -876h-120l-388 876h120z" />
    <glyph glyph-name="cid113" unicode="&#x223c;" horiz-adv-x="634" 
d="M205 434c39 0 72 -12 113 -33c43 -21 69 -33 90 -33c30 0 54 22 72 67l116 -49c-31 -93 -91 -150 -167 -150c-39 0 -72 12 -113 33c-43 21 -69 33 -90 33c-30 0 -54 -22 -72 -67l-116 49c31 93 91 150 167 150z" />
    <glyph glyph-name="cid113" unicode="&#x301c;" horiz-adv-x="634" 
d="M205 434c39 0 72 -12 113 -33c43 -21 69 -33 90 -33c30 0 54 22 72 67l116 -49c-31 -93 -91 -150 -167 -150c-39 0 -72 12 -113 33c-43 21 -69 33 -90 33c-30 0 -54 -22 -72 -67l-116 49c31 93 91 150 167 150z" />
    <glyph glyph-name="cid114" unicode="&#x2018;" horiz-adv-x="266" 
d="M225 785l-38 -253h-146l72 253h112z" />
    <glyph glyph-name="cid115" unicode="&#x2019;" horiz-adv-x="266" 
d="M226 785l-72 -253h-113l38 253h147z" />
    <glyph glyph-name="cid116" unicode="&#x201c;" horiz-adv-x="456" 
d="M224 785l-38 -253h-145l72 253h111zM415 785l-38 -253h-145l72 253h111z" />
    <glyph glyph-name="cid117" unicode="&#x201d;" horiz-adv-x="456" 
d="M224 785l-72 -253h-111l38 253h145zM416 785l-72 -253h-111l38 253h145z" />
    <glyph glyph-name="uni3014" unicode="&#x3014;" horiz-adv-x="368" 
d="M94 694l181 100l68 -120l-118 -65v-583l118 -66l-68 -120l-181 100v754z" />
    <glyph glyph-name="uni3015" unicode="&#x3015;" horiz-adv-x="368" 
d="M144 26v583l-119 65l68 120l182 -100v-754l-182 -100l-68 120z" />
    <glyph glyph-name="uni3008" unicode="&#x3008;" horiz-adv-x="479" 
d="M353 790l89 -61l-278 -412l278 -412l-89 -61l-319 473z" />
    <glyph glyph-name="uni3009" unicode="&#x3009;" horiz-adv-x="479" 
d="M316 317l-278 412l89 61l318 -473l-318 -473l-89 61z" />
    <glyph glyph-name="uni300A" unicode="&#x300a;" horiz-adv-x="590" 
d="M277 790l81 -45l-219 -428l219 -428l-81 -45l-242 473zM469 790l81 -45l-219 -428l219 -428l-81 -45l-242 473z" />
    <glyph glyph-name="uni300B" unicode="&#x300b;" horiz-adv-x="590" 
d="M259 317l-219 428l81 45l242 -473l-242 -473l-81 45zM451 317l-219 428l81 45l242 -473l-242 -473l-81 45z" />
    <glyph glyph-name="uni300C" unicode="&#x300c;" horiz-adv-x="388" 
d="M361 755v-110h-178v-394h-115v504h293z" />
    <glyph glyph-name="uni300D" unicode="&#x300d;" horiz-adv-x="388" 
d="M205 -11v395h116v-505h-294v110h178z" />
    <glyph glyph-name="uni300E" unicode="&#x300e;" horiz-adv-x="388" 
d="M361 755v-145h-134v-359h-159v504h293zM166 664h135v37h-172v-395h37v358z" />
    <glyph glyph-name="uni300F" unicode="&#x300f;" horiz-adv-x="388" 
d="M162 25v359h159v-505h-294v146h135zM260 329h-37v-359h-135v-37h172v396z" />
    <glyph glyph-name="uni3010" unicode="&#x3010;" horiz-adv-x="437" 
d="M206 317c0 -183 78 -340 225 -441h-347v882h347c-147 -101 -225 -258 -225 -441z" />
    <glyph glyph-name="uni3011" unicode="&#x3011;" horiz-adv-x="437" 
d="M231 317c0 183 -78 340 -225 441h347v-882h-347c147 101 225 258 225 441z" />
    <glyph glyph-name="cid130" unicode="&#xb1;" horiz-adv-x="648" 
d="M73 367v116h190v176h123v-176h189v-116h-189v-177h-123v177h-190zM575 140v-117h-502v117h502z" />
    <glyph glyph-name="cid131" unicode="&#xd7;" horiz-adv-x="648" 
d="M242 337l-161 161l83 82l160 -160l160 160l83 -82l-160 -161l160 -160l-83 -83l-160 160l-160 -160l-83 83z" />
    <glyph glyph-name="cid132" unicode="&#xf7;" horiz-adv-x="648" 
d="M235 551c0 49 38 87 89 87c52 0 90 -38 90 -87s-38 -86 -90 -86c-51 0 -89 37 -89 86zM585 396v-117h-522v117h522zM235 123c0 49 38 87 89 87c52 0 90 -38 90 -87s-38 -86 -90 -86c-51 0 -89 37 -89 86z" />
    <glyph glyph-name="cid133" unicode="&#x2260;" horiz-adv-x="648" 
d="M575 402h-178l-40 -129h218v-117h-255l-44 -141h-105l44 141h-142v117h179l40 129h-219v116h255l44 141h105l-44 -141h142v-116z" />
    <glyph glyph-name="cid134" unicode="&#x2264;" horiz-adv-x="622" 
d="M73 480l476 179v-126l-330 -108l330 -108v-127l-476 179v111zM549 140v-117h-476v117h476z" />
    <glyph glyph-name="cid135" unicode="&#x2265;" horiz-adv-x="622" 
d="M403 425l-330 108v126l476 -179v-111l-476 -179v127zM549 140v-117h-476v117h476z" />
    <glyph glyph-name="cid136" unicode="&#x221e;" horiz-adv-x="893" 
d="M64 337c0 114 85 188 196 188c63 0 125 -33 187 -99c62 66 124 99 187 99c111 0 195 -74 195 -188s-84 -188 -195 -188c-63 0 -125 33 -187 99c-62 -66 -124 -99 -187 -99c-111 0 -196 74 -196 188zM381 337c-36 44 -79 77 -115 77c-44 0 -78 -33 -78 -77
c0 -43 34 -77 78 -77c33 0 71 26 115 77zM706 337c0 44 -35 77 -79 77c-36 0 -79 -34 -114 -77c36 -43 78 -77 114 -77c44 0 79 34 79 77z" />
    <glyph glyph-name="cid137" unicode="&#x2234;" horiz-adv-x="766" 
d="M294 517c0 49 38 87 89 87c52 0 90 -38 90 -87s-38 -86 -90 -86c-51 0 -89 37 -89 86zM94 158c0 49 38 86 89 86c52 0 90 -37 90 -86s-38 -87 -90 -87c-51 0 -89 38 -89 87zM494 158c0 49 38 86 89 86c52 0 90 -37 90 -86s-38 -87 -90 -87c-51 0 -89 38 -89 87z" />
    <glyph glyph-name="cid138" unicode="&#xb0;" horiz-adv-x="402" 
d="M39 561c0 90 72 159 162 159s162 -69 162 -159s-72 -158 -162 -158s-162 68 -162 158zM273 561c0 43 -29 76 -72 76s-71 -33 -71 -76s28 -76 71 -76s72 33 72 76z" />
    <glyph glyph-name="cid139" unicode="&#x2032;" horiz-adv-x="266" 
d="M226 785l-72 -253h-113l38 253h147z" />
    <glyph glyph-name="cid140" unicode="&#x2033;" horiz-adv-x="456" 
d="M224 785l-72 -253h-111l38 253h145zM416 785l-72 -253h-111l38 253h145z" />
    <glyph glyph-name="uni2103" unicode="&#x2103;" horiz-adv-x="1152" 
d="M39 561c0 90 72 159 162 159s162 -69 162 -159s-72 -158 -162 -158s-162 68 -162 158zM417 337c-3 217 162 387 375 383c139 0 252 -67 315 -168l-121 -69c-41 67 -110 105 -194 105c-140 0 -234 -109 -234 -251s94 -251 234 -251c84 0 151 40 194 105l121 -68
c-63 -103 -176 -169 -315 -169c-213 -4 -378 168 -375 383zM273 561c0 43 -29 76 -72 76s-71 -33 -71 -76s28 -76 71 -76s72 33 72 76z" />
    <glyph glyph-name="uni212B" unicode="&#x212b;" horiz-adv-x="757" 
d="M243 887c0 36 13 66 39 90s58 36 97 36s71 -12 97 -36s39 -54 39 -90s-13 -66 -39 -90s-58 -36 -97 -36s-71 12 -97 36s-39 54 -39 90zM325 887c0 -31 22 -53 54 -53s54 22 54 53s-22 53 -54 53s-54 -22 -54 -53zM594 -32l-60 157h-315l-60 -157h-146l293 738h145
l293 -738h-150zM264 243h225l-112 296z" />
    <glyph glyph-name="cid143" unicode="&#xa2;" horiz-adv-x="597" 
d="M456 231l111 -64c-40 -63 -106 -106 -186 -119v-103h-115v105c-132 24 -225 137 -225 276c0 140 93 251 225 277v104h115v-102c79 -13 146 -57 186 -120l-111 -63c-28 41 -74 67 -129 67c-92 0 -155 -71 -155 -163c0 -47 14 -85 43 -116s66 -46 112 -46
c56 0 102 24 129 67z" />
    <glyph glyph-name="cid143" unicode="&#xffe0;" horiz-adv-x="597" 
d="M456 231l111 -64c-40 -63 -106 -106 -186 -119v-103h-115v105c-132 24 -225 137 -225 276c0 140 93 251 225 277v104h115v-102c79 -13 146 -57 186 -120l-111 -63c-28 41 -74 67 -129 67c-92 0 -155 -71 -155 -163c0 -47 14 -85 43 -116s66 -46 112 -46
c56 0 102 24 129 67z" />
    <glyph glyph-name="cid144" unicode="&#xa3;" horiz-adv-x="645" 
d="M130 94v168h-65v108h65v103c0 153 96 247 248 247c56 0 103 -14 142 -41s67 -57 83 -92l-115 -64c-21 45 -58 71 -110 71c-65 0 -108 -45 -108 -121v-103h200v-108h-200v-168h338v-126h-543v126h65z" />
    <glyph glyph-name="cid144" unicode="&#xffe1;" horiz-adv-x="645" 
d="M130 94v168h-65v108h65v103c0 153 96 247 248 247c56 0 103 -14 142 -41s67 -57 83 -92l-115 -64c-21 45 -58 71 -110 71c-65 0 -108 -45 -108 -121v-103h200v-108h-200v-168h338v-126h-543v126h65z" />
    <glyph glyph-name="cid145" unicode="&#xa5;" horiz-adv-x="737" 
d="M720 706l-234 -364h156v-93h-203v-63h203v-91h-203v-127h-141v127h-202v91h202v63h-202v93h155l-234 364h158l195 -320l196 320h154z" />
    <glyph glyph-name="cid145" unicode="&#xffe5;" horiz-adv-x="737" 
d="M720 706l-234 -364h156v-93h-203v-63h203v-91h-203v-127h-141v127h-202v91h202v63h-202v93h155l-234 364h158l195 -320l196 320h154z" />
    <glyph glyph-name="male" unicode="&#x2642;" horiz-adv-x="562" 
d="M499 168c0 -121 -92 -214 -218 -214c-124 0 -218 93 -218 214c0 101 64 183 160 207v76c0 28 1 61 2 98c-17 -21 -38 -41 -63 -62l-58 -47l-68 82l245 198l245 -198l-68 -82l-57 47c-27 23 -48 43 -64 62c2 -28 3 -61 3 -98v-76c96 -24 159 -106 159 -207zM385 168
c0 63 -41 109 -104 109c-61 0 -104 -46 -104 -109c0 -61 43 -108 104 -108c63 0 104 45 104 108z" />
    <glyph glyph-name="female" unicode="&#x2640;" horiz-adv-x="562" 
d="M340 300v-82h159v-106h-159v-144h-117v144h-160v106h160v82c-96 24 -160 106 -160 206c0 121 94 214 218 214c126 0 218 -93 218 -214c0 -100 -63 -182 -159 -206zM281 398c63 0 104 45 104 108s-41 109 -104 109c-61 0 -104 -46 -104 -109c0 -61 43 -108 104 -108z" />
    <glyph glyph-name="cid148" unicode="&#x2220;" horiz-adv-x="648" 
d="M474 683l107 -80l-373 -509h401v-126h-572v119z" />
    <glyph glyph-name="uni22A5" unicode="&#x22a5;" horiz-adv-x="648" 
d="M254 95v561h141v-561h224v-127h-590v127h225z" />
    <glyph glyph-name="uni2312" unicode="&#x2312;" 
d="M450 800c94 0 179 -16 255 -48s137 -70 183 -114v-136c-115 105 -265 175 -438 175s-322 -70 -438 -175v136c46 44 107 82 183 114s161 48 255 48z" />
    <glyph glyph-name="cid151" unicode="&#x2202;" horiz-adv-x="650" 
d="M42 216c0 143 115 249 264 249c63 0 119 -20 151 -52c-12 56 -43 102 -92 137s-105 59 -170 71l56 117c181 -30 359 -178 357 -479c0 -192 -119 -305 -283 -305c-160 -3 -286 115 -283 262zM477 227c0 77 -61 132 -152 132c-45 0 -81 -14 -110 -41
c-28 -27 -42 -61 -42 -102s14 -76 42 -103c29 -27 65 -41 110 -41s82 15 110 44c28 30 42 67 42 111z" />
    <glyph glyph-name="cid152" unicode="&#x2207;" horiz-adv-x="757" 
d="M744 706l-293 -738h-145l-293 738h731zM210 581l170 -446l171 446h-341z" />
    <glyph glyph-name="cid153" unicode="&#x2261;" horiz-adv-x="648" 
d="M575 597v-114h-502v114h502zM575 394v-114h-502v114h502zM575 192v-114h-502v114h502z" />
    <glyph glyph-name="uni2252" unicode="&#x2252;" horiz-adv-x="648" 
d="M133 615c0 43 32 74 76 74c43 0 75 -31 75 -74s-32 -74 -75 -74c-44 0 -76 31 -76 74zM575 483v-110h-502v110h502zM575 301v-109h-502v109h502zM364 60c0 43 32 73 76 73s76 -30 76 -73s-32 -75 -76 -75s-76 32 -76 75z" />
    <glyph glyph-name="cid155" unicode="&#xa7;" horiz-adv-x="563" 
d="M504 27c0 -105 -91 -178 -221 -178c-104 0 -192 46 -231 121l100 56c24 -41 73 -68 132 -68c57 0 97 24 97 64c0 35 -26 53 -102 72l-75 20c-105 27 -161 86 -161 171c0 57 31 104 82 136c-44 29 -66 70 -66 122c0 103 91 177 221 177c104 0 192 -46 231 -121l-100 -56
c-24 41 -73 68 -132 68c-56 0 -97 -24 -97 -63c0 -35 26 -53 102 -73l75 -19c105 -27 161 -87 161 -172c0 -56 -33 -104 -82 -135c44 -30 66 -71 66 -122zM267 210l65 -17c39 9 65 45 65 82c0 41 -26 65 -101 85l-66 17c-37 -11 -64 -45 -64 -82c0 -43 26 -66 101 -85z" />
    <glyph glyph-name="uni203B" unicode="&#x203b;" 
d="M372 619c0 44 34 77 78 77c45 0 78 -33 78 -77s-33 -78 -78 -78c-44 0 -78 34 -78 78zM413 338l-292 293l37 36l292 -292l292 292l37 -36l-292 -293l292 -292l-36 -37l-293 292l-292 -292l-37 37zM89 337c0 43 34 77 79 77s79 -33 79 -77c0 -43 -34 -76 -79 -76
s-79 33 -79 76zM653 337c0 44 34 77 79 77s79 -34 79 -77s-34 -76 -79 -76s-79 33 -79 76zM372 56c0 44 34 78 78 78c45 0 78 -34 78 -78s-33 -78 -78 -78c-44 0 -78 34 -78 78z" />
    <glyph glyph-name="uni2606" unicode="&#x2606;" 
d="M2 483h341l107 311l107 -311h341l-273 -204l114 -326l-289 201l-289 -201l114 326zM634 99l-73 203l177 133h-223l-65 198l-65 -198h-223l177 -133l-73 -203l184 127z" />
    <glyph glyph-name="uni2605" unicode="&#x2605;" 
d="M2 483h341l107 311l107 -311h341l-273 -204l114 -326l-289 201l-289 -201l114 326z" />
    <glyph glyph-name="circle" unicode="&#x25cb;" 
d="M64 337c-4 206 178 390 386 386c208 4 390 -180 386 -386c4 -206 -178 -392 -386 -387c-208 -5 -390 181 -386 387zM766 337c3 170 -145 324 -316 320c-172 4 -320 -150 -317 -320c-3 -171 145 -325 317 -321c171 -4 319 150 316 321z" />
    <glyph glyph-name="uni25CF" unicode="&#x25cf;" 
d="M64 337c-4 206 178 390 386 386c208 4 390 -180 386 -386c4 -206 -178 -392 -386 -387c-208 -5 -390 181 -386 387z" />
    <glyph glyph-name="uni25CE" unicode="&#x25ce;" 
d="M64 337c-4 206 178 390 386 386c208 4 390 -180 386 -386c4 -206 -178 -392 -386 -387c-208 -5 -390 181 -386 387zM774 337c3 175 -148 332 -324 328c-176 4 -327 -153 -324 -328c-3 -175 148 -332 324 -328c176 -4 327 153 324 328zM210 337c-3 129 110 242 240 240
c129 3 242 -113 240 -240c0 -131 -109 -240 -240 -240c-130 -3 -243 111 -240 240zM628 337c0 97 -80 180 -178 180c-99 0 -178 -83 -178 -180s79 -180 178 -180c98 0 178 83 178 180z" />
    <glyph glyph-name="uni25C7" unicode="&#x25c7;" 
d="M450 785l448 -448l-448 -448l-448 448zM450 691l-357 -354l357 -355l356 355z" />
    <glyph glyph-name="uni25C6" unicode="&#x25c6;" 
d="M450 785l448 -448l-448 -448l-448 448z" />
    <glyph glyph-name="uni25A1" unicode="&#x25a1;" 
d="M816 702v-731h-732v731h732zM748 636h-596v-599h596v599z" />
    <glyph glyph-name="filledbox" unicode="&#x25a0;" 
d="M816 702v-731h-732v731h732z" />
    <glyph glyph-name="uni25B3" unicode="&#x25b3;" 
d="M862 -19h-824l412 761zM450 595l-298 -550h596z" />
    <glyph glyph-name="triagup" unicode="&#x25b2;" 
d="M862 -19h-824l412 761z" />
    <glyph glyph-name="uni25BD" unicode="&#x25bd;" 
d="M862 692l-412 -760l-412 760h824zM152 628l298 -550l298 550h-596z" />
    <glyph glyph-name="triagdn" unicode="&#x25bc;" 
d="M862 692l-412 -760l-412 760h824z" />
    <glyph glyph-name="arrowright" unicode="&#x2192;" 
d="M645 278c-28 -1 -63 -2 -105 -2h-475v123h475c42 0 77 -1 105 -2c-10 9 -28 28 -53 57l-152 177l103 84l312 -378l-312 -378l-103 85l152 177c21 23 38 42 53 57z" />
    <glyph glyph-name="arrowleft" unicode="&#x2190;" 
d="M357 715l104 -84l-152 -177c-25 -29 -43 -48 -54 -57c29 1 65 2 106 2h474v-123h-474c-41 0 -77 1 -106 2c14 -13 32 -32 54 -57l152 -177l-104 -85l-312 378z" />
    <glyph glyph-name="arrowup" unicode="&#x2191;" horiz-adv-x="850" 
d="M357 519c-9 -9 -26 -26 -51 -49l-176 -151l-83 101l378 312l378 -312l-82 -101l-176 151c-25 23 -42 39 -51 49c1 -14 1 -49 1 -105v-472h-140v472c0 42 1 77 2 105z" />
    <glyph glyph-name="arrowdown" unicode="&#x2193;" horiz-adv-x="850" 
d="M130 355l176 -151c21 -18 38 -34 51 -49c-1 28 -2 63 -2 105v472h140v-472c0 -56 0 -91 -1 -105c11 14 28 30 51 49l176 151l82 -101l-378 -312l-378 312z" />
    <glyph glyph-name="arrowboth" unicode="&#x2194;" horiz-adv-x="1060" 
d="M357 715l104 -84l-152 -177c-25 -29 -43 -48 -54 -57c29 1 65 2 106 2h339c42 0 77 -1 105 -2c-10 9 -28 28 -53 57l-152 177l103 84l312 -378l-312 -378l-103 85l152 177c21 23 38 42 53 57c-28 -1 -63 -2 -105 -2h-339c-41 0 -77 1 -106 2c14 -13 32 -32 54 -57
l152 -177l-104 -85l-312 378z" />
    <glyph glyph-name="uni3013" unicode="&#x3013;" 
d="M810 698v-273h-720v273h720zM810 249v-273h-720v273h720z" />
    <glyph glyph-name="uni226A" unicode="&#x226a;" horiz-adv-x="944" 
d="M83 393l377 218v-136l-253 -138l253 -137v-136l-377 218v111zM478 393l377 218v-136l-254 -138l254 -137v-136l-377 218v111z" />
    <glyph glyph-name="uni226B" unicode="&#x226b;" horiz-adv-x="944" 
d="M343 337l-254 138v136l377 -218v-111l-377 -218v136zM737 337l-253 138v136l377 -218v-111l-377 -218v136z" />
    <glyph glyph-name="cid178" unicode="&#x221a;" horiz-adv-x="727" 
d="M63 208v122h196l96 -294l235 719h120l-291 -876h-129l-109 329h-118z" />
    <glyph glyph-name="uni223D" unicode="&#x223d;" horiz-adv-x="893" 
d="M64 337c0 114 84 188 197 188c39 0 78 -13 116 -38l-59 -92c-17 13 -34 19 -52 19c-44 0 -78 -33 -78 -77c0 -43 34 -77 78 -77s77 33 138 109c26 33 49 59 69 80c41 43 96 76 160 76c111 0 196 -74 196 -188s-85 -188 -196 -188c-40 0 -83 15 -116 38l59 92
c17 -13 34 -19 51 -19c44 0 79 34 79 77c0 44 -35 77 -79 77s-77 -33 -138 -109c-26 -33 -49 -60 -70 -81c-40 -41 -94 -75 -158 -75c-113 0 -197 74 -197 188z" />
    <glyph glyph-name="cid180" unicode="&#x221d;" horiz-adv-x="825" 
d="M64 337c0 114 85 188 196 188c63 0 125 -33 187 -99c62 66 124 99 187 99c48 0 89 -13 124 -38l-70 -96c-14 15 -34 23 -61 23c-36 0 -79 -34 -114 -77c36 -43 78 -77 114 -77c26 0 46 8 61 24l70 -97c-37 -25 -78 -38 -124 -38c-63 0 -125 33 -187 99
c-62 -66 -124 -99 -187 -99c-111 0 -196 74 -196 188zM381 337c-36 44 -79 77 -115 77c-44 0 -78 -33 -78 -77c0 -43 34 -77 78 -77c33 0 71 26 115 77z" />
    <glyph glyph-name="uni2235" unicode="&#x2235;" horiz-adv-x="766" 
d="M94 517c0 49 38 87 89 87c52 0 90 -38 90 -87s-38 -86 -90 -86c-51 0 -89 37 -89 86zM494 517c0 49 38 87 89 87c52 0 90 -38 90 -87s-38 -86 -90 -86c-51 0 -89 37 -89 86zM294 158c0 49 38 86 89 86c52 0 90 -37 90 -86s-38 -87 -90 -87c-51 0 -89 38 -89 87z" />
    <glyph glyph-name="cid182" unicode="&#x222b;" horiz-adv-x="479" 
d="M47 -124l12 95c12 -3 24 -5 37 -5c63 0 92 40 92 172v383c0 93 17 158 52 195s79 56 133 56c19 0 39 -2 59 -7l-12 -95c-12 3 -24 5 -37 5c-61 0 -91 -40 -91 -172v-382c0 -93 -18 -159 -53 -196s-79 -56 -133 -56c-21 0 -40 2 -59 7z" />
    <glyph glyph-name="uni222C" unicode="&#x222c;" horiz-adv-x="805" 
d="M47 -124l12 95c12 -3 24 -5 37 -5c63 0 92 40 92 172v383c0 93 17 158 52 195s79 56 133 56c19 0 39 -2 59 -7l-12 -95c-12 3 -24 5 -37 5c-61 0 -91 -40 -91 -172v-382c0 -93 -18 -159 -53 -196s-79 -56 -133 -56c-21 0 -40 2 -59 7zM374 -124l12 95c12 -3 24 -5 37 -5
c61 0 91 40 91 172v383c0 93 17 158 52 195s80 56 134 56c20 0 39 -2 58 -7l-12 -95c-12 3 -24 5 -37 5c-61 0 -91 -40 -91 -172v-382c0 -168 -62 -252 -186 -252c-20 0 -39 2 -58 7z" />
    <glyph glyph-name="cid184" unicode="&#x2208;" horiz-adv-x="742" 
d="M191 394h478v-114h-478c19 -57 67 -91 140 -91h338v-114h-343c-156 0 -263 115 -263 262c0 148 107 262 263 262h343v-114h-338c-73 0 -121 -34 -140 -91z" />
    <glyph glyph-name="cid185" unicode="&#x220b;" horiz-adv-x="742" 
d="M679 337c0 -147 -112 -262 -262 -262h-344v114h339c73 0 122 34 141 91h-480v114h480c-19 57 -68 91 -141 91h-339v114h344c150 0 262 -114 262 -262z" />
    <glyph glyph-name="cid186" unicode="&#x2286;" horiz-adv-x="733" 
d="M73 441c0 132 95 213 250 213h336v-116h-331c-84 0 -128 -34 -128 -97c0 -61 44 -96 128 -96h331v-117h-336c-155 0 -250 82 -250 213zM660 140v-117h-586v117h586z" />
    <glyph glyph-name="cid187" unicode="&#x2287;" horiz-adv-x="733" 
d="M534 441c0 63 -44 97 -128 97h-332v116h337c155 0 249 -81 249 -213s-94 -213 -249 -213h-337v117h332c84 0 128 35 128 96zM659 140v-117h-586v117h586z" />
    <glyph glyph-name="propersubset" unicode="&#x2282;" horiz-adv-x="742" 
d="M63 337c0 148 107 262 263 262h343v-121h-338c-91 0 -141 -56 -141 -141s50 -140 141 -140h338v-122h-343c-156 0 -263 115 -263 262z" />
    <glyph glyph-name="propersuperset" unicode="&#x2283;" horiz-adv-x="742" 
d="M553 337c0 85 -50 141 -141 141h-339v121h344c156 0 262 -114 262 -262c0 -147 -107 -262 -262 -262h-344v122h339c91 0 141 55 141 140z" />
    <glyph glyph-name="cid190" unicode="&#x222a;" horiz-adv-x="712" 
d="M79 282v359h132v-355c0 -92 58 -145 145 -145s146 53 146 145v355h131v-359c0 -156 -118 -263 -277 -263s-277 107 -277 263z" />
    <glyph glyph-name="cid191" unicode="&#x2229;" horiz-adv-x="712" 
d="M356 655c159 0 277 -106 277 -262v-360h-131v356c0 92 -59 145 -146 145s-145 -53 -145 -145v-356h-132v360c0 156 118 262 277 262z" />
    <glyph glyph-name="cid192" unicode="&#x2227;" horiz-adv-x="648" 
d="M391 642l242 -609h-139l-168 434l-168 -434h-142l242 609h133z" />
    <glyph glyph-name="cid193" unicode="&#x2228;" horiz-adv-x="648" 
d="M158 642l168 -434l168 434h139l-242 -609h-133l-242 609h142z" />
    <glyph glyph-name="cid194" unicode="&#xac;" horiz-adv-x="704" 
d="M63 325v117h572v-321h-123v204h-449z" />
    <glyph glyph-name="cid194" unicode="&#xffe2;" horiz-adv-x="704" 
d="M63 325v117h572v-321h-123v204h-449z" />
    <glyph glyph-name="arrowdblright" unicode="&#x21d2;" horiz-adv-x="828" 
d="M495 685l290 -348l-290 -348l-83 68l96 112h-445v111h539l49 57l-49 58h-539v111h444l-95 112z" />
    <glyph glyph-name="arrowdblboth" unicode="&#x21d4;" horiz-adv-x="958" 
d="M625 685l290 -348l-290 -348l-83 68l96 112h-317l96 -112l-84 -68l-290 348l290 348l84 -67l-95 -112h315l-95 112zM227 280h505l49 57l-49 58h-505l-49 -58z" />
    <glyph glyph-name="cid197" unicode="&#x2200;" horiz-adv-x="757" 
d="M598 706h146l-293 -738h-145l-293 738h150l59 -156h316zM380 136l113 296h-226z" />
    <glyph glyph-name="cid198" unicode="&#x2203;" horiz-adv-x="643" 
d="M431 95v179h-337v125h337v181h-388v126h528v-738h-518v127h378z" />
    <glyph glyph-name="cid199" unicode="&#xb4;" horiz-adv-x="289" 
d="M269 736l-119 -162h-130l95 162h154z" />
    <glyph glyph-name="cid200" unicode="&#x2dc;" horiz-adv-x="429" 
d="M202 609c-23 13 -39 20 -46 20c-19 0 -27 -20 -27 -51h-99c0 96 38 157 109 157c27 0 50 -12 89 -33c23 -13 38 -20 45 -20c19 0 28 20 28 51h98c0 -96 -37 -157 -108 -157c-27 0 -50 12 -89 33z" />
    <glyph glyph-name="cid200" unicode="&#xff5e;" horiz-adv-x="429" 
d="M202 609c-23 13 -39 20 -46 20c-19 0 -27 -20 -27 -51h-99c0 96 38 157 109 157c27 0 50 -12 89 -33c23 -13 38 -20 45 -20c19 0 28 20 28 51h98c0 -96 -37 -157 -108 -157c-27 0 -50 12 -89 33z" />
    <glyph glyph-name="cid201" unicode="&#x2c7;" horiz-adv-x="414" 
d="M141 746l66 -99l67 99h119l-113 -172h-145l-114 172h120z" />
    <glyph glyph-name="cid202" unicode="&#x2d8;" horiz-adv-x="405" 
d="M30 736h105c3 -40 29 -70 68 -70s65 30 68 70h104c-2 -78 -64 -162 -172 -162c-107 0 -171 84 -173 162z" />
    <glyph glyph-name="cid203" unicode="&#x2dd;" horiz-adv-x="481" 
d="M260 736l-119 -162h-121l95 162h145zM461 736l-119 -162h-121l95 162h145z" />
    <glyph glyph-name="cid204" unicode="&#x2da;" horiz-adv-x="332" 
d="M30 687c0 36 13 66 39 90s58 36 97 36s71 -12 97 -36s39 -54 39 -90s-13 -66 -39 -90s-58 -36 -97 -36s-71 12 -97 36s-39 54 -39 90zM220 687c0 31 -22 53 -54 53s-54 -22 -54 -53s22 -53 54 -53s54 22 54 53z" />
    <glyph glyph-name="cid205" unicode="&#x2d9;" horiz-adv-x="221" 
d="M30 651c0 43 36 77 81 77s80 -34 80 -77c0 -44 -35 -78 -80 -78s-81 34 -81 78z" />
    <glyph glyph-name="cid206" unicode="&#xb8;" horiz-adv-x="260" 
d="M240 -34l-69 -180h-151l75 180h145z" />
    <glyph glyph-name="cid207" unicode="&#x2db;" horiz-adv-x="259" 
d="M30 -163c0 59 39 107 88 134l111 -3c-45 -11 -81 -47 -81 -90c0 -33 20 -54 52 -54c11 0 21 2 29 5v-86c-19 -7 -44 -11 -76 -11c-67 0 -123 42 -123 105z" />
    <glyph glyph-name="cid208" unicode="&#xa1;" horiz-adv-x="288" 
d="M55 433c0 49 38 87 89 87c52 0 90 -38 90 -87s-38 -86 -90 -86c-51 0 -89 37 -89 86zM207 278l13 -510h-152l13 510h126z" />
    <glyph glyph-name="cid209" unicode="&#xbf;" horiz-adv-x="571" 
d="M218 433c0 49 38 87 89 87c52 0 90 -38 90 -87s-38 -86 -90 -86c-51 0 -89 37 -89 86zM41 -42c0 79 36 124 131 184c51 32 67 62 67 113v23h136v-23c0 -89 -19 -125 -111 -185c-67 -43 -89 -68 -89 -108c0 -53 48 -89 121 -89c63 0 121 38 146 94l114 -56
c-20 -47 -54 -85 -101 -114s-99 -43 -158 -43c-155 0 -256 84 -256 204z" />
    <glyph glyph-name="uni02D0" unicode="&#x2d0;" horiz-adv-x="266" 
d="M235 484l-102 -181l-101 181h203zM235 -10h-203l101 181z" />
    <glyph glyph-name="uni222E" unicode="&#x222e;" 
d="M502 111c-3 -161 -65 -242 -186 -242c-20 0 -39 2 -58 7l12 95c12 -3 24 -5 37 -5c56 0 86 34 91 145c-48 12 -88 38 -119 77s-46 84 -46 133s15 94 46 133s71 65 119 77c1 89 19 152 54 187c35 36 79 54 132 54c20 0 39 -2 58 -7l-12 -95c-12 3 -24 5 -37 5
c-56 0 -86 -35 -91 -144c48 -12 87 -38 118 -77s47 -84 47 -133s-16 -94 -47 -133s-70 -65 -118 -77zM594 321c0 61 -37 116 -92 137v-274c55 21 92 76 92 137zM398 184v274c-56 -23 -92 -76 -92 -137s36 -114 92 -137z" />
    <glyph glyph-name="cid212" unicode="&#x2211;" horiz-adv-x="639" 
d="M257 293l-220 305v108h552v-126h-378l207 -287l-207 -288h388v-126h-562v108z" />
    <glyph glyph-name="cid213" unicode="&#x220f;" horiz-adv-x="744" 
d="M673 706v-827h-141v700h-319v-700h-141v827h601z" />
    <glyph glyph-name="cid214" unicode="&#xa4;" horiz-adv-x="731" 
d="M595 209l101 -101l-88 -89l-99 99c-41 -26 -89 -39 -143 -39s-102 13 -143 39l-99 -99l-89 89l101 101c-21 39 -32 81 -32 128s11 89 32 128l-101 101l89 89l99 -99c41 27 89 40 143 40s102 -13 143 -40l99 99l88 -89l-100 -100c21 -41 32 -84 32 -129
c0 -47 -11 -89 -33 -128zM366 190c41 0 75 14 101 41c27 28 40 63 40 106s-13 78 -40 106c-26 28 -60 42 -101 42c-84 0 -142 -63 -142 -148s58 -147 142 -147z" />
    <glyph glyph-name="uni2109" unicode="&#x2109;" horiz-adv-x="1002" 
d="M39 561c0 90 72 159 162 159s162 -69 162 -159s-72 -158 -162 -158s-162 68 -162 158zM965 706v-127h-373v-195h332v-127h-332v-289h-141v738h514zM273 561c0 43 -29 76 -72 76s-71 -33 -71 -76s28 -76 71 -76s72 33 72 76z" />
    <glyph glyph-name="cid216" unicode="&#x2030;" horiz-adv-x="1385" 
d="M35 525c0 111 83 195 192 195s192 -84 192 -195c0 -109 -83 -194 -192 -194s-192 85 -192 194zM778 706l-495 -738h-113l495 738h113zM320 525c0 57 -38 100 -93 100s-92 -43 -92 -100s37 -99 92 -99s93 43 93 99zM529 149c0 111 83 195 192 195s192 -84 192 -195
c0 -110 -83 -195 -192 -195s-192 85 -192 195zM966 149c0 111 83 195 192 195s192 -84 192 -195c0 -110 -83 -195 -192 -195s-192 85 -192 195zM814 149c0 57 -38 100 -93 100s-92 -43 -92 -100s37 -99 92 -99s93 43 93 99zM1250 149c0 57 -37 100 -92 100s-93 -43 -93 -100
c0 -56 38 -99 93 -99s92 42 92 99z" />
    <glyph glyph-name="uni25C1" unicode="&#x25c1;" 
d="M804 749v-824l-761 412zM183 337l554 -300v600z" />
    <glyph glyph-name="uni25C0" unicode="&#x25c0;" 
d="M804 749v-824l-761 412z" />
    <glyph glyph-name="uni25B7" unicode="&#x25b7;" 
d="M856 337l-760 -412v824zM162 637v-600l554 300z" />
    <glyph glyph-name="uni25B6" unicode="&#x25b6;" 
d="M856 337l-760 -412v824z" />
    <glyph glyph-name="uni2664" unicode="&#x2664;" 
d="M357 101c-29 -37 -77 -64 -126 -64c-98 0 -161 78 -161 168c0 85 38 177 114 275c77 99 165 189 266 272c101 -83 189 -173 265 -272c77 -98 115 -190 115 -275c0 -90 -64 -168 -161 -168c-49 0 -97 27 -126 64c5 -57 39 -113 82 -145v-63h-350v63c43 32 77 88 82 145z
M485 133c0 25 11 37 34 37c16 0 32 -9 55 -28c36 -25 58 -39 91 -39c61 0 95 45 95 106c3 136 -168 338 -310 454c-142 -116 -313 -318 -310 -454c0 -61 34 -106 95 -106c33 0 55 14 91 39c23 19 39 28 55 28c23 0 34 -12 34 -37c0 -35 -6 -70 -18 -104s-26 -58 -43 -71h192
c-17 13 -31 37 -43 71s-18 69 -18 104z" />
    <glyph glyph-name="spade" unicode="&#x2660;" 
d="M357 101c-29 -37 -77 -64 -126 -64c-98 0 -161 78 -161 168c0 85 38 177 114 275c77 99 165 189 266 272c101 -83 189 -173 265 -272c77 -98 115 -190 115 -275c0 -90 -64 -168 -161 -168c-49 0 -97 27 -126 64c5 -57 39 -113 82 -145v-63h-350v63c43 32 77 88 82 145z
" />
    <glyph glyph-name="uni2661" unicode="&#x2661;" 
d="M40 543c0 111 81 190 189 190c83 0 137 -29 190 -98l31 -40l31 40c53 69 107 98 190 98c108 0 189 -79 189 -190c0 -79 -35 -149 -100 -225l-310 -358l-310 358c-65 76 -100 146 -100 225zM797 542c0 79 -56 132 -132 132c-31 0 -59 -7 -82 -22c-23 -14 -50 -42 -82 -83
l-51 -65l-51 65c-32 41 -60 69 -83 83c-23 15 -50 22 -81 22c-76 0 -132 -53 -132 -132c0 -60 30 -125 89 -194l258 -298l258 298c59 69 89 134 89 194z" />
    <glyph glyph-name="heart" unicode="&#x2665;" 
d="M40 543c0 111 81 190 189 190c83 0 137 -29 190 -98l31 -40l31 40c53 69 107 98 190 98c108 0 189 -79 189 -190c0 -79 -35 -149 -100 -225l-310 -358l-310 358c-65 76 -100 146 -100 225z" />
    <glyph glyph-name="uni2667" unicode="&#x2667;" 
d="M357 101c-28 -36 -77 -68 -148 -68c-102 0 -183 72 -183 195c0 119 79 190 183 190c33 0 63 -6 90 -19c-39 43 -63 100 -63 155c0 124 81 191 214 191c132 0 213 -67 213 -191c0 -56 -23 -112 -63 -155c27 13 57 19 90 19c105 0 184 -71 184 -190
c0 -123 -82 -195 -184 -195c-71 0 -119 32 -147 68c5 -57 39 -113 82 -145v-63h-350v63c43 32 77 88 82 145zM484 133c0 25 12 37 35 37c17 0 33 -10 57 -29c16 -12 28 -20 36 -24c28 -15 43 -19 74 -19c77 0 118 49 118 133c0 72 -45 121 -118 121c-44 0 -84 -8 -119 -24
c-11 -5 -20 -7 -29 -7c-13 0 -24 5 -31 15c-4 6 -6 12 -6 19c0 13 7 28 20 43c51 57 72 100 72 160c0 73 -52 122 -143 122s-144 -49 -144 -122c0 -60 21 -103 72 -160c14 -15 21 -29 21 -42c0 -8 -2 -15 -7 -20c-7 -10 -17 -15 -30 -15c-9 0 -18 2 -29 7
c-37 16 -76 24 -119 24c-73 0 -118 -49 -118 -121c0 -84 41 -133 118 -133c31 0 46 4 74 19c8 4 20 12 36 24c24 19 40 29 57 29c23 0 34 -12 34 -37c0 -35 -6 -70 -18 -104s-26 -58 -43 -71h192c-17 13 -32 37 -44 70c-12 34 -18 69 -18 105z" />
    <glyph glyph-name="club" unicode="&#x2663;" 
d="M357 101c-28 -36 -77 -68 -148 -68c-102 0 -183 72 -183 195c0 119 79 190 183 190c33 0 63 -6 90 -19c-39 43 -63 100 -63 155c0 124 81 191 214 191c132 0 213 -67 213 -191c0 -56 -23 -112 -63 -155c27 13 57 19 90 19c105 0 184 -71 184 -190
c0 -123 -82 -195 -184 -195c-71 0 -119 32 -147 68c5 -57 39 -113 82 -145v-63h-350v63c43 32 77 88 82 145z" />
    <glyph glyph-name="uni2299" unicode="&#x2299;" 
d="M64 337c-4 206 178 390 386 386c208 4 390 -180 386 -386c4 -206 -178 -392 -386 -387c-208 -5 -390 181 -386 387zM766 337c3 170 -145 324 -316 320c-172 4 -320 -150 -317 -320c-3 -171 145 -325 317 -321c171 -4 319 150 316 321zM247 337c0 110 92 202 203 202
s202 -92 202 -202c0 -111 -91 -203 -202 -203s-203 92 -203 203z" />
    <glyph glyph-name="uni2299" unicode="&#x25c9;" 
d="M64 337c-4 206 178 390 386 386c208 4 390 -180 386 -386c4 -206 -178 -392 -386 -387c-208 -5 -390 181 -386 387zM766 337c3 170 -145 324 -316 320c-172 4 -320 -150 -317 -320c-3 -171 145 -325 317 -321c171 -4 319 150 316 321zM247 337c0 110 92 202 203 202
s202 -92 202 -202c0 -111 -91 -203 -202 -203s-203 92 -203 203z" />
    <glyph glyph-name="uni25C8" unicode="&#x25c8;" 
d="M450 785l448 -448l-448 -448l-448 448zM450 691l-357 -354l357 -355l356 355zM450 553l216 -216l-216 -216l-216 216z" />
    <glyph glyph-name="uni25A3" unicode="&#x25a3;" 
d="M816 702v-731h-732v731h732zM748 636h-596v-599h596v599zM638 525v-376h-376v376h376z" />
    <glyph glyph-name="uni25D0" unicode="&#x25d0;" 
d="M64 337c-4 206 178 390 386 386c208 4 390 -180 386 -386c4 -206 -178 -392 -386 -387c-208 -5 -390 181 -386 387zM766 337c3 170 -145 324 -316 320v-641c171 -4 319 150 316 321z" />
    <glyph glyph-name="uni25D1" unicode="&#x25d1;" 
d="M64 337c-4 206 178 390 386 386c208 4 390 -180 386 -386c4 -206 -178 -392 -386 -387c-208 -5 -390 181 -386 387zM133 337c-3 -171 145 -325 317 -321v641c-172 4 -320 -150 -317 -320z" />
    <glyph glyph-name="shade" unicode="&#x2592;" 
d="M816 702v-731h-732v731h732zM783 670h-666v-666h666v666zM149 616c0 13 11 25 26 25c13 0 23 -12 23 -25c0 -15 -10 -25 -23 -25c-15 0 -26 10 -26 25zM240 616c0 13 13 25 26 25s25 -12 25 -25s-12 -25 -25 -25c-15 0 -26 12 -26 25zM333 616c0 13 11 25 24 25
c15 0 26 -12 26 -25c0 -15 -11 -25 -26 -25c-13 0 -24 12 -24 25zM425 616c0 13 12 25 25 25s24 -12 24 -25c0 -15 -11 -25 -24 -25s-25 12 -25 25zM517 616c0 13 12 25 25 25s26 -12 26 -25s-11 -25 -26 -25c-13 0 -25 12 -25 25zM610 616c0 13 11 25 24 25s25 -12 25 -25
s-10 -25 -25 -25c-13 0 -24 12 -24 25zM701 616c0 13 12 25 25 25s25 -12 25 -25s-10 -25 -25 -25c-13 0 -25 12 -25 25zM149 523c0 15 11 26 26 26c13 0 23 -11 23 -26c0 -13 -10 -23 -23 -23c-15 0 -26 10 -26 23zM240 523c0 15 11 26 26 26c13 0 25 -11 25 -26
c0 -13 -12 -23 -25 -23c-15 0 -26 10 -26 23zM333 523c0 15 11 26 24 26c15 0 26 -11 26 -26c0 -13 -11 -23 -26 -23c-13 0 -24 10 -24 23zM425 523c0 15 12 26 25 26s24 -11 24 -26c0 -13 -11 -23 -24 -23s-25 10 -25 23zM517 523c0 15 10 26 25 26s26 -11 26 -26
c0 -13 -11 -23 -26 -23s-25 10 -25 23zM610 523c0 15 11 26 24 26c15 0 25 -11 25 -26c0 -13 -10 -23 -25 -23c-13 0 -24 10 -24 23zM701 523c0 15 10 26 25 26s25 -11 25 -26c0 -13 -10 -23 -25 -23s-25 10 -25 23zM149 432c0 13 11 25 26 25c13 0 23 -12 23 -25
c0 -15 -10 -26 -23 -26c-15 0 -26 11 -26 26zM240 432c0 13 13 25 26 25s25 -12 25 -25s-12 -26 -25 -26s-26 13 -26 26zM333 432c0 13 11 25 24 25c15 0 26 -12 26 -25c0 -15 -11 -26 -26 -26c-13 0 -24 11 -24 26zM425 432c0 13 12 25 25 25s24 -12 24 -25
c0 -15 -11 -26 -24 -26s-25 13 -25 26zM517 432c0 13 12 25 25 25s26 -12 26 -25s-11 -26 -26 -26c-13 0 -25 11 -25 26zM610 432c0 13 11 25 24 25s25 -12 25 -25c0 -15 -12 -26 -25 -26s-24 11 -24 26zM701 432c0 13 12 25 25 25s25 -12 25 -25c0 -15 -12 -26 -25 -26
s-25 11 -25 26zM149 339c0 15 11 25 26 25c13 0 23 -10 23 -25c0 -13 -10 -24 -23 -24c-15 0 -26 11 -26 24zM240 339c0 13 11 25 26 25c13 0 25 -12 25 -25s-12 -24 -25 -24c-15 0 -26 11 -26 24zM333 339c0 13 11 25 24 25c15 0 26 -10 26 -25c0 -13 -11 -24 -26 -24
c-13 0 -24 11 -24 24zM425 339c0 13 12 25 25 25s24 -10 24 -25c0 -13 -11 -24 -24 -24s-25 11 -25 24zM517 339c0 15 12 25 25 25c15 0 26 -12 26 -25s-11 -24 -26 -24c-13 0 -25 11 -25 24zM610 339c0 13 11 25 24 25c15 0 25 -10 25 -25c0 -13 -12 -24 -25 -24
s-24 11 -24 24zM701 339c0 15 12 25 25 25c15 0 25 -10 25 -25c0 -13 -12 -24 -25 -24s-25 11 -25 24zM149 247c0 15 11 25 26 25c13 0 23 -10 23 -25s-10 -26 -23 -26c-15 0 -26 11 -26 26zM240 247c0 13 11 25 26 25c13 0 25 -12 25 -25s-12 -26 -25 -26s-26 13 -26 26z
M333 247c0 13 11 25 24 25c15 0 26 -10 26 -25s-11 -26 -26 -26c-13 0 -24 11 -24 26zM425 247c0 13 12 25 25 25s24 -10 24 -25s-11 -26 -24 -26s-25 13 -25 26zM517 247c0 15 12 25 25 25c15 0 26 -12 26 -25s-11 -26 -26 -26c-13 0 -25 11 -25 26zM610 247
c0 13 11 25 24 25c15 0 25 -10 25 -25s-12 -26 -25 -26s-24 11 -24 26zM701 247c0 15 12 25 25 25c15 0 25 -10 25 -25s-12 -26 -25 -26s-25 11 -25 26zM149 155c0 13 11 24 26 24c13 0 23 -11 23 -24c0 -15 -10 -25 -23 -25c-15 0 -26 10 -26 25zM240 155c0 13 11 24 26 24
c13 0 25 -11 25 -24c0 -15 -12 -25 -25 -25c-15 0 -26 10 -26 25zM333 155c0 13 11 24 24 24c15 0 26 -11 26 -24c0 -15 -11 -25 -26 -25c-13 0 -24 10 -24 25zM425 155c0 13 12 24 25 24s24 -11 24 -24c0 -15 -9 -25 -24 -25c-13 0 -25 10 -25 25zM517 155
c0 13 12 24 25 24c15 0 26 -11 26 -24c0 -15 -11 -25 -26 -25s-25 10 -25 25zM610 155c0 13 11 24 24 24s25 -11 25 -24c0 -15 -10 -25 -25 -25c-13 0 -24 10 -24 25zM701 155c0 13 12 24 25 24s25 -11 25 -24c0 -15 -10 -25 -25 -25s-25 10 -25 25zM149 63
c0 13 11 24 26 24c13 0 23 -11 23 -24c0 -15 -10 -26 -23 -26c-15 0 -26 11 -26 26zM240 63c0 13 11 24 26 24c13 0 25 -11 25 -24s-12 -26 -25 -26s-26 13 -26 26zM333 63c0 13 11 24 24 24c15 0 26 -11 26 -24c0 -15 -11 -26 -26 -26c-13 0 -24 11 -24 26zM425 63
c0 13 12 24 25 24c15 0 24 -9 24 -24s-11 -26 -24 -26s-25 13 -25 26zM517 63c0 13 10 24 25 24s26 -11 26 -24s-11 -26 -26 -26c-13 0 -25 11 -25 26zM610 63c0 13 11 24 24 24c15 0 25 -11 25 -24c0 -15 -12 -26 -25 -26s-24 11 -24 26zM701 63c0 13 10 24 25 24
s25 -11 25 -24c0 -15 -12 -26 -25 -26s-25 11 -25 26z" />
    <glyph glyph-name="uni25A4" unicode="&#x25a4;" 
d="M816 702v-731h-732v731h732zM783 670h-666v-67h666v67zM783 571h-666v-71h666v71zM783 468h-666v-65h666v65zM783 372h-666v-70h666v70zM783 270h-666v-70h666v70zM783 168h-666v-67h666v67zM783 70h-666v-66h666v66z" />
    <glyph glyph-name="uni25A5" unicode="&#x25a5;" 
d="M816 702v-731h-732v731h732zM183 670h-66v-666h66v666zM287 670h-72v-666h72v666zM383 670h-65v-666h65v666zM484 670h-70v-666h70v666zM586 670h-70v-666h70v666zM685 670h-67v-666h67v666zM783 670h-67v-666h67v666z" />
    <glyph glyph-name="uni25A8" unicode="&#x25a8;" 
d="M816 702v-731h-732v731h732zM643 670l-526 -527v-116l641 643h-115zM117 670v-152l152 152h-152zM316 670l-199 -199v-117l316 316h-117zM480 670l-363 -363v-116l479 479h-116zM783 531v116l-643 -643h116zM783 368v116l-480 -480h116zM783 204v117l-317 -317h116z
M783 157l-153 -153h153v153z" />
    <glyph glyph-name="uni25A7" unicode="&#x25a7;" 
d="M816 702v-731h-732v731h732zM256 670h-115l642 -643v116zM419 670h-116l480 -479v116zM583 670h-117l317 -316v117zM631 670l152 -152v152h-152zM117 647v-116l526 -527h116zM117 484v-116l363 -364h116zM117 321v-117l200 -200h116zM117 157v-153h153z" />
    <glyph glyph-name="uni25A6" unicode="&#x25a6;" 
d="M816 702v-731h-732v731h732zM186 670h-69v-70h69v70zM286 670h-70v-70h70v70zM385 670h-70v-70h70v70zM484 670h-70v-70h70v70zM583 670h-69v-70h69v70zM683 670h-70v-70h70v70zM783 670h-70v-70h70v70zM186 570h-69v-69h69v69zM286 570h-70v-69h70v69zM385 570h-70v-69
h70v69zM484 570h-70v-69h70v69zM583 570h-69v-69h69v69zM683 570h-70v-69h70v69zM783 570h-70v-69h70v69zM186 471h-69v-70h69v70zM286 471h-70v-70h70v70zM385 471h-70v-70h70v70zM484 471h-70v-70h70v70zM583 471h-69v-70h69v70zM683 471h-70v-70h70v70zM783 471h-70v-70
h70v70zM186 372h-69v-70h69v70zM286 372h-70v-70h70v70zM385 372h-70v-70h70v70zM484 372h-70v-70h70v70zM583 372h-69v-70h69v70zM683 372h-70v-70h70v70zM783 372h-70v-70h70v70zM186 272h-69v-70h69v70zM286 272h-70v-70h70v70zM385 272h-70v-70h70v70zM484 272h-70v-70
h70v70zM583 272h-69v-70h69v70zM683 272h-70v-70h70v70zM783 272h-70v-70h70v70zM186 173h-69v-70h69v70zM286 173h-70v-70h70v70zM385 173h-70v-70h70v70zM484 173h-70v-70h70v70zM583 173h-69v-70h69v70zM683 173h-70v-70h70v70zM783 173h-70v-70h70v70zM186 74h-69v-70
h69v70zM286 74h-70v-70h70v70zM385 74h-70v-70h70v70zM484 74h-70v-70h70v70zM583 74h-69v-70h69v70zM683 74h-70v-70h70v70zM783 74h-70v-70h70v70z" />
    <glyph glyph-name="uni25A9" unicode="&#x25a9;" 
d="M816 702v-731h-732v731h732zM141 670l57 -57l58 57h-115zM303 670l58 -58l58 58h-116zM466 670l59 -59l59 59h-118zM631 670l62 -63l64 63h-126zM717 583l66 -65v131zM117 647v-116l58 58zM279 647l-57 -58l58 -58l58 57zM443 646l-58 -58l58 -58l59 58zM607 646l-59 -58
l64 -64l58 59zM198 565l-58 -58l58 -58l58 58zM360 565l-57 -58l59 -59l57 58zM524 564l-58 -58l64 -63l58 59zM694 561l-60 -59l66 -66l59 59zM117 484v-116l58 58zM280 484l-58 -58l58 -58l58 58zM443 483l-57 -58l63 -63l57 58zM612 478l-58 -58l65 -66l58 59zM724 412
l59 -59v118zM198 402l-58 -58l58 -58l58 58zM361 402l-58 -58l64 -63l57 57zM529 396l-57 -58l65 -65l59 57zM700 388l-58 -58l59 -58l58 58zM117 321v-116l58 57zM280 321l-58 -59l63 -62l58 58zM449 316l-58 -59l65 -65l59 57zM619 307l-57 -57l58 -59l58 58zM725 249
l58 -58v116zM198 239l-58 -58l63 -63l58 58zM367 234l-59 -58l66 -67l59 58zM538 225l-58 -58l58 -58l58 58zM701 225l-58 -58l58 -58l58 58zM117 157v-126l63 63zM285 152l-58 -58l67 -67l57 59zM457 143l-58 -58l58 -58l58 58zM620 143l-58 -58l58 -58l58 58zM725 85
l58 -58v116zM203 71l-66 -67h133zM375 62l-59 -58h117zM538 62l-58 -58h116zM701 62l-58 -58h116z" />
    <glyph glyph-name="uni2668" unicode="&#x2668;" 
d="M441 272c0 45 -9 92 -28 141c-16 44 -24 87 -24 128c0 36 8 72 23 108c16 37 34 65 54 86l30 -18c-25 -36 -38 -90 -38 -162c0 -45 9 -92 28 -142c17 -43 25 -86 25 -128c0 -35 -8 -71 -24 -107c-15 -36 -33 -65 -54 -86l-30 18c25 35 38 89 38 162zM291 282
c0 39 -7 76 -28 131c-16 44 -24 83 -24 118c0 67 36 141 77 184l30 -18c-25 -36 -38 -87 -38 -152c0 -39 7 -76 28 -132c17 -43 25 -83 25 -118c0 -67 -37 -140 -78 -183l-30 18c25 35 38 85 38 152zM591 282c0 39 -7 76 -28 131c-16 44 -24 83 -24 118c0 67 36 141 77 184
l30 -18c-25 -36 -38 -87 -38 -152c0 -39 7 -76 28 -132c17 -43 25 -83 25 -118c0 -67 -37 -140 -78 -183l-30 18c25 35 38 85 38 152zM45 128c0 41 20 76 59 104c39 29 82 50 128 64l17 -35c-35 -10 -66 -26 -92 -47s-39 -44 -39 -69c0 -65 135 -117 332 -117
s332 52 332 117c0 39 -36 76 -88 99l17 36c39 -16 73 -37 101 -63c29 -26 43 -56 43 -89c0 -102 -166 -184 -405 -184s-405 82 -405 184z" />
    <glyph glyph-name="uni260F" unicode="&#x260f;" 
d="M83 400c-39 0 -54 14 -54 47c0 80 40 138 121 173s181 53 300 53s219 -18 300 -53s121 -93 121 -173c0 -33 -15 -47 -54 -47c-18 0 -39 2 -62 7c-71 13 -104 32 -104 57c0 10 3 22 9 37c5 15 8 26 8 35c0 29 -34 42 -127 42h-182c-93 0 -127 -13 -127 -42
c0 -9 3 -20 8 -35c6 -15 9 -27 9 -37c0 -25 -33 -44 -104 -57c-23 -5 -44 -7 -62 -7zM222 466c0 7 -3 17 -8 32c-1 4 -9 22 -9 38c0 43 47 65 154 65h182c107 0 154 -22 154 -65c0 -16 -8 -34 -9 -38c-5 -15 -8 -25 -8 -32c0 -15 19 -25 78 -36c23 -5 41 -7 56 -7
c23 0 32 7 32 24c0 73 -37 125 -112 156c-74 31 -168 47 -282 47s-208 -16 -283 -47c-74 -31 -111 -83 -111 -156c0 -17 9 -24 32 -24c15 0 33 2 56 7c59 11 78 21 78 36zM159 272l133 158v91h115v-91h86v91h115v-91l133 -158c32 -37 43 -68 43 -119v-123h-668v123
c0 51 11 82 43 119zM710 269l-129 154v75h-61v-91h-140v91h-61v-75l-129 -154c-35 -40 -47 -69 -47 -116v-100h614v100c0 47 -12 76 -47 116zM313 230c0 72 62 133 137 133s137 -61 137 -133s-62 -133 -137 -133s-137 61 -137 133zM560 230c0 30 -11 56 -32 77
c-21 22 -47 33 -78 33s-57 -11 -78 -33c-21 -21 -32 -47 -32 -77c0 -61 49 -110 110 -110s110 49 110 110z" />
    <glyph glyph-name="uni260E" unicode="&#x260e;" 
d="M83 400c-39 0 -54 14 -54 47c0 80 40 138 121 173s181 53 300 53s219 -18 300 -53s121 -93 121 -173c0 -33 -15 -47 -54 -47c-18 0 -39 2 -62 7c-71 13 -104 32 -104 57c0 10 3 22 9 37c5 15 8 26 8 35c0 29 -34 42 -127 42h-182c-93 0 -127 -13 -127 -42
c0 -9 3 -20 8 -35c6 -15 9 -27 9 -37c0 -25 -33 -44 -104 -57c-23 -5 -44 -7 -62 -7zM159 272l133 158v91h115v-91h86v91h115v-91l133 -158c32 -37 43 -68 43 -119v-123h-668v123c0 51 11 82 43 119zM560 230c0 30 -11 56 -32 77c-21 22 -47 33 -78 33s-57 -11 -78 -33
c-21 -21 -32 -47 -32 -77c0 -61 49 -110 110 -110s110 49 110 110z" />
    <glyph glyph-name="uni261C" unicode="&#x261c;" 
d="M337 124c0 21 8 44 25 71c-9 8 -24 20 -45 35c-45 32 -76 57 -76 78c0 14 13 33 39 58h-19c-69 0 -134 17 -178 40c-39 19 -70 46 -70 74c0 27 20 40 60 40c19 0 45 -2 78 -7c8 -1 59 -9 103 -9c53 0 98 11 179 32c68 17 95 24 126 24c37 0 78 -9 123 -28l111 -49l85 3
v-32l-93 -6l-118 51c-39 18 -76 27 -111 27c-23 0 -64 -10 -105 -21c-80 -23 -136 -35 -197 -35c-27 0 -63 3 -107 10c-36 5 -61 8 -75 8s-22 -2 -25 -7c-4 -11 23 -33 52 -46c49 -23 103 -35 162 -35c40 0 91 3 110 3c32 2 64 3 97 3c69 0 102 -30 102 -95
c-8 -5 -25 -14 -51 -27c-23 -11 -41 -20 -52 -27c-19 -12 -41 -34 -67 -65c-19 -24 -32 -49 -32 -62c0 -5 3 -8 8 -8c13 0 41 16 70 40c24 21 48 36 72 43c47 15 97 23 148 23c25 0 42 9 75 26c36 19 53 27 80 27c21 0 40 -2 57 -7v-34c-25 5 -43 7 -56 7
c-21 0 -40 -9 -71 -25c-29 -17 -50 -27 -74 -28c-12 -36 -40 -78 -61 -78c-14 0 -29 6 -46 19c-13 -22 -27 -33 -43 -33c-18 0 -40 10 -66 31c-38 -29 -68 -43 -91 -43c-9 0 -17 2 -22 7c-7 5 -11 14 -11 27zM466 373c-20 0 -35 0 -44 -1c29 -21 58 -41 87 -58l27 15
c0 28 -25 44 -70 44zM421 262c-5 7 -12 14 -21 20l-48 4l4 30l43 -5c5 4 13 12 24 23l-27 22l11 15c-33 -1 -58 -3 -75 -4c-31 -23 -56 -52 -56 -59s20 -25 61 -53c15 -11 29 -22 44 -35c18 21 31 35 40 42zM478 298l-33 20c-7 -10 -14 -17 -19 -21c7 -5 13 -10 18 -17
c11 7 23 13 34 18zM642 193c-21 -1 -38 -3 -49 -4l-9 -25c13 -9 24 -14 31 -14c5 0 19 22 27 43zM555 181c-12 -3 -19 -6 -26 -7c-11 -3 -25 -10 -41 -20c16 -12 29 -18 39 -18c7 0 19 20 28 45z" />
    <glyph glyph-name="uni261E" unicode="&#x261e;" 
d="M530 90c-23 0 -53 14 -91 43c-26 -21 -48 -31 -66 -31c-16 0 -30 11 -43 33c-17 -13 -32 -19 -46 -19c-21 0 -49 42 -61 78c-24 1 -45 11 -74 28c-31 16 -50 25 -71 25c-13 0 -31 -2 -56 -7v34c17 5 36 7 57 7c27 0 44 -8 80 -27c33 -17 50 -26 75 -26
c51 0 101 -8 148 -23c24 -7 48 -22 72 -43c29 -23 58 -40 70 -40c5 0 7 3 7 8c0 13 -12 39 -31 62c-26 31 -48 53 -67 65c-11 7 -29 16 -52 27c-26 13 -43 22 -51 27c0 65 33 95 102 95c33 0 65 -1 97 -3c19 0 70 -3 110 -3c59 0 113 12 162 35c29 13 56 35 52 46
c-3 5 -11 7 -25 7s-39 -3 -75 -8c-44 -7 -80 -10 -107 -10c-61 0 -117 12 -197 35c-41 11 -82 21 -105 21c-35 0 -72 -9 -111 -27l-118 -51l-93 6v32l85 -3l111 49c45 19 86 28 123 28c31 0 58 -7 126 -24c81 -21 126 -32 179 -32c44 0 95 8 103 9c33 5 59 7 78 7
c40 0 60 -13 60 -40c0 -28 -31 -55 -70 -74c-44 -23 -109 -40 -178 -40h-19c26 -25 39 -44 39 -58c0 -21 -31 -46 -76 -78c-21 -15 -36 -27 -45 -35c17 -27 25 -50 25 -71c0 -13 -4 -22 -11 -27c-5 -5 -13 -7 -22 -7zM478 372c-9 1 -24 1 -44 1c-45 0 -70 -16 -70 -44
l27 -15c29 17 58 37 87 58zM563 255c41 28 61 46 61 53s-25 36 -56 59c-17 1 -42 3 -75 4l11 -15l-27 -22c11 -11 19 -19 24 -23l43 5l4 -30l-48 -4c-9 -6 -16 -13 -21 -20c9 -7 22 -21 40 -42c15 13 29 24 44 35zM474 297c-5 4 -12 11 -19 21l-33 -20c11 -5 23 -11 34 -18
c5 7 11 12 18 17zM316 164l-9 25c-11 1 -28 3 -49 4c8 -21 22 -43 27 -43c7 0 18 5 31 14zM412 154c-16 10 -30 17 -41 20c-7 1 -14 4 -26 7c9 -25 21 -45 28 -45c10 0 23 6 39 18z" />
    <glyph glyph-name="cid244" unicode="&#xb6;" horiz-adv-x="696" 
d="M38 477c0 135 101 229 278 229h308v-827h-109v723h-90v-723h-109v368c-177 0 -278 94 -278 230z" />
    <glyph glyph-name="cid245" unicode="&#x2020;" horiz-adv-x="528" 
d="M500 538v-107h-179v-552h-115v552h-178v107h178v217h115v-217h179z" />
    <glyph glyph-name="cid246" unicode="&#x2021;" horiz-adv-x="528" 
d="M500 431h-179v-228h179v-106h-179v-218h-115v218h-178v106h178v228h-178v107h178v217h115v-217h179v-107z" />
    <glyph glyph-name="arrowupdn" unicode="&#x2195;" horiz-adv-x="850" 
d="M130 238l176 -151c21 -18 38 -34 51 -49c-1 28 -2 63 -2 105v334c0 42 1 77 2 105c-9 -9 -26 -26 -51 -49l-176 -151l-83 101l378 312l378 -312l-82 -101l-176 151c-25 23 -42 39 -51 49c1 -14 1 -49 1 -105v-334c0 -56 0 -91 -1 -105c11 14 28 30 51 49l176 151l82 -101
l-378 -312l-378 312z" />
    <glyph glyph-name="uni2197" unicode="&#x2197;" horiz-adv-x="850" 
d="M474 515l24 23c-18 -2 -44 -3 -77 -3h-256v127h559v-546h-137v255c0 33 1 59 3 77c-15 -19 -41 -46 -77 -82l-344 -343l-95 95l343 342c23 23 42 40 57 55z" />
    <glyph glyph-name="uni2199" unicode="&#x2199;" horiz-adv-x="850" 
d="M263 558v-254c0 -39 -1 -65 -2 -77c15 19 41 46 77 82l343 343l95 -95l-342 -342c-33 -33 -61 -59 -82 -78c19 2 45 3 77 3h257v-127h-560v545h137z" />
    <glyph glyph-name="uni2196" unicode="&#x2196;" horiz-adv-x="850" 
d="M261 448c1 -12 2 -38 2 -77v-255h-137v546h560v-127h-257c-32 0 -58 1 -77 3c43 -40 70 -66 82 -78l342 -342l-95 -95l-343 343c-36 36 -62 63 -77 82z" />
    <glyph glyph-name="uni2198" unicode="&#x2198;" horiz-adv-x="850" 
d="M498 137c-30 28 -57 54 -81 78l-343 342l95 95l344 -343c36 -36 62 -63 77 -82c-2 18 -3 44 -3 77v254h137v-545h-559v127h256c33 0 59 -1 77 -3z" />
    <glyph glyph-name="uni266D" unicode="&#x266d;" horiz-adv-x="504" 
d="M161 703v-376c21 57 67 99 135 99c92 0 158 -64 158 -169c0 -164 -123 -260 -354 -285v731h61zM343 249c0 77 -30 121 -74 121c-57 0 -108 -82 -108 -158v-174c111 20 182 83 182 211z" />
    <glyph glyph-name="uni2669" unicode="&#x2669;" horiz-adv-x="419" 
d="M50 45c0 87 101 163 208 169v489h61v-532c0 -117 -87 -211 -183 -211c-51 0 -86 33 -86 85z" />
    <glyph glyph-name="musicalnote" unicode="&#x266a;" horiz-adv-x="578" 
d="M50 45c0 87 101 163 208 169v489h45c17 -25 43 -47 91 -84c29 -23 53 -43 71 -60c37 -33 67 -77 67 -125c0 -96 -60 -170 -137 -222l-12 13c55 51 82 112 82 182c0 55 -49 97 -146 126v-362c0 -117 -87 -211 -183 -211c-51 0 -86 33 -86 85z" />
    <glyph glyph-name="uni266C" unicode="&#x266c;" horiz-adv-x="877" 
d="M58 25c0 87 101 163 208 169v469l511 53v-545c0 -117 -87 -211 -183 -211c-51 0 -86 33 -86 85c0 87 101 163 208 169v173l-389 -40v-196c0 -117 -87 -211 -183 -211c-51 0 -86 33 -86 85zM716 579l-389 -41v-61l389 40v62z" />
    <glyph glyph-name="uni327F" unicode="&#x327f;" 
d="M31 337c-4 239 191 418 419 415c191 2 360 -123 405 -303h-101c-21 63 -60 115 -115 154c-55 40 -118 60 -189 60c-157 2 -299 -121 -320 -274h109v-98h-206c-1 10 -2 25 -2 46zM401 513v-126l109 126h127l-145 -157l145 -189h-122l-89 117l-25 -29v-88h-96v346h96z
M44 231h100c42 -127 162 -220 306 -220c159 -3 302 125 321 280h-109v98h205c1 -11 2 -29 2 -52c4 -239 -191 -420 -419 -416c-193 -2 -363 126 -406 310z" />
    <glyph glyph-name="uni321C" unicode="&#x321c;" 
d="M241 -15l-37 -33c-104 95 -169 233 -169 385s65 290 169 385l37 -33c-99 -88 -155 -213 -155 -352c0 -137 56 -263 155 -352zM865 337c0 -152 -65 -290 -169 -385l-37 33c99 89 155 215 155 352c0 139 -56 264 -155 352l37 33c104 -95 169 -233 169 -385zM665 571v-83
h-162c23 -57 100 -92 185 -96l-18 -80c-46 1 -90 11 -133 30s-71 43 -86 72c-15 -29 -44 -54 -87 -73s-87 -29 -133 -30l-18 81c85 4 161 39 185 96h-163v83h430zM703 195h-206v-129h-93v129h-207v84h506v-84z" />
    <glyph glyph-name="uni2116" unicode="&#x2116;" horiz-adv-x="1235" 
d="M786 521c0 111 88 199 203 199s203 -88 203 -199s-88 -199 -203 -199s-203 88 -203 199zM207 706l358 -505v505h139v-738h-135l-358 505v-505h-139v738h135zM1084 521c0 56 -39 98 -95 98s-95 -42 -95 -98s39 -98 95 -98s95 42 95 98zM1186 270v-107h-394v107h394z" />
    <glyph glyph-name="uni33C7" unicode="&#x33c7;" horiz-adv-x="1245" 
d="M45 337c-3 217 162 387 375 383c137 0 252 -67 316 -168l-121 -69c-41 67 -111 105 -195 105c-138 0 -234 -109 -234 -251s96 -251 234 -251c84 0 152 40 195 105l121 -68c-64 -103 -177 -169 -316 -169c-213 -4 -378 168 -375 383zM796 521c0 111 88 199 203 199
s203 -88 203 -199s-88 -199 -203 -199s-203 88 -203 199zM1094 521c0 56 -39 98 -95 98s-95 -42 -95 -98s39 -98 95 -98s95 42 95 98zM1196 270v-107h-394v107h394z" />
    <glyph glyph-name="cid260" unicode="&#x2122;" horiz-adv-x="716" 
d="M27 624v82h259v-82h-85v-228h-88v228h-86zM404 706l88 -157l88 157h78v-310h-79v168l-62 -112h-50l-64 114v-170h-78v310h79z" />
    <glyph glyph-name="uni33C2" unicode="&#x33c2;" horiz-adv-x="950" 
d="M256 441v65h98v-538h-98v66c-20 -53 -52 -80 -96 -80c-81 0 -141 124 -141 283c0 160 60 283 141 283c44 0 76 -26 96 -79zM918 273v-305h-98v295c0 92 -15 139 -48 139c-32 0 -58 -65 -58 -153v-281h-98v295c0 92 -15 139 -48 139s-58 -65 -58 -153v-281h-98v538h98v-66
c15 48 47 80 87 80c45 0 77 -32 98 -97c16 61 54 97 106 97c73 0 117 -92 117 -247zM254 237c0 95 -28 165 -69 165c-43 0 -70 -70 -70 -165s27 -164 70 -164c41 0 69 71 69 164z" />
    <glyph glyph-name="uni33D8" unicode="&#x33d8;" horiz-adv-x="950" 
d="M373 237c0 -159 -60 -283 -141 -283c-45 0 -77 27 -97 82v-281h-98v751h98v-68c20 55 52 82 97 82c81 0 141 -123 141 -283zM918 273v-305h-98v295c0 92 -15 139 -48 139c-32 0 -58 -65 -58 -153v-281h-98v295c0 92 -15 139 -48 139s-58 -65 -58 -153v-281h-98v538h98
v-66c15 48 47 80 87 80c45 0 77 -32 98 -97c16 61 54 97 106 97c73 0 117 -92 117 -247zM276 237c0 95 -28 165 -69 165c-43 0 -70 -70 -70 -165s27 -164 70 -164c41 0 69 71 69 164z" />
    <glyph glyph-name="uni2121" unicode="&#x2121;" 
d="M38 583v123h364v-123h-125v-615h-114v615h-125zM584 506v-116h-120v-95h102v-115h-102v-95h125v-117h-235v538h230zM747 506v-421h116v-117h-227v538h111z" />
    <glyph glyph-name="uniFF01" unicode="&#xff01;" 
d="M526 706l-13 -510h-126l-13 510h152zM361 41c0 49 38 87 89 87c52 0 90 -38 90 -87s-38 -87 -90 -87c-51 0 -89 38 -89 87z" />
    <glyph glyph-name="uniFF02" unicode="&#xff02;" 
d="M422 706l-18 -242h-102l-17 242h137zM615 706l-18 -242h-102l-17 242h137z" />
    <glyph glyph-name="uniFF03" unicode="&#xff03;" 
d="M136 147v102h109l34 177h-99v102h119l34 178h117l-34 -178h143l34 178h117l-34 -178h88v-102h-108l-34 -177h98v-102h-118l-35 -179h-117l35 179h-143l-35 -179h-117l35 179h-89zM540 426h-145l-34 -178h144z" />
    <glyph glyph-name="uniFF04" unicode="&#xff04;" 
d="M514 -23v-99h-115v99c-107 15 -190 71 -230 148l111 61c31 -55 94 -94 178 -94c80 0 139 35 139 86c0 48 -36 74 -127 98l-87 22c-123 32 -189 96 -189 192c0 108 80 190 205 207v99h115v-100c95 -15 171 -65 207 -137l-109 -60c-27 49 -89 83 -160 83
c-72 0 -125 -34 -125 -85c0 -45 36 -70 128 -94l87 -22c123 -32 189 -98 189 -197c0 -53 -20 -99 -59 -137s-92 -61 -158 -70z" />
    <glyph glyph-name="uniFF05" unicode="&#xff05;" 
d="M11 525c0 111 83 195 192 195s192 -84 192 -195c0 -109 -83 -194 -192 -194s-192 85 -192 194zM754 706l-495 -738h-113l495 738h113zM296 525c0 57 -38 100 -93 100s-92 -43 -92 -100s37 -99 92 -99s93 43 93 99zM505 150c0 109 83 194 192 194s192 -85 192 -194
c0 -111 -83 -195 -192 -195s-192 84 -192 195zM790 150c0 56 -38 99 -93 99s-92 -42 -92 -99s37 -100 92 -100s93 43 93 100z" />
    <glyph glyph-name="uniFF06" unicode="&#xff06;" 
d="M819 -31h-170l-73 70c-69 -57 -143 -85 -222 -85c-161 0 -273 90 -273 226c0 88 53 153 146 194c-52 56 -72 98 -72 151c0 113 93 195 234 195c139 0 233 -81 233 -189c0 -72 -47 -127 -103 -154l-80 81c32 16 54 43 54 75c0 44 -40 77 -104 77s-105 -33 -105 -84
c0 -19 8 -39 25 -62c17 -22 48 -55 94 -98l164 -157c28 36 61 85 98 148l110 -67c-41 -70 -80 -126 -116 -168zM488 123l-180 171c-63 -29 -96 -62 -96 -109c0 -67 59 -115 146 -115c45 0 86 16 130 53z" />
    <glyph glyph-name="uniFF07" unicode="&#xff07;" 
d="M520 706l-18 -242h-104l-17 242h139z" />
    <glyph glyph-name="uniFF08" unicode="&#xff08;" 
d="M300 317c0 93 18 181 55 263s87 151 150 208l95 -85c-105 -97 -169 -239 -169 -386s64 -289 169 -386l-95 -85c-63 57 -113 126 -150 208s-55 170 -55 263z" />
    <glyph glyph-name="uniFF09" unicode="&#xff09;" 
d="M469 317c0 147 -64 289 -169 386l95 85c63 -57 112 -126 149 -208s56 -170 56 -263s-19 -181 -56 -263s-86 -151 -149 -208l-95 85c105 97 169 239 169 386z" />
    <glyph glyph-name="uniFF0A" unicode="&#xff0a;" 
d="M388 525l-119 27l31 93l113 -49l-11 123h97l-11 -122l113 48l30 -93l-119 -27l81 -92l-79 -58l-64 106l-63 -106l-79 58z" />
    <glyph glyph-name="uniFF0B" unicode="&#xff0b;" 
d="M189 279v117h200v202h123v-202h199v-117h-199v-203h-123v203h-200z" />
    <glyph glyph-name="uniFF0C" unicode="&#xff0c;" 
d="M542 114l-72 -253h-112l38 253h146z" />
    <glyph glyph-name="uniFF0D" unicode="&#xff0d;" 
d="M636 399v-123h-372v123h372z" />
    <glyph glyph-name="uniFF0E" unicode="&#xff0e;" 
d="M361 41c0 49 38 87 89 87c52 0 90 -38 90 -87s-38 -87 -90 -87c-51 0 -89 38 -89 87z" />
    <glyph glyph-name="uniFF0F" unicode="&#xff0f;" 
d="M704 755l-388 -876h-120l388 876h120z" />
    <glyph glyph-name="uniFF10" unicode="&#xff10;" 
d="M164 337c0 233 109 383 286 383s286 -150 286 -383s-109 -383 -286 -383s-286 150 -286 383zM602 337c0 163 -56 255 -152 255s-151 -91 -151 -255s55 -255 151 -255s152 92 152 255z" />
    <glyph glyph-name="uniFF11" unicode="&#xff11;" 
d="M403 91v472l-189 -60l-39 117l252 86h112v-615h187v-123h-548v123h225z" />
    <glyph glyph-name="uniFF12" unicode="&#xff12;" 
d="M554 494c0 60 -47 100 -119 100c-63 0 -116 -38 -144 -91l-119 65c49 92 145 152 266 152c151 0 257 -91 257 -220c0 -41 -11 -78 -32 -113c-21 -34 -56 -75 -107 -124l-178 -172h350v-123h-532v112l256 253c39 38 65 68 80 91s22 46 22 70z" />
    <glyph glyph-name="uniFF13" unicode="&#xff13;" 
d="M167 107l116 63c29 -56 90 -92 169 -92c81 0 140 45 140 108c0 71 -54 107 -155 107h-59l-51 98l203 189h-326v126h500v-120l-215 -197h15c134 0 229 -86 229 -203c0 -134 -115 -232 -282 -232c-129 0 -236 58 -284 153z" />
    <glyph glyph-name="uniFF14" unicode="&#xff14;" 
d="M148 134v110l357 475h141v-467h106v-118h-106v-166h-132v166h-366zM514 544l-220 -292h220v292z" />
    <glyph glyph-name="uniFF15" unicode="&#xff15;" 
d="M167 107l117 63c29 -56 89 -91 168 -91c83 0 140 47 140 115c0 77 -56 114 -169 114h-203l21 398h465v-126h-340l-9 -156h96c177 0 280 -87 280 -230c0 -138 -115 -240 -282 -240c-129 0 -236 58 -284 153z" />
    <glyph glyph-name="uniFF16" unicode="&#xff16;" 
d="M167 216c0 64 21 120 74 195l210 295h157l-179 -250c13 6 29 9 47 9c139 0 257 -106 257 -249c0 -150 -120 -262 -283 -262s-283 112 -283 262zM602 216c0 83 -61 143 -152 143c-45 0 -81 -14 -110 -41c-28 -27 -42 -61 -42 -102s14 -76 42 -103c29 -27 65 -41 110 -41
c91 0 152 61 152 144z" />
    <glyph glyph-name="uniFF17" unicode="&#xff17;" 
d="M183 579v127h534v-121l-288 -617h-154l287 611h-379z" />
    <glyph glyph-name="uniFF18" unicode="&#xff18;" 
d="M165 172c0 83 55 153 131 180c-63 31 -105 87 -105 162c0 123 109 206 259 206c151 0 259 -83 259 -206c0 -76 -41 -131 -105 -162c76 -27 131 -97 131 -180c0 -129 -120 -218 -285 -218c-163 0 -285 90 -285 218zM581 503c0 63 -51 105 -131 105s-131 -42 -131 -105
s51 -105 131 -105s131 42 131 105zM604 181c0 68 -62 114 -154 114c-91 0 -154 -46 -154 -114s63 -114 154 -114c92 0 154 46 154 114z" />
    <glyph glyph-name="uniFF19" unicode="&#xff19;" 
d="M425 209c-139 -3 -261 107 -258 249c0 150 120 262 283 262s283 -112 283 -262c0 -64 -21 -118 -74 -194l-209 -296h-158l179 250c-12 -6 -27 -9 -46 -9zM602 458c0 83 -61 144 -152 144c-45 0 -81 -14 -110 -41c-28 -27 -42 -62 -42 -103s14 -76 42 -103
c29 -27 65 -40 110 -40c91 0 152 60 152 143z" />
    <glyph glyph-name="uniFF1A" unicode="&#xff1a;" 
d="M361 533c0 49 38 87 89 87c52 0 90 -38 90 -87s-38 -86 -90 -86c-51 0 -89 37 -89 86zM361 141c0 49 38 87 89 87c52 0 90 -38 90 -87s-38 -86 -90 -86c-51 0 -89 37 -89 86z" />
    <glyph glyph-name="uniFF1B" unicode="&#xff1b;" 
d="M360 533c0 49 38 87 90 87c51 0 89 -38 89 -87s-38 -86 -89 -86c-52 0 -90 37 -90 86zM542 214l-72 -253h-112l38 253h146z" />
    <glyph glyph-name="uniFF1C" unicode="&#xff1c;" 
d="M212 393l476 218v-133l-330 -141l330 -141v-132l-476 218v111z" />
    <glyph glyph-name="uniFF1D" unicode="&#xff1d;" 
d="M701 520v-118h-502v118h502zM701 273v-119h-502v119h502z" />
    <glyph glyph-name="uniFF1E" unicode="&#xff1e;" 
d="M543 337l-331 141v133l476 -218v-111l-476 -218v132z" />
    <glyph glyph-name="uniFF1F" unicode="&#xff1f;" 
d="M484 404c67 44 90 68 90 108c0 53 -48 89 -121 89c-63 0 -121 -38 -146 -94l-114 56c20 47 53 85 100 114s100 43 158 43c155 0 256 -84 256 -204c0 -39 -10 -71 -30 -98s-54 -55 -101 -86c-51 -32 -66 -61 -66 -113v-23h-137v23c0 91 19 125 111 185zM352 41
c0 49 38 87 89 87c52 0 90 -38 90 -87s-38 -87 -90 -87c-51 0 -89 38 -89 87z" />
    <glyph glyph-name="uniFF20" unicode="&#xff20;" 
d="M542 454h111v-334h14c77 0 110 62 110 186c0 185 -136 291 -322 291c-188 0 -329 -135 -329 -351s141 -351 329 -351c84 0 160 28 216 76l56 -81c-73 -57 -171 -89 -272 -89c-242 -3 -436 180 -432 445c-4 265 190 448 432 445c240 2 426 -151 423 -391
c0 -164 -77 -271 -210 -271h-50c-47 0 -75 22 -76 63c-27 -43 -72 -66 -124 -66c-107 0 -188 97 -188 220c0 121 81 220 188 220c52 0 97 -23 124 -67v55zM542 246c0 73 -42 123 -101 123c-61 0 -103 -52 -103 -123s42 -123 103 -123c59 0 101 50 101 123z" />
    <glyph glyph-name="uniFF21" unicode="&#xff21;" 
d="M666 -32l-60 157h-315l-60 -157h-146l293 738h144l293 -738h-149zM336 243h225l-113 296z" />
    <glyph glyph-name="uniFF22" unicode="&#xff22;" 
d="M723 508c0 -75 -47 -140 -112 -161c74 -14 144 -80 144 -170c0 -124 -98 -209 -273 -209h-338v738h313c175 0 266 -77 266 -198zM585 492c0 59 -42 92 -131 92h-170v-188h170c85 0 131 35 131 96zM614 189c0 57 -49 92 -132 92h-198v-190h195c91 0 135 38 135 98z" />
    <glyph glyph-name="uniFF23" unicode="&#xff23;" 
d="M105 337c-3 217 162 387 375 383c139 0 252 -67 315 -168l-121 -69c-41 67 -110 105 -194 105c-140 0 -234 -109 -234 -251s94 -251 234 -251c84 0 151 40 194 105l121 -68c-63 -103 -176 -169 -315 -169c-213 -4 -378 168 -375 383z" />
    <glyph glyph-name="uniFF24" unicode="&#xff24;" 
d="M779 337c2 -215 -151 -372 -389 -369h-269v738h269c238 3 391 -154 389 -369zM638 337c0 152 -89 242 -248 242h-128v-484h128c159 0 248 90 248 242z" />
    <glyph glyph-name="uniFF25" unicode="&#xff25;" 
d="M704 706v-126h-378v-180h337v-125h-337v-180h388v-127h-528v738h518z" />
    <glyph glyph-name="uniFF26" unicode="&#xff26;" 
d="M707 706v-127h-373v-195h332v-127h-332v-289h-141v738h514z" />
    <glyph glyph-name="uniFF27" unicode="&#xff27;" 
d="M92 337c-3 217 165 387 384 383c145 0 262 -67 325 -168l-120 -68c-43 65 -114 105 -205 105c-144 0 -243 -109 -243 -252s104 -253 252 -253c80 0 153 22 193 58v118h-204v118h334v-299c-30 -36 -75 -66 -135 -89c-59 -24 -122 -36 -188 -36c-223 -4 -396 168 -393 383z
" />
    <glyph glyph-name="uniFF28" unicode="&#xff28;" 
d="M271 706v-305h358v305h141v-738h-141v307h-358v-307h-141v738h141z" />
    <glyph glyph-name="uniFF29" unicode="&#xff29;" 
d="M521 706v-738h-141v738h141z" />
    <glyph glyph-name="uniFF2A" unicode="&#xff2a;" 
d="M189 102l123 64c23 -48 68 -81 127 -81c85 0 131 61 131 176v445h141v-445c0 -195 -98 -307 -269 -307c-59 0 -111 14 -156 43c-45 28 -77 63 -97 105z" />
    <glyph glyph-name="uniFF2B" unicode="&#xff2b;" 
d="M760 -32h-175l-304 341v-341h-141v738h141v-337l285 337h174l-314 -368z" />
    <glyph glyph-name="uniFF2C" unicode="&#xff2c;" 
d="M337 706v-611h367v-127h-508v738h141z" />
    <glyph glyph-name="uniFF2D" unicode="&#xff2d;" 
d="M196 706l255 -441l255 441h136v-738h-137v486l-197 -340h-115l-199 342v-488h-136v738h138z" />
    <glyph glyph-name="uniFF2E" unicode="&#xff2e;" 
d="M269 706l359 -505v505h138v-738h-134l-359 505v-505h-139v738h135z" />
    <glyph glyph-name="uniFF2F" unicode="&#xff2f;" 
d="M75 337c-3 217 162 387 375 383c213 4 378 -166 375 -383c3 -215 -162 -387 -375 -383c-213 -4 -378 168 -375 383zM684 337c0 142 -94 251 -234 251c-138 0 -234 -109 -234 -251s96 -251 234 -251c140 0 234 109 234 251z" />
    <glyph glyph-name="uniFF30" unicode="&#xff30;" 
d="M736 452c0 -149 -115 -254 -313 -254h-119v-230h-140v738h259c198 0 313 -105 313 -254zM597 452c0 84 -57 128 -173 128h-120v-257h120c116 0 173 45 173 129z" />
    <glyph glyph-name="uniFF31" unicode="&#xff31;" 
d="M813 -50l33 -115c-33 -19 -83 -30 -131 -30c-95 0 -169 44 -241 151c-20 -1 -35 -2 -45 -2c-213 -4 -378 168 -375 383c-3 217 162 387 375 383c213 4 378 -166 375 -383c0 -148 -73 -273 -190 -337c29 -49 63 -69 111 -69c35 0 64 6 88 19zM429 86
c138 0 234 109 234 251s-96 251 -234 251c-140 0 -234 -109 -234 -251s94 -251 234 -251z" />
    <glyph glyph-name="uniFF32" unicode="&#xff32;" 
d="M759 -32h-159l-159 247c-19 -1 -33 -2 -42 -2h-118v-245h-140v738h258c191 0 312 -98 312 -248c0 -96 -50 -171 -139 -211zM281 335h119c115 0 172 44 172 123s-57 122 -172 122h-119v-245z" />
    <glyph glyph-name="uniFF33" unicode="&#xff33;" 
d="M154 114l117 64c31 -57 98 -99 187 -99c84 0 147 36 147 91c0 51 -38 78 -135 102l-91 24c-133 35 -199 102 -199 203c0 128 110 221 274 221c127 0 234 -58 281 -150l-115 -62c-27 52 -93 87 -168 87c-76 0 -131 -37 -131 -90c0 -48 38 -74 134 -98l91 -24
c131 -33 200 -103 200 -207c0 -128 -119 -222 -290 -222c-140 0 -253 64 -302 160z" />
    <glyph glyph-name="uniFF34" unicode="&#xff34;" 
d="M142 579v127h616v-127h-237v-611h-141v611h-238z" />
    <glyph glyph-name="uniFF35" unicode="&#xff35;" 
d="M136 299v407h141v-407c0 -145 57 -213 173 -213s174 68 174 213v407h140v-407c0 -225 -115 -345 -314 -345s-314 120 -314 345z" />
    <glyph glyph-name="uniFF36" unicode="&#xff36;" 
d="M253 706l199 -555l199 555h151l-280 -738h-144l-280 738h155z" />
    <glyph glyph-name="uniFF37" unicode="&#xff37;" 
d="M151 706l122 -534l109 530h140l109 -530l122 534h143l-194 -738h-137l-115 507l-114 -507h-137l-194 738h146z" />
    <glyph glyph-name="uniFF38" unicode="&#xff38;" 
d="M114 706h169l169 -251l169 251h166l-254 -367l257 -371h-169l-173 257l-171 -257h-166l256 372z" />
    <glyph glyph-name="uniFF39" unicode="&#xff39;" 
d="M99 706h157l196 -345l196 345h154l-281 -476v-262h-141v262z" />
    <glyph glyph-name="uniFF3A" unicode="&#xff3a;" 
d="M556 580h-385v126h560v-120l-397 -492h407v-126h-582v120z" />
    <glyph glyph-name="uniFF3B" unicode="&#xff3b;" 
d="M584 755v-122h-137v-632h137v-122h-268v876h268z" />
    <glyph glyph-name="uniFFE6" unicode="&#xffe6;" 
d="M316 755l388 -876h-120l-388 876h120z" />
    <glyph glyph-name="uniFF3D" unicode="&#xff3d;" 
d="M453 1v632h-137v122h268v-876h-268v122h137z" />
    <glyph glyph-name="uniFF3E" unicode="&#xff3e;" 
d="M501 719l201 -353h-136l-116 218l-116 -218h-136l201 353h102z" />
    <glyph glyph-name="uniFF3F" unicode="&#xff3f;" 
d="M703 -41v-109h-506v109h506z" />
    <glyph glyph-name="uniFF40" unicode="&#xff40;" 
d="M480 736l94 -162h-129l-119 162h154z" />
    <glyph glyph-name="uniFF41" unicode="&#xff41;" 
d="M600 506h137v-538h-137v76c-36 -59 -100 -90 -175 -90c-150 0 -262 124 -262 283c-2 157 113 286 262 283c75 0 139 -30 175 -89v75zM600 237c0 99 -64 164 -153 164c-45 0 -82 -16 -111 -47c-28 -31 -42 -70 -42 -117c0 -93 62 -164 153 -164c89 0 153 65 153 164z" />
    <glyph glyph-name="uniFF42" unicode="&#xff42;" 
d="M737 237c0 -159 -112 -283 -262 -283c-75 0 -139 31 -175 90v-76h-137v751h137v-288c36 59 100 89 175 89c149 3 264 -126 262 -283zM606 237c0 47 -14 86 -43 117c-28 31 -65 47 -110 47c-89 0 -153 -65 -153 -164s64 -164 153 -164c91 0 153 71 153 164z" />
    <glyph glyph-name="uniFF43" unicode="&#xff43;" 
d="M187 237c-3 159 125 285 286 283c103 0 191 -47 240 -124l-111 -63c-28 41 -74 67 -129 67c-92 0 -155 -71 -155 -163c0 -47 14 -85 43 -116s66 -46 112 -46c56 0 102 24 129 67l111 -64c-49 -76 -137 -124 -240 -124c-161 -2 -289 124 -286 283z" />
    <glyph glyph-name="uniFF44" unicode="&#xff44;" 
d="M600 719h137v-751h-137v76c-36 -59 -100 -90 -175 -90c-150 0 -262 124 -262 283c-2 157 113 286 262 283c75 0 139 -30 175 -89v288zM600 237c0 99 -64 164 -153 164c-45 0 -82 -16 -111 -47c-28 -31 -42 -70 -42 -117c0 -93 62 -164 153 -164c89 0 153 65 153 164z" />
    <glyph glyph-name="uniFF45" unicode="&#xff45;" 
d="M726 190h-421c17 -77 79 -119 162 -119c59 0 113 26 140 67l105 -66c-47 -71 -141 -118 -245 -118c-173 0 -295 122 -295 283s119 283 278 283c160 0 278 -111 278 -270c0 -17 -1 -37 -2 -60zM305 286h292c-7 72 -63 120 -146 120c-72 0 -130 -44 -146 -120z" />
    <glyph glyph-name="uniFF46" unicode="&#xff46;" 
d="M476 552v-46h183v-119h-183v-419h-136v419h-115v119h115v48c0 147 70 223 203 223c49 0 101 -13 132 -33l-30 -108c-25 13 -53 20 -84 20c-57 0 -85 -35 -85 -104z" />
    <glyph glyph-name="uniFF47" unicode="&#xff47;" 
d="M600 506h137v-487c0 -177 -129 -277 -298 -277c-112 0 -204 50 -253 122l106 66c29 -44 82 -72 147 -72c103 0 161 56 161 161v47c-36 -53 -100 -82 -175 -82c-149 -3 -264 119 -262 268c0 153 112 268 262 268c76 0 139 -29 175 -82v68zM600 252c0 91 -62 150 -153 150
s-153 -63 -153 -150s62 -149 153 -149s153 58 153 149z" />
    <glyph glyph-name="uniFF48" unicode="&#xff48;" 
d="M716 272v-304h-137v294c0 92 -42 139 -121 139s-137 -61 -137 -152v-281h-136v751h136v-290c31 55 93 91 169 91c140 0 226 -91 226 -248z" />
    <glyph glyph-name="uniFF49" unicode="&#xff49;" 
d="M365 659c0 45 36 81 85 81c48 0 85 -36 85 -81c0 -47 -36 -81 -85 -81s-85 34 -85 81zM518 506v-538h-136v538h136z" />
    <glyph glyph-name="uniFF4A" unicode="&#xff4a;" 
d="M435 659c0 45 37 81 85 81c49 0 86 -36 86 -81c0 -47 -37 -81 -86 -81s-85 34 -85 81zM294 -233l31 110c17 -9 37 -13 60 -13c45 0 67 28 67 89v553h137v-554c0 -137 -66 -209 -179 -209c-47 0 -92 9 -116 24z" />
    <glyph glyph-name="uniFF4B" unicode="&#xff4b;" 
d="M711 -32h-163l-222 241v-241h-137v751h137v-451l211 238h161l-242 -268z" />
    <glyph glyph-name="uniFF4C" unicode="&#xff4c;" 
d="M518 719v-751h-136v751h136z" />
    <glyph glyph-name="uniFF4D" unicode="&#xff4d;" 
d="M885 272v-304h-137v294c0 91 -38 139 -107 139c-35 0 -65 -14 -88 -43s-35 -65 -35 -109v-281h-136v294c0 91 -38 139 -107 139c-71 0 -123 -63 -123 -152v-281h-137v538h137v-77c29 55 86 91 154 91c84 0 147 -38 182 -106c35 65 98 106 183 106c133 0 214 -93 214 -248
z" />
    <glyph glyph-name="uniFF4E" unicode="&#xff4e;" 
d="M716 272v-304h-137v294c0 92 -42 139 -121 139s-137 -61 -137 -152v-281h-136v538h136v-77c31 55 93 91 169 91c140 0 226 -91 226 -248z" />
    <glyph glyph-name="uniFF4F" unicode="&#xff4f;" 
d="M164 237c-3 159 125 285 286 283c165 0 286 -122 286 -283s-121 -283 -286 -283c-161 -2 -289 124 -286 283zM606 237c0 92 -63 163 -156 163c-92 0 -155 -71 -155 -163c0 -47 14 -85 43 -116s66 -46 112 -46s83 15 112 46s44 69 44 116z" />
    <glyph glyph-name="uniFF50" unicode="&#xff50;" 
d="M737 237c0 -159 -112 -283 -262 -283c-75 0 -139 31 -175 90v-289h-137v751h137v-75c36 59 100 89 175 89c149 3 264 -126 262 -283zM606 237c0 47 -14 86 -43 117c-28 31 -65 47 -110 47c-89 0 -153 -65 -153 -164s64 -164 153 -164c91 0 153 71 153 164z" />
    <glyph glyph-name="uniFF51" unicode="&#xff51;" 
d="M600 506h137v-751h-137v289c-36 -59 -100 -90 -175 -90c-150 0 -262 124 -262 283c-2 157 113 286 262 283c75 0 139 -30 175 -89v75zM600 237c0 99 -64 164 -153 164c-45 0 -82 -16 -111 -47c-28 -31 -42 -70 -42 -117c0 -93 62 -164 153 -164c89 0 153 65 153 164z" />
    <glyph glyph-name="uniFF52" unicode="&#xff52;" 
d="M624 507v-125c-18 5 -39 8 -63 8c-88 0 -149 -63 -149 -151v-271h-137v538h137v-90c25 60 83 100 151 100c26 0 46 -3 61 -9z" />
    <glyph glyph-name="uniFF53" unicode="&#xff53;" 
d="M196 81l103 59c28 -44 86 -77 157 -77c68 0 119 21 119 53s-22 45 -105 64l-79 18c-113 25 -168 73 -168 153c0 102 98 169 235 169c53 0 102 -11 145 -34s75 -50 95 -83l-102 -58c-25 39 -82 67 -141 67c-60 0 -103 -21 -103 -53c0 -31 22 -44 105 -63l79 -18
c113 -25 168 -74 168 -155c0 -102 -107 -169 -251 -169c-59 0 -111 13 -157 38s-79 54 -100 89z" />
    <glyph glyph-name="uniFF54" unicode="&#xff54;" 
d="M645 96l30 -109c-31 -20 -83 -33 -132 -33c-133 0 -203 76 -203 224v209h-115v119h115v143h136v-143h179v-119h-179v-208c0 -68 29 -104 85 -104c30 0 58 7 84 21z" />
    <glyph glyph-name="uniFF55" unicode="&#xff55;" 
d="M579 506h137v-538h-137v77c-29 -55 -92 -91 -168 -91c-140 0 -226 92 -226 249v303h136v-294c0 -92 42 -139 121 -139c80 0 137 61 137 153v280z" />
    <glyph glyph-name="uniFF56" unicode="&#xff56;" 
d="M296 506l156 -373l155 373h144l-233 -538h-136l-233 538h147z" />
    <glyph glyph-name="uniFF57" unicode="&#xff57;" 
d="M163 506l115 -369l112 363h124l112 -363l115 369h144l-187 -538h-137l-111 337l-111 -337h-136l-188 538h148z" />
    <glyph glyph-name="uniFF58" unicode="&#xff58;" 
d="M155 506h158l138 -174l138 174h156l-217 -267l220 -271h-158l-142 178l-140 -178h-156l220 271z" />
    <glyph glyph-name="uniFF59" unicode="&#xff59;" 
d="M608 506h144l-233 -548c-35 -81 -72 -137 -111 -168c-39 -32 -83 -48 -132 -48c-43 0 -89 11 -122 27l31 110c27 -11 54 -17 81 -17c55 0 91 25 120 96l4 10l-240 538h147l159 -375z" />
    <glyph glyph-name="uniFF5A" unicode="&#xff5a;" 
d="M510 388h-300v118h482v-110l-310 -310h318v-118h-500v110z" />
    <glyph glyph-name="uniFF5B" unicode="&#xff5b;" 
d="M359 25v161c0 42 -18 63 -55 63h-31v137h31c37 0 55 19 55 62v162c0 99 38 145 126 145h142v-122h-92c-33 0 -45 -14 -45 -50v-135c0 -80 -27 -122 -87 -131c60 -9 87 -51 87 -131v-134c0 -37 12 -51 45 -51h92v-122h-142c-88 0 -126 46 -126 146z" />
    <glyph glyph-name="uniFF5C" unicode="&#xff5c;" 
d="M508 755v-876h-116v876h116z" />
    <glyph glyph-name="uniFF5D" unicode="&#xff5d;" 
d="M410 52v134c0 80 27 122 87 131c-60 9 -87 51 -87 131v135c0 36 -12 50 -45 50h-92v122h142c88 0 126 -46 126 -145v-162c0 -43 18 -62 55 -62h31v-137h-31c-37 0 -55 -21 -55 -63v-161c0 -100 -38 -146 -126 -146h-142v122h92c33 0 45 14 45 51z" />
    <glyph glyph-name="uni203E" unicode="&#x203e;" 
d="M900 800v-108h-900v108h900z" />
    <glyph glyph-name="uni3131" unicode="&#x3131;" 
d="M105 502v124h672v-578h-134v454h-538z" />
    <glyph glyph-name="uni3132" unicode="&#x3132;" 
d="M85 502v124h336v-578h-132v454h-204zM465 502v124h332v-578h-132v454h-200z" />
    <glyph glyph-name="uni3133" unicode="&#x3133;" 
d="M582 543v87h131v-87c0 -113 12 -200 37 -261s63 -106 114 -136l-63 -104c-38 18 -71 46 -99 85s-46 81 -53 126c-8 -46 -26 -89 -55 -128c-28 -39 -61 -67 -99 -84l-64 105c51 30 89 75 114 136s37 148 37 261zM85 502v124h336v-578h-132v454h-204z" />
    <glyph glyph-name="uni3134" unicode="&#x3134;" 
d="M257 627v-454h538v-124h-671v578h133z" />
    <glyph glyph-name="uni3135" unicode="&#x3135;" 
d="M214 630v-459h165v-122h-297v581h132zM863 146l-63 -104c-43 18 -80 47 -112 88s-52 84 -60 131c-8 -47 -28 -91 -61 -132s-70 -70 -113 -88l-64 105c109 57 168 160 173 357h-154v123h436v-123h-154c5 -197 63 -300 172 -357z" />
    <glyph glyph-name="uni3136" unicode="&#x3136;" 
d="M557 583v99h133v-99h170v-117h-473v117h170zM214 630v-459h182v-122h-314v581h132zM424 224c0 117 83 197 199 197s199 -80 199 -197s-83 -197 -199 -197s-199 80 -199 197zM711 224c0 57 -35 95 -88 95s-87 -38 -87 -95c0 -59 34 -96 87 -96s88 39 88 96z" />
    <glyph glyph-name="uni3137" unicode="&#x3137;" 
d="M787 626v-124h-538v-330h542v-123h-675v577h671z" />
    <glyph glyph-name="uni3138" unicode="&#x3138;" 
d="M429 626v-123h-201v-332h201v-122h-333v577h333zM807 626v-123h-206v-332h210v-122h-342v577h338z" />
    <glyph glyph-name="uni3139" unicode="&#x3139;" 
d="M653 394v114h-537v118h669v-346h-538v-113h550v-118h-681v345h537z" />
    <glyph glyph-name="uni313A" unicode="&#x313a;" 
d="M322 392v117h-235v117h356v-343h-230v-117h293v-117h-414v343h230zM482 502v124h327v-579h-130v455h-197z" />
    <glyph glyph-name="uni313B" unicode="&#x313b;" 
d="M307 391v118h-220v117h339v-343h-215v-118h223v-116h-342v342h215zM809 626v-577h-333v577h333zM696 510h-107v-346h107v346z" />
    <glyph glyph-name="uni313C" unicode="&#x313c;" 
d="M695 630h114v-581h-337v581h114v-184h109v184zM211 283v-118h218v-116h-337v342h211v118h-216v117h335v-343h-211zM586 163h109v168h-109v-168z" />
    <glyph glyph-name="uni313D" unicode="&#x313d;" 
d="M864 146l-63 -104c-38 18 -71 46 -99 85s-46 81 -53 126c-8 -46 -26 -89 -55 -128c-28 -39 -61 -67 -99 -84l-62 102v-94h-341v342h215v118h-220v117h339v-343h-215v-118h222v-18c51 30 88 75 112 136c25 61 37 147 37 260v87h131v-87c0 -113 12 -200 37 -261
s63 -106 114 -136z" />
    <glyph glyph-name="uni313E" unicode="&#x313e;" 
d="M307 391v118h-220v117h339v-343h-215v-118h223v-116h-342v342h215zM813 626v-117h-218v-117h208v-110h-208v-117h228v-116h-347v577h337z" />
    <glyph glyph-name="uni313F" unicode="&#x313f;" 
d="M211 283v-118h218v-116h-337v342h210v118h-215v117h334v-343h-210zM820 510h-41v-346h41v-115h-360v115h41v346h-41v116h360v-116zM671 164v346h-62v-346h62z" />
    <glyph glyph-name="uni3140" unicode="&#x3140;" 
d="M582 583v99h133v-99h137v-117h-407v117h137zM291 391v118h-222v117h340v-343h-217v-118h247v-116h-365v342h217zM467 224c0 59 16 107 49 143s77 54 132 54s98 -18 131 -54s50 -84 50 -143s-17 -107 -50 -143s-76 -54 -131 -54s-99 18 -132 54s-49 84 -49 143zM721 224
c0 59 -26 95 -73 95c-45 0 -72 -38 -72 -95c0 -59 27 -96 72 -96c47 0 73 37 73 96z" />
    <glyph glyph-name="uni3141" unicode="&#x3141;" 
d="M785 626v-577h-669v577h669zM653 503h-405v-332h405v332z" />
    <glyph glyph-name="uni3142" unicode="&#x3142;" 
d="M653 631h132v-582h-669v582h131v-181h406v181zM247 169h406v160h-406v-160z" />
    <glyph glyph-name="uni3143" unicode="&#x3143;" 
d="M310 444v187h114v-582h-332v582h114v-187h104zM695 631h114v-582h-332v582h114v-187h104v187zM206 163h104v166h-104v-166zM591 163h104v166h-104v-166z" />
    <glyph glyph-name="uni3144" unicode="&#x3144;" 
d="M313 446v184h115v-581h-339v581h115v-184h109zM864 146l-63 -104c-38 18 -71 46 -99 85s-46 81 -53 126c-8 -46 -26 -89 -55 -128c-28 -39 -61 -67 -99 -84l-64 105c51 30 89 75 114 136s37 148 37 261v87h131v-87c0 -113 12 -200 37 -261s63 -106 114 -136zM204 163h109
v168h-109v-168z" />
    <glyph glyph-name="uni3145" unicode="&#x3145;" 
d="M384 597v41h133v-41c0 -249 145 -391 318 -421l-37 -121c-146 17 -306 143 -347 282c-41 -141 -202 -264 -348 -284l-37 123c173 30 318 172 318 421z" />
    <glyph glyph-name="uni3146" unicode="&#x3146;" 
d="M211 528v103h129v-103c0 -164 45 -279 110 -331c67 52 111 167 111 331v103h129v-103c0 -201 67 -321 174 -361l-58 -117c-82 24 -167 128 -181 223c-14 -91 -100 -199 -175 -225c-73 23 -163 136 -174 225c-14 -96 -98 -201 -181 -225l-59 119c107 40 175 160 175 361z
" />
    <glyph glyph-name="uni3147" unicode="&#x3147;" 
d="M101 337c-3 172 141 312 349 310c210 2 353 -138 350 -310c3 -171 -140 -313 -350 -310c-208 -3 -352 139 -349 310zM667 337c0 104 -82 191 -217 191c-133 0 -216 -87 -216 -191c0 -105 83 -190 216 -190c135 0 217 85 217 190z" />
    <glyph glyph-name="uni3148" unicode="&#x3148;" 
d="M833 176l-33 -121c-144 12 -304 118 -349 245c-48 -131 -203 -233 -350 -247l-33 123c167 20 305 135 315 327h-290v123h715v-123h-290c10 -192 148 -307 315 -327z" />
    <glyph glyph-name="uni3149" unicode="&#x3149;" 
d="M857 169l-52 -119c-82 22 -170 121 -184 211c-12 -82 -103 -194 -171 -213c-70 22 -156 128 -170 213c-14 -93 -99 -189 -183 -213l-53 121c104 36 170 141 171 334h-133v123h737v-123h-133c1 -193 67 -298 171 -334zM557 503h-213c1 -157 46 -264 106 -308
c61 44 106 149 107 308z" />
    <glyph glyph-name="uni314A" unicode="&#x314a;" 
d="M832 174l-29 -119c-147 10 -306 102 -352 226c-45 -126 -207 -220 -353 -228l-29 121c158 14 297 113 313 275h-290v122h288v114h141v-114h288v-122h-290c16 -162 155 -261 313 -275z" />
    <glyph glyph-name="uni314B" unicode="&#x314b;" 
d="M113 626h672v-578h-132v178l-546 -17l-5 125l551 14v154h-540v124z" />
    <glyph glyph-name="uni314C" unicode="&#x314c;" 
d="M787 626v-118h-540v-113h530v-115h-530v-113h550v-118h-681v577h671z" />
    <glyph glyph-name="uni314D" unicode="&#x314d;" 
d="M681 169h132v-120h-725v120h131v337h-126v120h715v-120h-127v-337zM350 506v-337h200v337h-200z" />
    <glyph glyph-name="uni314E" unicode="&#x314e;" 
d="M380 585v100h141v-100h308v-121h-757v121h308zM127 214c0 114 118 189 323 189s324 -75 324 -189c0 -115 -119 -188 -324 -188s-323 73 -323 188zM644 214c0 49 -70 83 -194 83s-194 -34 -194 -83s70 -82 194 -82s194 33 194 82z" />
    <glyph glyph-name="uni314F" unicode="&#x314f;" 
d="M688 422v-123h-245v-402h-130v860h130v-335h245z" />
    <glyph glyph-name="uni3150" unicode="&#x3150;" 
d="M545 757h130v-860h-130v401h-190v-370h-129v820h129v-325h190v334z" />
    <glyph glyph-name="uni3151" unicode="&#x3151;" 
d="M678 442h-245v-163h245v-121h-245v-261h-130v860h130v-194h245v-121z" />
    <glyph glyph-name="uni3152" unicode="&#x3152;" 
d="M548 757h130v-860h-130v265h-197v-234h-128v820h128v-189h197v198zM351 284h197v153h-197v-153z" />
    <glyph glyph-name="uni3153" unicode="&#x3153;" 
d="M458 757h130v-860h-130v402h-246v123h246v335z" />
    <glyph glyph-name="uni3154" unicode="&#x3154;" 
d="M569 757h129v-860h-129v860zM331 423v325h128v-820h-128v370h-201v125h201z" />
    <glyph glyph-name="uni3155" unicode="&#x3155;" 
d="M468 757h130v-860h-130v261h-246v121h246v163h-246v121h246v194z" />
    <glyph glyph-name="uni3156" unicode="&#x3156;" 
d="M579 757h129v-860h-129v860zM347 562v186h127v-820h-127v231h-207v122h207v159h-207v122h207z" />
    <glyph glyph-name="uni3157" unicode="&#x3157;" 
d="M516 229h355v-122h-841v122h354v355h132v-355z" />
    <glyph glyph-name="uni3158" unicode="&#x3158;" 
d="M889 427v-133h-99v-397h-129v860h129v-330h99zM604 216l26 -118c-53 -20 -160 -31 -279 -31h-321v122h217v335h131v-335c91 0 174 10 226 27z" />
    <glyph glyph-name="uni3159" unicode="&#x3159;" 
d="M708 757h122v-860h-122v421h-85v-390h-121v820h121v-305h85v314zM453 214l26 -116c-52 -20 -159 -31 -279 -31h-170v120h152v337h126v-334c61 4 110 12 145 24z" />
    <glyph glyph-name="uni315A" unicode="&#x315a;" 
d="M686 757h130v-860h-130v860zM629 216l26 -118c-53 -20 -160 -31 -279 -31h-340v122h224v335h131v-335h8c92 0 178 10 230 27z" />
    <glyph glyph-name="uni315B" unicode="&#x315b;" 
d="M675 228h196v-121h-841v121h196v356h130v-356h188v356h131v-356z" />
    <glyph glyph-name="uni315C" unicode="&#x315c;" 
d="M871 484v-122h-355v-355h-132v355h-354v122h841z" />
    <glyph glyph-name="uni315D" unicode="&#x315d;" 
d="M686 757h130v-860h-130v165h-204v117h204v578zM378 266v-342h-131v342h-211v118h363c92 0 178 10 230 27l26 -115c-52 -20 -157 -30 -277 -30z" />
    <glyph glyph-name="uni315E" unicode="&#x315e;" 
d="M708 757h122v-860h-122v860zM519 179v569h120v-841h-120v155h-146v117h146zM299 267v-349h-123v348h-146v118h196c115 0 198 6 249 19l21 -115c-39 -12 -104 -19 -197 -21z" />
    <glyph glyph-name="uni315F" unicode="&#x315f;" 
d="M686 757h130v-860h-130v860zM629 411l26 -118c-49 -19 -149 -29 -262 -30v-339h-132v339h-225v121h363c92 0 178 10 230 27z" />
    <glyph glyph-name="uni3160" unicode="&#x3160;" 
d="M871 484v-120h-196v-357h-131v357h-188v-357h-130v357h-196v120h841z" />
    <glyph glyph-name="uni3161" unicode="&#x3161;" 
d="M871 422v-123h-841v123h841z" />
    <glyph glyph-name="uni3162" unicode="&#x3162;" 
d="M816 757v-860h-130v860h130zM626 290l29 -119c-77 -29 -211 -43 -367 -43h-252v123h274c133 0 239 13 316 39z" />
    <glyph glyph-name="uni3163" unicode="&#x3163;" 
d="M515 757v-860h-130v860h130z" />
    <glyph glyph-name="uni3165" unicode="&#x3165;" 
d="M228 630v-459h201v-122h-333v581h132zM601 630v-459h210v-122h-342v581h132z" />
    <glyph glyph-name="uni3166" unicode="&#x3166;" 
d="M228 630v-459h201v-122h-333v581h132zM807 626v-123h-206v-332h210v-122h-342v577h338z" />
    <glyph glyph-name="uni3167" unicode="&#x3167;" 
d="M864 146l-63 -104c-38 18 -71 46 -99 85s-46 81 -53 126c-8 -46 -26 -89 -55 -128c-28 -39 -61 -67 -99 -84l-62 102v-94h-337v581h132v-459h205v-24c51 30 88 75 112 136c25 61 37 147 37 260v87h131v-87c0 -113 12 -200 37 -261s63 -106 114 -136z" />
    <glyph glyph-name="uni3168" unicode="&#x3168;" 
d="M847 49h-399l199 609zM228 630v-459h201v-122h-333v581h132zM647 355l-62 -210h124z" />
    <glyph glyph-name="uni3169" unicode="&#x3169;" 
d="M894 145l-58 -103c-59 28 -104 107 -115 195c-12 -88 -57 -168 -116 -196l-28 49v-43h-120v455h-130v124h250v-457c57 59 83 169 83 377v84h120v-84c0 -121 9 -212 27 -273c19 -61 48 -104 87 -128zM150 283v-118h212v-116h-323v342h148v118h-153v117h265v-343h-149z" />
    <glyph glyph-name="uni316A" unicode="&#x316a;" 
d="M307 391v118h-220v117h339v-343h-215v-118h233v-116h-352v342h215zM813 626v-123h-195v-332h199v-122h-331v577h327z" />
    <glyph glyph-name="uni316B" unicode="&#x316b;" 
d="M894 145l-58 -103c-59 28 -104 107 -115 195c-12 -88 -57 -168 -116 -196l-28 49v-41h-252v581h99v-184h53v184h100v-461c57 59 83 169 83 377v84h120v-84c0 -121 9 -212 27 -273c19 -61 48 -104 87 -128zM148 283v-118h151v-116h-260v342h140v118h-145v117h255v-343
h-141zM424 163h53v168h-53v-168z" />
    <glyph glyph-name="uni316C" unicode="&#x316c;" 
d="M847 49h-399l199 609zM307 391v118h-220v117h339v-343h-215v-118h233v-116h-352v342h215zM647 355l-62 -210h124z" />
    <glyph glyph-name="uni316D" unicode="&#x316d;" 
d="M291 391v118h-222v117h340v-343h-217v-118h247v-116h-365v342h217zM852 626v-123h-407v123h407zM467 235c0 122 72 206 181 206c55 0 98 -19 131 -57s50 -88 50 -149c0 -62 -17 -112 -50 -151c-33 -38 -76 -57 -131 -57c-109 0 -181 86 -181 208zM721 235
c0 63 -26 102 -73 102c-45 0 -72 -39 -72 -102s27 -105 72 -105s73 42 73 105z" />
    <glyph glyph-name="uni316E" unicode="&#x316e;" 
d="M695 630h114v-581h-333v581h114v-184h105v184zM89 49v577h333v-577h-333zM202 510v-346h107v346h-107zM590 163h105v168h-105v-168z" />
    <glyph glyph-name="uni316F" unicode="&#x316f;" 
d="M582 543v87h131v-87c0 -113 12 -200 37 -261s63 -106 114 -136l-63 -104c-38 18 -71 46 -99 85s-46 81 -53 126c-8 -46 -26 -89 -55 -128c-28 -39 -61 -67 -99 -84l-64 105c51 30 89 75 114 136s37 148 37 261zM428 626v-577h-339v577h339zM313 510h-109v-346h109v346z
" />
    <glyph glyph-name="uni3170" unicode="&#x3170;" 
d="M847 49h-399l199 609zM422 626v-577h-333v577h333zM309 510h-107v-346h107v346zM647 355l-62 -210h124z" />
    <glyph glyph-name="uni3171" unicode="&#x3171;" 
d="M765 683v-380h-629v380h629zM637 573h-374v-160h374v160zM262 77c0 100 83 176 191 176s191 -76 191 -176c0 -101 -83 -177 -191 -177s-191 76 -191 177zM538 77c0 45 -34 79 -85 79c-49 0 -85 -35 -85 -79c0 -45 36 -80 85 -80c51 0 85 35 85 80z" />
    <glyph glyph-name="uni3172" unicode="&#x3172;" 
d="M330 446v184h118v-581h-359v581h118v-184h123zM492 626h317v-578h-130v454h-187v124zM207 163h123v168h-123v-168z" />
    <glyph glyph-name="uni3173" unicode="&#x3173;" 
d="M308 446v184h114v-581h-333v581h114v-184h105zM618 171h199v-122h-331v577h327v-123h-195v-332zM203 163h105v168h-105v-168z" />
    <glyph glyph-name="uni3174" unicode="&#x3174;" 
d="M655 145l-58 -103c-59 28 -104 107 -115 195c-12 -88 -57 -168 -116 -196l-50 88v-80h-280v581h102v-184h75v184h103v-479c37 25 63 68 80 129s25 150 25 266v84h120v-84c0 -121 9 -212 27 -273c19 -61 48 -104 87 -128zM606 626h260v-579h-120v455h-140v124zM138 163h75
v168h-75v-168z" />
    <glyph glyph-name="uni3175" unicode="&#x3175;" 
d="M732 171h137v-122h-255v73l-45 -80c-59 28 -104 107 -115 195c-12 -88 -57 -168 -116 -196l-50 88v-80h-252v581h99v-184h53v184h100v-479c37 25 63 68 80 129s25 150 25 266v84h120v-84c0 -114 8 -201 24 -262c17 -61 42 -104 77 -130v472h251v-123h-133v-332zM135 163
h53v168h-53v-168z" />
    <glyph glyph-name="uni3176" unicode="&#x3176;" 
d="M310 446v184h115v-581h-336v581h114v-184h107zM864 146l-63 -104c-37 18 -70 46 -99 84c-28 38 -46 79 -53 124c-8 -45 -26 -87 -55 -126c-29 -38 -62 -66 -99 -83l-64 105c100 57 150 170 153 357h-119v123h381v-123h-134c3 -187 53 -300 152 -357zM203 163h107v168
h-107v-168z" />
    <glyph glyph-name="uni3177" unicode="&#x3177;" 
d="M308 446v184h114v-581h-333v581h114v-184h105zM595 165h228v-116h-347v577h337v-117h-218v-117h208v-110h-208v-117zM203 163h105v168h-105v-168z" />
    <glyph glyph-name="uni3178" unicode="&#x3178;" 
d="M638 690h127v-387h-629v387h126v-89h376v89zM262 408h376v86h-376v-86zM644 77c0 -101 -83 -177 -191 -177s-191 76 -191 177c0 100 83 176 191 176s191 -76 191 -176zM538 77c0 45 -34 79 -85 79c-49 0 -85 -35 -85 -79c0 -45 36 -80 85 -80c51 0 85 35 85 80z" />
    <glyph glyph-name="uni3179" unicode="&#x3179;" 
d="M424 690v-387h-312v387h110v-98h92v98h110zM679 690h110v-387h-312v387h110v-98h92v98zM222 401h92v92h-92v-92zM587 401h92v92h-92v-92zM644 77c0 -101 -83 -177 -191 -177s-191 76 -191 177c0 100 83 176 191 176s191 -76 191 -176zM538 77c0 45 -34 79 -85 79
c-49 0 -85 -35 -85 -79c0 -45 36 -80 85 -80c51 0 85 35 85 80z" />
    <glyph glyph-name="uni317A" unicode="&#x317a;" 
d="M207 528v102h132v-102c0 -107 14 -190 42 -249c29 -59 71 -103 128 -133l-63 -104c-43 18 -80 47 -113 88c-32 41 -52 84 -59 131c-8 -47 -28 -91 -61 -132s-70 -70 -112 -88l-64 105c57 30 99 74 127 133c29 59 43 142 43 249zM482 502v124h327v-578h-130v454h-197z" />
    <glyph glyph-name="uni317B" unicode="&#x317b;" 
d="M187 543v87h131v-87c0 -113 12 -200 37 -261s63 -106 114 -136l-63 -104c-38 18 -71 46 -99 85s-46 81 -53 126c-8 -46 -26 -89 -55 -128c-28 -39 -61 -67 -99 -84l-64 105c51 30 89 75 114 136s37 148 37 261zM616 630v-463h201v-118h-331v581h130z" />
    <glyph glyph-name="uni317C" unicode="&#x317c;" 
d="M187 543v87h131v-87c0 -113 12 -200 37 -261s63 -106 114 -136l-63 -104c-38 18 -71 46 -99 85s-46 81 -53 126c-8 -46 -26 -89 -55 -128c-28 -39 -61 -67 -99 -84l-64 105c51 30 89 75 114 136s37 148 37 261zM813 626v-123h-195v-332h199v-122h-331v577h327z" />
    <glyph glyph-name="uni317D" unicode="&#x317d;" 
d="M469 146l-63 -104c-38 18 -71 46 -99 85s-46 81 -53 126c-8 -46 -26 -89 -55 -128c-28 -39 -61 -67 -99 -84l-64 105c51 30 89 75 114 136s37 148 37 261v87h131v-87c0 -113 12 -200 37 -261s63 -106 114 -136zM696 630h116v-581h-340v581h116v-184h108v184zM588 163h108
v168h-108v-168z" />
    <glyph glyph-name="uni317E" unicode="&#x317e;" 
d="M864 146l-63 -104c-37 18 -70 46 -99 84c-28 38 -46 79 -53 124c-8 -45 -26 -87 -55 -126c-29 -38 -62 -66 -99 -83l-45 74l-44 -73c-38 18 -71 46 -99 85s-46 81 -53 126c-8 -46 -26 -89 -55 -128c-28 -39 -61 -67 -99 -84l-64 105c51 30 89 75 114 136s37 148 37 261
v87h131v-87c0 -107 11 -190 32 -249s55 -105 100 -136c87 61 131 170 134 345h-134v123h396v-123h-134c3 -187 53 -300 152 -357z" />
    <glyph glyph-name="uni317F" unicode="&#x317f;" 
d="M724 49h-547l273 624zM450 392l-100 -239h200z" />
    <glyph glyph-name="uni3180" unicode="&#x3180;" 
d="M423 277c0 -146 -67 -250 -176 -250c-107 0 -176 105 -176 250c0 115 41 203 112 236v117h128v-117c71 -32 112 -121 112 -236zM829 277c0 -146 -67 -250 -176 -250c-107 0 -176 105 -176 250c0 115 41 203 112 236v117h128v-117c71 -32 112 -121 112 -236zM314 277
c0 84 -22 138 -67 138c-44 0 -67 -54 -67 -138s23 -139 67 -139c45 0 67 54 67 139zM720 277c0 84 -22 138 -67 138c-44 0 -67 -54 -67 -138s23 -139 67 -139c45 0 67 54 67 139z" />
    <glyph glyph-name="uni3181" unicode="&#x3181;" 
d="M800 285c0 -150 -133 -257 -350 -257c-218 0 -349 107 -349 257c0 133 104 233 280 253v134h138v-134c176 -20 281 -120 281 -253zM667 285c0 81 -80 140 -217 140s-217 -61 -217 -140c0 -81 80 -140 217 -140s217 59 217 140z" />
    <glyph glyph-name="uni3182" unicode="&#x3182;" 
d="M423 277c0 -146 -67 -250 -176 -250c-107 0 -176 105 -176 250c0 115 41 203 112 236v117h128v-117c71 -32 112 -121 112 -236zM864 146l-63 -104c-38 18 -71 46 -99 85s-46 81 -53 126c-8 -46 -26 -89 -55 -128c-28 -39 -61 -67 -99 -84l-64 105c51 30 89 75 114 136
s37 148 37 261v87h131v-87c0 -113 12 -200 37 -261s63 -106 114 -136zM314 277c0 84 -22 138 -67 138c-44 0 -67 -54 -67 -138s23 -139 67 -139c45 0 67 54 67 139z" />
    <glyph glyph-name="uni3183" unicode="&#x3183;" 
d="M647 658l200 -609h-399zM423 277c0 -146 -67 -250 -176 -250c-107 0 -176 105 -176 250c0 115 41 203 112 236v117h128v-117c71 -32 112 -121 112 -236zM314 277c0 84 -22 138 -67 138c-44 0 -67 -54 -67 -138s23 -139 67 -139c45 0 67 54 67 139zM647 355l-62 -210h124z
" />
    <glyph glyph-name="uni3184" unicode="&#x3184;" 
d="M663 411h124v-108h-673v108h124v164h-119v108h663v-108h-119v-164zM363 575v-164h174v164h-174zM644 77c0 -101 -83 -177 -191 -177s-191 76 -191 177c0 100 83 176 191 176s191 -76 191 -176zM538 77c0 45 -34 79 -85 79c-49 0 -85 -35 -85 -79c0 -45 36 -80 85 -80
c51 0 85 35 85 80z" />
    <glyph glyph-name="uni3185" unicode="&#x3185;" 
d="M186 582v100h133v-100h263v100h133v-100h137v-116h-803v116h137zM71 224c0 59 16 107 49 143s77 54 132 54s98 -18 131 -54s50 -84 50 -143s-17 -107 -50 -143s-76 -54 -131 -54s-99 18 -132 54s-49 84 -49 143zM467 224c0 59 16 107 49 143s77 54 132 54s98 -18 131 -54
s50 -84 50 -143s-17 -107 -50 -143s-76 -54 -131 -54s-99 18 -132 54s-49 84 -49 143zM325 224c0 59 -26 95 -73 95c-45 0 -72 -38 -72 -95c0 -59 27 -96 72 -96c47 0 73 37 73 96zM721 224c0 59 -26 95 -73 95c-45 0 -72 -38 -72 -95c0 -59 27 -96 72 -96c47 0 73 37 73 96
z" />
    <glyph glyph-name="uni3186" unicode="&#x3186;" 
d="M808 626v-123h-715v123h715zM127 225c0 120 119 200 323 200c203 0 324 -80 324 -200c0 -119 -121 -199 -324 -199c-204 0 -323 80 -323 199zM644 225c0 55 -71 93 -194 93s-194 -38 -194 -93s70 -92 194 -92s194 37 194 92z" />
    <glyph glyph-name="uni3187" unicode="&#x3187;" 
d="M889 457h-99v-153h99v-129h-99v-278h-129v860h129v-171h99v-129zM604 215l26 -117c-53 -20 -160 -31 -279 -31h-321v121h100v336h131v-336h110v336h130v-329c41 4 75 11 103 20z" />
    <glyph glyph-name="uni3188" unicode="&#x3188;" 
d="M711 757h119v-860h-119v285h-91v-254h-117v820h117v-169h91v178zM453 213l26 -115c-52 -20 -159 -31 -279 -31h-170v119h64v338h119v-338h10c27 0 47 0 60 1v337h119v-324c22 5 39 9 51 13zM620 303h91v155h-91v-155z" />
    <glyph glyph-name="uni3189" unicode="&#x3189;" 
d="M686 757h130v-860h-130v860zM629 215l26 -117c-53 -20 -160 -31 -279 -31h-340v121h107v336h131v-336h110v336h130v-331c49 5 88 13 115 22z" />
    <glyph glyph-name="uni318A" unicode="&#x318a;" 
d="M687 757h129v-860h-129v78h-178v109h178v51h-178v108h178v514zM449 288v-364h-121v363h-71v-363h-121v363h-100v117h363c92 0 179 10 231 27l25 -113c-41 -15 -110 -25 -206 -30z" />
    <glyph glyph-name="uni318B" unicode="&#x318b;" 
d="M710 757h120v-860h-120v860zM532 243v505h118v-841h-118v68h-117v109h117v51h-117v108h117zM376 291v-367h-117v363h-24h-33v-363h-117v363h-55v116h209c113 0 196 7 249 20l21 -113c-34 -10 -78 -16 -133 -19z" />
    <glyph glyph-name="uni318C" unicode="&#x318c;" 
d="M686 757h130v-860h-130v860zM629 411l26 -117c-30 -11 -77 -20 -141 -25v-345h-130v340h-8h-102v-340h-131v340h-107v120h363c92 0 178 10 230 27z" />
    <glyph glyph-name="uni318D" unicode="&#x318d;" 
d="M361 375c0 49 38 87 89 87c52 0 90 -38 90 -87s-38 -86 -90 -86c-51 0 -89 37 -89 86z" />
    <glyph glyph-name="uni318E" unicode="&#x318e;" 
d="M615 757v-860h-130v860h130zM178 375c0 49 38 87 89 87c52 0 90 -38 90 -87s-38 -86 -90 -86c-51 0 -89 37 -89 86z" />
    <glyph glyph-name="uni2170" unicode="&#x2170;" 
d="M365 659c0 45 36 80 85 80s86 -35 86 -80c0 -47 -37 -81 -86 -81s-85 34 -85 81zM519 506v-538h-137v538h137z" />
    <glyph glyph-name="uni2171" unicode="&#x2171;" 
d="M219 659c0 45 36 80 85 80s85 -35 85 -80c0 -47 -36 -81 -85 -81s-85 34 -85 81zM512 659c0 45 36 80 85 80s85 -35 85 -80c0 -47 -36 -81 -85 -81s-85 34 -85 81zM372 506v-538h-136v538h136zM665 506v-538h-136v538h136z" />
    <glyph glyph-name="uni2172" unicode="&#x2172;" 
d="M105 659c0 45 35 81 83 81s83 -36 83 -81c0 -47 -35 -81 -83 -81s-83 34 -83 81zM368 659c0 45 34 81 82 81s83 -36 83 -81c0 -47 -35 -81 -83 -81s-82 34 -82 81zM630 659c0 45 35 81 83 81s83 -36 83 -81c0 -47 -35 -81 -83 -81s-83 34 -83 81zM254 506v-538h-132v538
h132zM516 506v-538h-131v538h131zM779 506v-538h-132v538h132z" />
    <glyph glyph-name="uni2173" unicode="&#x2173;" 
d="M97 659c0 45 36 81 84 81s84 -36 84 -81c0 -47 -35 -81 -84 -81s-84 34 -84 81zM248 506v-538h-134v538h134zM442 506l134 -369l134 369h141l-210 -538h-134l-210 538h145z" />
    <glyph glyph-name="uni2174" unicode="&#x2174;" 
d="M296 506l156 -373l155 373h144l-233 -538h-136l-233 538h147z" />
    <glyph glyph-name="uni2175" unicode="&#x2175;" 
d="M635 659c0 45 36 81 84 81s85 -36 85 -81c0 -47 -36 -81 -85 -81s-84 34 -84 81zM194 506l134 -369l134 369h142l-211 -538h-133l-211 538h145zM787 506v-538h-135v538h135z" />
    <glyph glyph-name="uni2176" unicode="&#x2176;" 
d="M508 659c0 45 33 81 77 81s77 -36 77 -81c0 -47 -33 -81 -77 -81c-45 0 -77 34 -77 81zM706 659c0 45 33 81 77 81s77 -36 77 -81c0 -47 -33 -81 -77 -81c-45 0 -77 34 -77 81zM151 506l103 -357l102 357h125l-171 -538h-115l-171 538h127zM646 506v-538h-122v538h122z
M844 506v-538h-122v538h122z" />
    <glyph glyph-name="uni2177" unicode="&#x2177;" 
d="M402 659c0 45 27 81 66 81s67 -36 67 -81c0 -47 -28 -81 -67 -81s-66 34 -66 81zM565 659c0 45 27 81 66 81s67 -36 67 -81c0 -47 -28 -81 -67 -81s-66 34 -66 81zM729 659c0 45 27 81 66 81s66 -36 66 -81c0 -47 -27 -81 -66 -81s-66 34 -66 81zM134 506l73 -341l72 341
h108l-132 -538h-99l-132 538h110zM523 506v-538h-109v538h109zM686 506v-538h-109v538h109zM849 506v-538h-108v538h108z" />
    <glyph glyph-name="uni2178" unicode="&#x2178;" 
d="M98 659c0 45 36 81 84 81s85 -36 85 -81c0 -47 -36 -81 -85 -81s-84 34 -84 81zM250 506v-538h-135v538h135zM310 506h156l115 -175l114 175h153l-191 -267l194 -271h-155l-118 180l-118 -180h-153l193 271z" />
    <glyph glyph-name="uni2179" unicode="&#x2179;" 
d="M155 506h159l138 -174l138 174h156l-218 -267l221 -271h-159l-141 178l-141 -178h-156l220 271z" />
    <glyph glyph-name="uni2160" unicode="&#x2160;" 
d="M521 706v-738h-141v738h141z" />
    <glyph glyph-name="uni2161" unicode="&#x2161;" 
d="M370 706v-738h-141v738h141zM671 706v-738h-141v738h141z" />
    <glyph glyph-name="uni2162" unicode="&#x2162;" 
d="M256 706v-738h-135v738h135zM518 706v-738h-135v738h135zM780 706v-738h-135v738h135z" />
    <glyph glyph-name="uni2163" unicode="&#x2163;" 
d="M251 706v-738h-135v738h135zM431 706l145 -533l145 533h137l-219 -738h-130l-219 738h141z" />
    <glyph glyph-name="uni2164" unicode="&#x2164;" 
d="M253 706l199 -555l199 555h151l-279 -738h-145l-279 738h154z" />
    <glyph glyph-name="uni2165" unicode="&#x2165;" 
d="M182 706l145 -533l145 533h139l-219 -738h-130l-219 738h139zM785 706v-738h-135v738h135z" />
    <glyph glyph-name="uni2166" unicode="&#x2166;" 
d="M159 706l95 -496l95 496h131l-167 -738h-121l-167 738h134zM646 706v-738h-126v738h126zM842 706v-738h-127v738h127z" />
    <glyph glyph-name="uni2167" unicode="&#x2167;" 
d="M143 706l65 -462l64 462h115l-128 -738h-105l-129 738h118zM528 706v-738h-110v738h110zM692 706v-738h-111v738h111zM855 706v-738h-110v738h110z" />
    <glyph glyph-name="uni2168" unicode="&#x2168;" 
d="M251 706v-738h-135v738h135zM299 706h151l124 -244l124 244h152l-203 -367l205 -371h-151l-127 249l-126 -249h-151l205 371z" />
    <glyph glyph-name="uni2169" unicode="&#x2169;" 
d="M114 706h169l169 -251l169 251h166l-254 -367l257 -371h-169l-173 257l-171 -257h-166l256 372z" />
    <glyph glyph-name="uni2500" unicode="&#x2500;" 
d="M0 285v30h900v-30h-900z" />
    <glyph glyph-name="uni2502" unicode="&#x2502;" 
d="M434 800h32v-1000h-32v1000z" />
    <glyph glyph-name="uni250C" unicode="&#x250c;" 
d="M434 315h466v-30h-434v-485h-32v515z" />
    <glyph glyph-name="uni2510" unicode="&#x2510;" 
d="M434 285h-434v30h466v-515h-32v485z" />
    <glyph glyph-name="uni2518" unicode="&#x2518;" 
d="M466 285h-466v30h434v485h32v-515z" />
    <glyph glyph-name="uni2514" unicode="&#x2514;" 
d="M466 315h434v-30h-466v515h32v-485z" />
    <glyph glyph-name="uni251C" unicode="&#x251c;" 
d="M434 800h32v-485h434v-30h-434v-485h-32v1000z" />
    <glyph glyph-name="uni252C" unicode="&#x252c;" 
d="M434 285h-434v30h900v-30h-434v-485h-32v485z" />
    <glyph glyph-name="uni2524" unicode="&#x2524;" 
d="M434 285h-434v30h434v485h32v-1000h-32v485z" />
    <glyph glyph-name="uni2534" unicode="&#x2534;" 
d="M466 315h434v-30h-900v30h434v485h32v-485z" />
    <glyph glyph-name="uni253C" unicode="&#x253c;" 
d="M434 285h-434v30h434v485h32v-485h434v-30h-434v-485h-32v485z" />
    <glyph glyph-name="uni2501" unicode="&#x2501;" 
d="M0 253v94h900v-94h-900z" />
    <glyph glyph-name="uni2503" unicode="&#x2503;" 
d="M399 -200v1000h102v-1000h-102z" />
    <glyph glyph-name="uni250F" unicode="&#x250f;" 
d="M501 253v-453h-102v547h501v-94h-399z" />
    <glyph glyph-name="uni2513" unicode="&#x2513;" 
d="M501 347v-547h-102v453h-399v94h501z" />
    <glyph glyph-name="uni251B" unicode="&#x251b;" 
d="M399 347v453h102v-547h-501v94h399z" />
    <glyph glyph-name="uni2517" unicode="&#x2517;" 
d="M399 253v547h102v-453h399v-94h-501z" />
    <glyph glyph-name="uni2523" unicode="&#x2523;" 
d="M501 253v-453h-102v1000h102v-453h399v-94h-399z" />
    <glyph glyph-name="uni2533" unicode="&#x2533;" 
d="M900 347v-94h-399v-453h-102v453h-399v94h900z" />
    <glyph glyph-name="uni252B" unicode="&#x252b;" 
d="M399 347v453h102v-1000h-102v453h-399v94h399z" />
    <glyph glyph-name="uni253B" unicode="&#x253b;" 
d="M399 347v453h102v-453h399v-94h-900v94h399z" />
    <glyph glyph-name="uni254B" unicode="&#x254b;" 
d="M399 347v453h102v-453h399v-94h-399v-453h-102v453h-399v94h399z" />
    <glyph glyph-name="uni2520" unicode="&#x2520;" 
d="M900 315v-30h-399v-485h-102v1000h102v-485h399z" />
    <glyph glyph-name="uni252F" unicode="&#x252f;" 
d="M466 253v-453h-32v453h-434v94h900v-94h-434z" />
    <glyph glyph-name="uni2528" unicode="&#x2528;" 
d="M501 800v-1000h-102v485h-399v30h399v485h102z" />
    <glyph glyph-name="uni2537" unicode="&#x2537;" 
d="M0 253v94h434v453h32v-453h434v-94h-900z" />
    <glyph glyph-name="uni253F" unicode="&#x253f;" 
d="M434 253h-434v94h434v453h32v-453h434v-94h-434v-453h-32v453z" />
    <glyph glyph-name="uni251D" unicode="&#x251d;" 
d="M434 800h32v-453h434v-94h-434v-453h-32v1000z" />
    <glyph glyph-name="uni2530" unicode="&#x2530;" 
d="M501 285v-485h-102v485h-399v30h900v-30h-399z" />
    <glyph glyph-name="uni2525" unicode="&#x2525;" 
d="M434 253h-434v94h434v453h32v-1000h-32v453z" />
    <glyph glyph-name="uni2538" unicode="&#x2538;" 
d="M0 285v30h399v485h102v-485h399v-30h-900z" />
    <glyph glyph-name="uni2542" unicode="&#x2542;" 
d="M501 285v-485h-102v485h-399v30h399v485h102v-485h399v-30h-399z" />
    <glyph glyph-name="uni2512" unicode="&#x2512;" 
d="M399 -200v485h-399v30h501v-515h-102z" />
    <glyph glyph-name="uni2511" unicode="&#x2511;" 
d="M434 253h-434v94h466v-547h-32v453z" />
    <glyph glyph-name="uni251A" unicode="&#x251a;" 
d="M0 285v30h399v485h102v-515h-501z" />
    <glyph glyph-name="uni2519" unicode="&#x2519;" 
d="M466 253h-466v94h434v453h32v-547z" />
    <glyph glyph-name="uni2516" unicode="&#x2516;" 
d="M501 800v-485h399v-30h-501v515h102z" />
    <glyph glyph-name="uni2515" unicode="&#x2515;" 
d="M466 347h434v-94h-466v547h32v-453z" />
    <glyph glyph-name="uni250E" unicode="&#x250e;" 
d="M900 315v-30h-399v-485h-102v515h501z" />
    <glyph glyph-name="uni250D" unicode="&#x250d;" 
d="M434 347h466v-94h-434v-453h-32v547z" />
    <glyph glyph-name="uni251E" unicode="&#x251e;" 
d="M501 315h399v-30h-434v-485h-32v485h-35v515h102v-485z" />
    <glyph glyph-name="uni251F" unicode="&#x251f;" 
d="M399 315h35v485h32v-485h434v-30h-399v-485h-102v515z" />
    <glyph glyph-name="uni2521" unicode="&#x2521;" 
d="M434 253h-35v547h102v-453h399v-94h-434v-453h-32v453z" />
    <glyph glyph-name="uni2522" unicode="&#x2522;" 
d="M466 347h434v-94h-399v-453h-102v547h35v453h32v-453z" />
    <glyph glyph-name="uni2526" unicode="&#x2526;" 
d="M501 285h-35v-485h-32v485h-434v30h399v485h102v-515z" />
    <glyph glyph-name="uni2527" unicode="&#x2527;" 
d="M399 285h-399v30h434v485h32v-485h35v-515h-102v485z" />
    <glyph glyph-name="uni2529" unicode="&#x2529;" 
d="M434 253h-434v94h399v453h102v-547h-35v-453h-32v453z" />
    <glyph glyph-name="uni252A" unicode="&#x252a;" 
d="M466 347h35v-547h-102v453h-399v94h434v453h32v-453z" />
    <glyph glyph-name="uni252D" unicode="&#x252d;" 
d="M900 315v-30h-434v-485h-32v453h-434v94h466v-32h434z" />
    <glyph glyph-name="uni252E" unicode="&#x252e;" 
d="M900 347v-94h-434v-453h-32v485h-434v30h434v32h466z" />
    <glyph glyph-name="uni2531" unicode="&#x2531;" 
d="M900 315v-30h-399v-485h-102v453h-399v94h501v-32h399z" />
    <glyph glyph-name="uni2532" unicode="&#x2532;" 
d="M900 347v-94h-399v-453h-102v485h-399v30h399v32h501z" />
    <glyph glyph-name="uni2535" unicode="&#x2535;" 
d="M0 253v94h434v453h32v-485h434v-30h-434v-32h-466z" />
    <glyph glyph-name="uni2536" unicode="&#x2536;" 
d="M0 285v30h434v485h32v-453h434v-94h-466v32h-434z" />
    <glyph glyph-name="uni2539" unicode="&#x2539;" 
d="M0 253v94h399v453h102v-485h399v-30h-399v-32h-501z" />
    <glyph glyph-name="uni253A" unicode="&#x253a;" 
d="M0 285v30h399v485h102v-453h399v-94h-501v32h-399z" />
    <glyph glyph-name="uni253D" unicode="&#x253d;" 
d="M434 253h-434v94h434v453h32v-485h434v-30h-434v-485h-32v453z" />
    <glyph glyph-name="uni253E" unicode="&#x253e;" 
d="M434 285h-434v30h434v485h32v-453h434v-94h-434v-453h-32v485z" />
    <glyph glyph-name="uni2540" unicode="&#x2540;" 
d="M466 285v-485h-32v485h-434v30h399v485h102v-485h399v-30h-434z" />
    <glyph glyph-name="uni2541" unicode="&#x2541;" 
d="M501 285v-485h-102v485h-399v30h434v485h32v-485h434v-30h-399z" />
    <glyph glyph-name="uni2543" unicode="&#x2543;" 
d="M434 253h-434v94h399v453h102v-485h399v-30h-434v-485h-32v453z" />
    <glyph glyph-name="uni2544" unicode="&#x2544;" 
d="M434 285h-434v30h399v485h102v-453h399v-94h-434v-453h-32v485z" />
    <glyph glyph-name="uni2545" unicode="&#x2545;" 
d="M466 315h434v-30h-399v-485h-102v453h-399v94h434v453h32v-485z" />
    <glyph glyph-name="uni2546" unicode="&#x2546;" 
d="M466 347h434v-94h-399v-453h-102v485h-399v30h434v485h32v-453z" />
    <glyph glyph-name="uni2547" unicode="&#x2547;" 
d="M434 253h-434v94h399v453h102v-453h399v-94h-434v-453h-32v453z" />
    <glyph glyph-name="uni2548" unicode="&#x2548;" 
d="M466 347h434v-94h-399v-453h-102v453h-399v94h434v453h32v-453z" />
    <glyph glyph-name="uni2549" unicode="&#x2549;" 
d="M501 285v-485h-102v453h-399v94h399v453h102v-485h399v-30h-399z" />
    <glyph glyph-name="uni254A" unicode="&#x254a;" 
d="M399 315v485h102v-453h399v-94h-399v-453h-102v485h-399v30h399z" />
    <glyph glyph-name="cid666" unicode="&#xc6;" horiz-adv-x="1071" 
d="M640 95h388v-127h-528v172h-244l-90 -172h-153l391 738h614v-126h-378v-180h337v-125h-337v-180zM317 258h183v350z" />
    <glyph glyph-name="cid667" unicode="&#xd0;" horiz-adv-x="824" 
d="M779 337c2 -215 -151 -372 -389 -369h-269v308h-87v123h87v307h269c238 3 391 -154 389 -369zM638 337c0 152 -89 242 -248 242h-128v-180h198v-123h-198v-181h128c159 0 248 90 248 242z" />
    <glyph glyph-name="cid668" unicode="&#xaa;" horiz-adv-x="545" 
d="M360 710h117v-408h-117v54c-24 -43 -68 -64 -121 -64c-114 0 -198 93 -198 214s84 214 198 214c53 0 97 -22 121 -65v55zM360 506c0 65 -43 110 -102 110c-61 0 -103 -46 -103 -110s42 -110 103 -110c59 0 102 43 102 110z" />
    <glyph glyph-name="cid669" unicode="&#x126;" horiz-adv-x="882" 
d="M848 584v-100h-87v-516h-141v290h-358v-290h-141v516h-87v100h87v122h141v-122h358v122h141v-122h87zM620 385v99h-358v-99h358z" />
    <glyph glyph-name="cid670" unicode="&#x132;" horiz-adv-x="896" 
d="M213 706v-738h-141v738h141zM303 102l123 64c23 -48 68 -81 127 -81c85 0 131 61 131 176v445h141v-445c0 -195 -98 -307 -269 -307c-59 0 -111 14 -156 43c-45 28 -77 63 -97 105z" />
    <glyph glyph-name="cid671" unicode="&#x13f;" horiz-adv-x="615" 
d="M213 706v-611h367v-127h-508v738h141zM345 345c0 47 36 81 85 81s86 -34 86 -81c0 -45 -37 -81 -86 -81c-48 0 -85 36 -85 81z" />
    <glyph glyph-name="cid672" unicode="&#x141;" horiz-adv-x="664" 
d="M262 95h367v-127h-508v229l-87 -44v124l87 44v385h141v-313l189 96v-124l-189 -96v-174z" />
    <glyph glyph-name="cid673" unicode="&#xd8;" horiz-adv-x="840" 
d="M795 337c3 -215 -162 -387 -375 -383c-86 0 -161 24 -226 72l-67 -72l-71 67l69 73c-52 65 -80 150 -80 243c-3 217 162 387 375 383c87 0 164 -25 227 -72l67 72l70 -67l-68 -73c51 -65 79 -150 79 -243zM221 196l333 354c-39 27 -84 40 -134 40
c-139 0 -235 -110 -235 -253c0 -52 12 -99 36 -141zM656 337c0 52 -12 99 -36 141l-333 -353c38 -27 82 -40 133 -40c141 0 236 109 236 252z" />
    <glyph glyph-name="cid674" unicode="&#x152;" horiz-adv-x="1097" 
d="M667 95h387v-127h-528c-34 -9 -69 -14 -106 -14c-213 -4 -378 168 -375 383c-3 217 162 387 375 383c37 0 72 -5 106 -14h518v-126h-377v-180h336v-125h-336v-180zM526 112v451c-32 17 -67 25 -106 25c-138 0 -234 -109 -234 -251s96 -251 234 -251c39 0 75 9 106 26z
" />
    <glyph glyph-name="cid675" unicode="&#xba;" horiz-adv-x="517" 
d="M41 506c0 121 92 214 218 214c125 0 217 -93 217 -214c0 -122 -92 -214 -217 -214c-126 0 -218 92 -218 214zM363 506c0 63 -41 109 -104 109s-104 -46 -104 -109s43 -110 104 -110s104 47 104 110z" />
    <glyph glyph-name="cid676" unicode="&#xde;" horiz-adv-x="682" 
d="M644 337c0 -149 -115 -254 -313 -254h-119v-115h-140v738h140v-115h119c198 0 313 -105 313 -254zM505 337c0 84 -57 129 -173 129h-120v-257h120c116 0 173 44 173 128z" />
    <glyph glyph-name="cid677" unicode="&#x166;" horiz-adv-x="674" 
d="M645 579h-237v-215h183v-106h-183v-290h-141v290h-184v106h184v215h-238v127h616v-127z" />
    <glyph glyph-name="cid678" unicode="&#x14a;" horiz-adv-x="775" 
d="M409 -233l31 110c17 -9 37 -13 60 -13c45 0 67 28 67 89v18l-356 502v-505h-139v738h135l358 -505v505h139v-754c0 -137 -66 -209 -179 -209c-47 0 -92 9 -116 24z" />
    <glyph glyph-name="uni3260" unicode="&#x3260;" 
d="M35 337c-4 224 189 419 415 415c226 4 419 -191 415 -415c4 -224 -189 -419 -415 -415c-226 -4 -419 191 -415 415zM815 337c4 198 -166 374 -365 370c-199 4 -369 -172 -365 -370c-4 -198 166 -374 365 -370c199 -4 369 172 365 370zM229 400v91h403v-347h-100v256h-303
z" />
    <glyph glyph-name="uni3261" unicode="&#x3261;" 
d="M35 337c-4 224 189 419 415 415c226 4 419 -191 415 -415c4 -224 -189 -419 -415 -415c-226 -4 -419 191 -415 415zM815 337c4 198 -166 374 -365 370c-199 4 -369 -172 -365 -370c-4 -198 166 -374 365 -370c199 -4 369 172 365 370zM368 531v-257h304v-90h-403v347h99z
" />
    <glyph glyph-name="uni3262" unicode="&#x3262;" 
d="M35 337c-4 224 189 419 415 415c226 4 419 -191 415 -415c4 -224 -189 -419 -415 -415c-226 -4 -419 191 -415 415zM815 337c4 198 -166 374 -365 370c-199 4 -369 -172 -365 -370c-4 -198 166 -374 365 -370c199 -4 369 172 365 370zM653 511v-90h-304v-168h306v-89
h-405v347h403z" />
    <glyph glyph-name="uni3263" unicode="&#x3263;" 
d="M35 337c-4 224 189 419 415 415c226 4 419 -191 415 -415c4 -224 -189 -419 -415 -415c-226 -4 -419 191 -415 415zM815 337c4 198 -166 374 -365 370c-199 4 -369 -172 -365 -370c-4 -198 166 -374 365 -370c199 -4 369 172 365 370zM556 377v52h-305v82h403v-213h-305
v-53h312v-81h-410v213h305z" />
    <glyph glyph-name="uni3264" unicode="&#x3264;" 
d="M35 337c-4 224 189 419 415 415c226 4 419 -191 415 -415c4 -224 -189 -419 -415 -415c-226 -4 -419 191 -415 415zM815 337c4 198 -166 374 -365 370c-199 4 -369 -172 -365 -370c-4 -198 166 -374 365 -370c199 -4 369 172 365 370zM652 511v-347h-403v347h403z
M553 421h-205v-168h205v168z" />
    <glyph glyph-name="uni3265" unicode="&#x3265;" 
d="M865 337c4 -224 -189 -419 -415 -415c-226 -4 -419 191 -415 415c-4 224 189 419 415 415c226 4 419 -191 415 -415zM815 337c4 198 -166 374 -365 370c-199 4 -369 -172 -365 -370c-4 -198 166 -374 365 -370c199 -4 369 172 365 370zM554 415v94h98v-351h-403v351h98
v-94h207zM347 246h207v80h-207v-80z" />
    <glyph glyph-name="uni3266" unicode="&#x3266;" 
d="M35 337c-4 224 189 419 415 415c226 4 419 -191 415 -415c4 -224 -189 -419 -415 -415c-226 -4 -419 191 -415 415zM815 337c4 198 -166 374 -365 370c-199 4 -369 -172 -365 -370c-4 -198 166 -374 365 -370c199 -4 369 172 365 370zM400 508v24h100v-24
c0 -67 18 -122 53 -163c36 -41 81 -65 134 -74l-29 -89c-45 6 -87 24 -127 55c-39 31 -66 67 -81 108c-14 -41 -41 -78 -81 -109c-39 -31 -82 -49 -127 -55l-29 90c54 9 99 33 134 74s53 96 53 163z" />
    <glyph glyph-name="uni3267" unicode="&#x3267;" 
d="M35 337c-4 224 189 419 415 415c226 4 419 -191 415 -415c4 -224 -189 -419 -415 -415c-226 -4 -419 191 -415 415zM815 337c4 198 -166 374 -365 370c-199 4 -369 -172 -365 -370c-4 -198 166 -374 365 -370c199 -4 369 172 365 370zM240 337c0 105 83 186 210 186
s211 -81 211 -186s-84 -186 -211 -186s-210 81 -210 186zM561 337c0 56 -42 99 -111 99s-111 -43 -111 -99s42 -99 111 -99s111 43 111 99z" />
    <glyph glyph-name="uni3268" unicode="&#x3268;" 
d="M865 337c4 -224 -189 -419 -415 -415c-226 -4 -419 191 -415 415c-4 224 189 419 415 415c226 4 419 -191 415 -415zM815 337c4 198 -166 374 -365 370c-199 4 -369 -172 -365 -370c-4 -198 166 -374 365 -370c199 -4 369 172 365 370zM685 258l-26 -90
c-45 3 -87 18 -127 44c-40 27 -67 59 -82 96c-15 -38 -42 -70 -82 -97c-40 -26 -82 -41 -127 -44l-26 91c97 12 171 67 183 163h-163v90h430v-90h-163c12 -96 86 -151 183 -163z" />
    <glyph glyph-name="uni3269" unicode="&#x3269;" 
d="M865 337c4 -224 -189 -419 -415 -415c-226 -4 -419 191 -415 415c-4 224 189 419 415 415c226 4 419 -191 415 -415zM815 337c4 198 -166 374 -365 370c-199 4 -369 -172 -365 -370c-4 -198 166 -374 365 -370c199 -4 369 172 365 370zM685 253l-23 -88
c-45 3 -88 16 -129 39c-41 24 -68 54 -83 90c-14 -36 -42 -66 -83 -90s-83 -37 -128 -40l-24 89c95 8 167 54 182 135h-162v90h163v66h105v-66h163v-90h-162c15 -81 88 -127 181 -135z" />
    <glyph glyph-name="uni326A" unicode="&#x326a;" 
d="M865 337c4 -224 -189 -419 -415 -415c-226 -4 -419 191 -415 415c-4 224 189 419 415 415c226 4 419 -191 415 -415zM815 337c4 198 -166 374 -365 370c-199 4 -369 -172 -365 -370c-4 -198 166 -374 365 -370c199 -4 369 172 365 370zM246 421v90h404v-347h-99v91
l-308 -10l-4 91l312 8v77h-305z" />
    <glyph glyph-name="uni326B" unicode="&#x326b;" 
d="M35 337c-4 224 189 419 415 415c226 4 419 -191 415 -415c4 -224 -189 -419 -415 -415c-226 -4 -419 191 -415 415zM815 337c4 198 -166 374 -365 370c-199 4 -369 -172 -365 -370c-4 -198 166 -374 365 -370c199 -4 369 172 365 370zM655 511v-82h-306v-52h300v-79h-300
v-53h312v-81h-410v347h404z" />
    <glyph glyph-name="uni326C" unicode="&#x326c;" 
d="M865 337c4 -224 -189 -419 -415 -415c-226 -4 -419 191 -415 415c-4 224 189 419 415 415c226 4 419 -191 415 -415zM815 337c4 198 -166 374 -365 370c-199 4 -369 -172 -365 -370c-4 -198 166 -374 365 -370c199 -4 369 172 365 370zM598 424v-174h70v-86h-436v86h70
v174h-67v87h430v-87h-67zM401 424v-174h99v174h-99z" />
    <glyph glyph-name="uni326D" unicode="&#x326d;" 
d="M35 337c-4 224 189 419 415 415c226 4 419 -191 415 -415c4 -224 -189 -419 -415 -415c-226 -4 -419 191 -415 415zM815 337c4 198 -166 374 -365 370c-199 4 -369 -172 -365 -370c-4 -198 166 -374 365 -370c199 -4 369 172 365 370zM398 481v54h105v-54h175v-88h-455
v88h175zM255 251c0 69 71 112 195 112s196 -43 196 -112s-72 -112 -196 -112s-195 43 -195 112zM553 251c0 25 -36 40 -103 40s-102 -15 -102 -40s35 -40 102 -40s103 15 103 40z" />
    <glyph glyph-name="uni326E" unicode="&#x326e;" 
d="M865 337c4 -224 -189 -419 -415 -415c-226 -4 -419 191 -415 415c-4 224 189 419 415 415c226 4 419 -191 415 -415zM815 337c4 198 -166 374 -365 370c-199 4 -369 -172 -365 -370c-4 -198 166 -374 365 -370c199 -4 369 172 365 370zM650 575v-173h55v-92h-55v-215h-88
v480h88zM223 469v87h270v-102c0 -193 -123 -294 -254 -310l-26 83c127 22 190 98 190 227v15h-180z" />
    <glyph glyph-name="uni326F" unicode="&#x326f;" 
d="M865 337c4 -224 -189 -419 -415 -415c-226 -4 -419 191 -415 415c-4 224 189 419 415 415c226 4 419 -191 415 -415zM815 337c4 198 -166 374 -365 370c-199 4 -369 -172 -365 -370c-4 -198 166 -374 365 -370c199 -4 369 172 365 370zM650 575v-173h55v-92h-55v-215h-88
v480h88zM522 266l20 -84c-43 -16 -113 -24 -210 -24h-103v398h90v-312h25c77 0 136 7 178 22z" />
    <glyph glyph-name="uni3270" unicode="&#x3270;" 
d="M865 337c4 -224 -189 -419 -415 -415c-226 -4 -419 191 -415 415c-4 224 189 419 415 415c226 4 419 -191 415 -415zM815 337c4 198 -166 374 -365 370c-199 4 -369 -172 -365 -370c-4 -198 166 -374 365 -370c199 -4 369 172 365 370zM650 575v-173h55v-92h-55v-215h-88
v480h88zM522 265l20 -84c-43 -16 -113 -24 -210 -24h-103v399h278v-87h-188v-227h25c75 0 134 8 178 23z" />
    <glyph glyph-name="uni3271" unicode="&#x3271;" 
d="M865 337c4 -224 -189 -419 -415 -415c-226 -4 -419 191 -415 415c-4 224 189 419 415 415c226 4 419 -191 415 -415zM815 337c4 198 -166 374 -365 370c-199 4 -369 -172 -365 -370c-4 -198 166 -374 365 -370c199 -4 369 172 365 370zM650 575v-173h55v-92h-55v-215h-88
v480h88zM523 262l19 -82c-43 -16 -113 -24 -210 -24h-103v240h174v75h-174v85h263v-242h-174v-74h26c75 0 134 7 179 22z" />
    <glyph glyph-name="uni3272" unicode="&#x3272;" 
d="M865 337c4 -224 -189 -419 -415 -415c-226 -4 -419 191 -415 415c-4 224 189 419 415 415c226 4 419 -191 415 -415zM815 337c4 198 -166 374 -365 370c-199 4 -369 -172 -365 -370c-4 -198 166 -374 365 -370c199 -4 369 172 365 370zM650 575v-173h55v-92h-55v-215h-88
v480h88zM229 157v399h275v-399h-275zM317 470v-228h99v228h-99z" />
    <glyph glyph-name="uni3273" unicode="&#x3273;" 
d="M865 337c4 -224 -189 -419 -415 -415c-226 -4 -419 191 -415 415c-4 224 189 419 415 415c226 4 419 -191 415 -415zM815 337c4 198 -166 374 -365 370c-199 4 -369 -172 -365 -370c-4 -198 166 -374 365 -370c199 -4 369 172 365 370zM650 575v-173h55v-92h-55v-215h-88
v480h88zM416 438v119h88v-400h-275v400h88v-119h99zM317 241h99v113h-99v-113z" />
    <glyph glyph-name="uni3274" unicode="&#x3274;" 
d="M865 337c4 -224 -189 -419 -415 -415c-226 -4 -419 191 -415 415c-4 224 189 419 415 415c226 4 419 -191 415 -415zM815 337c4 198 -166 374 -365 370c-199 4 -369 -172 -365 -370c-4 -198 166 -374 365 -370c199 -4 369 172 365 370zM638 575v-173h55v-92h-55v-215h-88
v480h88zM537 221l-47 -76c-30 12 -58 34 -84 65c-25 32 -40 64 -45 95c-6 -32 -22 -64 -48 -96c-25 -31 -53 -53 -83 -66l-48 77c85 40 133 131 133 274v63h90v-63c0 -144 49 -232 132 -273z" />
    <glyph glyph-name="uni3275" unicode="&#x3275;" 
d="M865 337c4 -224 -189 -419 -415 -415c-226 -4 -419 191 -415 415c-4 224 189 419 415 415c226 4 419 -191 415 -415zM815 337c4 198 -166 374 -365 370c-199 4 -369 -172 -365 -370c-4 -198 166 -374 365 -370c199 -4 369 172 365 370zM642 575v-173h55v-92h-55v-215h-88
v480h88zM502 357c0 -129 -53 -211 -146 -211s-146 82 -146 211s53 209 146 209s146 -80 146 -209zM414 357c0 83 -19 124 -58 124s-58 -41 -58 -124c0 -84 19 -126 58 -126s58 42 58 126z" />
    <glyph glyph-name="uni3276" unicode="&#x3276;" 
d="M865 337c4 -224 -189 -419 -415 -415c-226 -4 -419 191 -415 415c-4 224 189 419 415 415c226 4 419 -191 415 -415zM815 337c4 198 -166 374 -365 370c-199 4 -369 -172 -365 -370c-4 -198 166 -374 365 -370c199 -4 369 172 365 370zM650 575v-173h55v-92h-55v-215h-88
v480h88zM548 222l-43 -77c-28 9 -56 29 -83 58c-27 30 -43 59 -49 88c-7 -29 -24 -59 -51 -89c-26 -29 -53 -49 -82 -59l-45 78c81 33 133 117 133 229v20h-109v86h307v-86h-109v-20c0 -111 51 -195 131 -228z" />
    <glyph glyph-name="uni3277" unicode="&#x3277;" 
d="M865 337c4 -224 -189 -419 -415 -415c-226 -4 -419 191 -415 415c-4 224 189 419 415 415c226 4 419 -191 415 -415zM815 337c4 198 -166 374 -365 370c-199 4 -369 -172 -365 -370c-4 -198 166 -374 365 -370c199 -4 369 172 365 370zM547 220l-40 -78
c-29 9 -58 28 -85 55c-27 28 -44 55 -49 82c-5 -27 -22 -55 -49 -83c-27 -27 -56 -46 -86 -55l-41 79c77 28 131 100 131 197v10h-113v85h112v69h91v-69h112v-85h-113v-10c0 -97 53 -168 130 -197zM650 575v-173h55v-92h-55v-215h-88v480h88z" />
    <glyph glyph-name="uni3278" unicode="&#x3278;" 
d="M865 337c4 -224 -189 -419 -415 -415c-226 -4 -419 191 -415 415c-4 224 189 419 415 415c226 4 419 -191 415 -415zM815 337c4 198 -166 374 -365 370c-199 4 -369 -172 -365 -370c-4 -198 166 -374 365 -370c199 -4 369 172 365 370zM650 575v-173h55v-92h-55v-215h-88
v480h88zM228 472v84h270v-115c0 -206 -133 -287 -253 -303l-26 83c93 15 150 50 172 105l-168 -8l-5 85l189 4c1 17 2 31 2 41v24h-181z" />
    <glyph glyph-name="uni3279" unicode="&#x3279;" 
d="M865 337c4 -224 -189 -419 -415 -415c-226 -4 -419 191 -415 415c-4 224 189 419 415 415c226 4 419 -191 415 -415zM815 337c4 198 -166 374 -365 370c-199 4 -369 -172 -365 -370c-4 -198 166 -374 365 -370c199 -4 369 172 365 370zM650 575v-173h55v-92h-55v-215h-88
v480h88zM523 262l19 -82c-43 -16 -113 -24 -210 -24h-103v400h278v-85h-189v-75h178v-82h-178v-74h26c75 0 134 7 179 22z" />
    <glyph glyph-name="uni327A" unicode="&#x327a;" 
d="M865 337c4 -224 -189 -419 -415 -415c-226 -4 -419 191 -415 415c-4 224 189 419 415 415c226 4 419 -191 415 -415zM815 337c4 198 -166 374 -365 370c-199 4 -369 -172 -365 -370c-4 -198 166 -374 365 -370c199 -4 369 172 365 370zM650 575v-173h55v-92h-55v-215h-88
v480h88zM534 258l19 -79c-43 -16 -113 -24 -211 -24h-134v82h49v236h-43v83h318v-83h-44v-226c20 3 35 7 46 11zM343 237h12c21 0 36 0 46 1v235h-58v-236z" />
    <glyph glyph-name="uni327B" unicode="&#x327b;" 
d="M865 337c4 -224 -189 -419 -415 -415c-226 -4 -419 191 -415 415c-4 224 189 419 415 415c226 4 419 -191 415 -415zM815 337c4 198 -166 374 -365 370c-199 4 -369 -172 -365 -370c-4 -198 166 -374 365 -370c199 -4 369 172 365 370zM416 581v-66h117v-84h-324v84h116
v66h91zM650 575v-173h55v-92h-55v-215h-88v480h88zM512 275c0 -77 -58 -132 -141 -132s-141 55 -141 132s58 131 141 131s141 -54 141 -131zM429 275c0 33 -23 55 -58 55s-58 -22 -58 -55s23 -56 58 -56s58 23 58 56z" />
    <glyph glyph-name="uni24D0" unicode="&#x24d0;" 
d="M865 337c4 -224 -189 -419 -415 -415c-226 -4 -419 191 -415 415c-4 224 189 419 415 415c226 4 419 -191 415 -415zM815 337c4 198 -166 374 -365 370c-199 4 -369 -172 -365 -370c-4 -198 166 -374 365 -370c199 -4 369 172 365 370zM536 471v49h100v-366h-100v49
c-25 -37 -67 -58 -115 -58c-102 0 -178 85 -178 192c0 108 76 193 178 193c49 0 91 -20 115 -59zM536 337c0 64 -40 106 -99 106s-98 -45 -98 -106s39 -106 98 -106s99 43 99 106z" />
    <glyph glyph-name="uni24D1" unicode="&#x24d1;" 
d="M865 337c4 -224 -189 -419 -415 -415c-226 -4 -419 191 -415 415c-4 224 189 419 415 415c226 4 419 -191 415 -415zM815 337c4 198 -166 374 -365 370c-199 4 -369 -172 -365 -370c-4 -198 166 -374 365 -370c199 -4 369 172 365 370zM669 304
c0 -108 -76 -193 -178 -193c-49 0 -91 21 -116 60v-50h-99v471h99v-156c25 40 67 61 116 61c102 0 178 -85 178 -193zM573 304c0 61 -39 105 -98 105s-99 -41 -99 -105s40 -106 99 -106s98 45 98 106z" />
    <glyph glyph-name="uni24D2" unicode="&#x24d2;" 
d="M35 337c-4 224 189 419 415 415c226 4 419 -191 415 -415c4 -224 -189 -419 -415 -415c-226 -4 -419 191 -415 415zM815 337c4 198 -166 374 -365 370c-199 4 -369 -172 -365 -370c-4 -198 166 -374 365 -370c199 -4 369 172 365 370zM265 337c0 111 84 193 196 193
c71 0 130 -32 165 -85l-82 -46c-19 28 -47 43 -83 43c-59 0 -100 -44 -100 -105c0 -60 41 -105 100 -105c35 0 64 16 83 44l82 -46c-35 -53 -94 -85 -165 -85c-112 0 -196 83 -196 192z" />
    <glyph glyph-name="uni24D3" unicode="&#x24d3;" 
d="M865 337c4 -224 -189 -419 -415 -415c-226 -4 -419 191 -415 415c-4 224 189 419 415 415c226 4 419 -191 415 -415zM815 337c4 198 -166 374 -365 370c-199 4 -369 -172 -365 -370c-4 -198 166 -374 365 -370c199 -4 369 172 365 370zM525 438v154h100v-471h-100v49
c-24 -39 -66 -59 -115 -59c-102 0 -178 85 -178 193s76 193 178 193c48 0 90 -22 115 -59zM525 304c0 64 -40 105 -99 105s-98 -44 -98 -105s39 -106 98 -106s99 42 99 106z" />
    <glyph glyph-name="uni24D4" unicode="&#x24d4;" 
d="M865 337c4 -224 -189 -419 -415 -415c-226 -4 -419 191 -415 415c-4 224 189 419 415 415c226 4 419 -191 415 -415zM815 337c4 198 -166 374 -365 370c-199 4 -369 -172 -365 -370c-4 -198 166 -374 365 -370c199 -4 369 172 365 370zM640 345c0 -11 -1 -25 -2 -41h-280
c12 -49 52 -75 105 -75c37 0 71 17 90 44l77 -48c-33 -49 -98 -80 -167 -80c-118 0 -203 82 -203 192c0 111 81 193 190 193c111 0 190 -74 190 -185zM358 371h186c-4 45 -41 76 -93 76c-45 0 -82 -28 -93 -76z" />
    <glyph glyph-name="uni24D5" unicode="&#x24d5;" 
d="M865 337c4 -224 -189 -419 -415 -415c-226 -4 -419 191 -415 415c-4 224 189 419 415 415c226 4 419 -191 415 -415zM815 337c4 198 -166 374 -365 370c-199 4 -369 -172 -365 -370c-4 -198 166 -374 365 -370c199 -4 369 172 365 370zM471 442v-32h121v-87h-121v-238
h-99v238h-77v87h77v32c0 101 48 152 139 152c36 0 71 -9 92 -22l-22 -79c-17 9 -36 13 -55 13c-36 0 -55 -21 -55 -64z" />
    <glyph glyph-name="uni24D6" unicode="&#x24d6;" 
d="M865 337c4 -224 -189 -419 -415 -415c-226 -4 -419 191 -415 415c-4 224 189 419 415 415c226 4 419 -191 415 -415zM815 337c4 198 -166 374 -365 370c-199 4 -369 -172 -365 -370c-4 -198 166 -374 365 -370c199 -4 369 172 365 370zM542 531v44h100v-332
c0 -121 -91 -188 -205 -188c-77 0 -139 34 -174 85l79 49c20 -29 54 -48 95 -48c67 0 105 35 105 102v30c-24 -36 -66 -54 -115 -54c-102 0 -178 80 -178 182c0 105 76 184 178 184c49 0 91 -18 115 -54zM542 401c0 59 -40 97 -99 97s-98 -40 -98 -97c0 -56 39 -95 98 -95
s99 38 99 95z" />
    <glyph glyph-name="uni24D7" unicode="&#x24d7;" 
d="M865 337c4 -224 -189 -419 -415 -415c-226 -4 -419 191 -415 415c-4 224 189 419 415 415c226 4 419 -191 415 -415zM815 337c4 198 -166 374 -365 370c-199 4 -369 -172 -365 -370c-4 -198 166 -374 365 -370c199 -4 369 172 365 370zM649 329v-208h-100v200
c0 59 -27 89 -78 89c-49 0 -87 -39 -87 -99v-190h-100v471h100v-155c20 36 62 59 111 59c97 0 154 -62 154 -167z" />
    <glyph glyph-name="uni24D8" unicode="&#x24d8;" 
d="M35 337c-4 224 189 419 415 415c226 4 419 -191 415 -415c4 -224 -189 -419 -415 -415c-226 -4 -419 191 -415 415zM815 337c4 198 -166 374 -365 370c-199 4 -369 -172 -365 -370c-4 -198 166 -374 365 -370c199 -4 369 172 365 370zM389 550c0 33 26 59 61 59
s62 -26 62 -59c0 -32 -27 -58 -62 -58s-61 26 -61 58zM500 448v-367h-100v367h100z" />
    <glyph glyph-name="uni24D9" unicode="&#x24d9;" 
d="M35 337c-4 224 189 419 415 415c226 4 419 -191 415 -415c4 -224 -189 -419 -415 -415c-226 -4 -419 191 -415 415zM815 337c4 198 -166 374 -365 370c-199 4 -369 -172 -365 -370c-4 -198 166 -374 365 -370c199 -4 369 172 365 370zM422 589c0 33 26 59 61 59
c36 0 62 -26 62 -59c0 -32 -26 -58 -62 -58c-35 0 -61 26 -61 58zM331 50l21 80c13 -5 26 -8 39 -8c28 0 42 17 42 54v311h100v-312c0 -93 -45 -142 -122 -142c-33 0 -64 6 -80 17z" />
    <glyph glyph-name="uni24DA" unicode="&#x24da;" 
d="M865 337c4 -224 -189 -419 -415 -415c-226 -4 -419 191 -415 415c-4 224 189 419 415 415c226 4 419 -191 415 -415zM815 337c4 198 -166 374 -365 370c-199 4 -369 -172 -365 -370c-4 -198 166 -374 365 -370c199 -4 369 172 365 370zM649 487l-161 -183l169 -183h-116
l-147 162v-162h-100v471h100v-266l139 161h116z" />
    <glyph glyph-name="uni24DB" unicode="&#x24db;" 
d="M35 337c-4 224 189 419 415 415c226 4 419 -191 415 -415c4 -224 -189 -419 -415 -415c-226 -4 -419 191 -415 415zM815 337c4 198 -166 374 -365 370c-199 4 -369 -172 -365 -370c-4 -198 166 -374 365 -370c199 -4 369 172 365 370zM500 573v-471h-100v471h100z" />
    <glyph glyph-name="uni24DC" unicode="&#x24dc;" 
d="M865 337c4 -224 -189 -419 -415 -415c-226 -4 -419 191 -415 415c-4 224 189 419 415 415c226 4 419 -191 415 -415zM815 337c4 198 -166 374 -365 370c-199 4 -369 -172 -365 -370c-4 -198 166 -374 365 -370c199 -4 369 172 365 370zM750 365v-208h-99v201
c0 56 -25 88 -69 88c-45 0 -79 -40 -79 -99v-190h-100v201c0 56 -24 88 -68 88c-45 0 -79 -40 -79 -99v-190h-100v366h100v-50c21 36 59 60 103 60c56 0 98 -25 122 -70c25 44 67 70 123 70c93 0 146 -64 146 -168z" />
    <glyph glyph-name="uni24DD" unicode="&#x24dd;" 
d="M865 337c4 -224 -189 -419 -415 -415c-226 -4 -419 191 -415 415c-4 224 189 419 415 415c226 4 419 -191 415 -415zM815 337c4 198 -166 374 -365 370c-199 4 -369 -172 -365 -370c-4 -198 166 -374 365 -370c199 -4 369 172 365 370zM640 365v-208h-99v201
c0 57 -27 88 -78 88c-49 0 -87 -39 -87 -99v-190h-100v366h100v-50c20 36 62 60 111 60c97 0 153 -63 153 -168z" />
    <glyph glyph-name="uni24DE" unicode="&#x24de;" 
d="M35 337c-4 224 189 419 415 415c226 4 419 -191 415 -415c4 -224 -189 -419 -415 -415c-226 -4 -419 191 -415 415zM815 337c4 198 -166 374 -365 370c-199 4 -369 -172 -365 -370c-4 -198 166 -374 365 -370c199 -4 369 172 365 370zM254 337c0 111 84 193 196 193
s196 -82 196 -193c0 -109 -84 -192 -196 -192s-196 83 -196 192zM550 337c0 61 -40 105 -100 105c-59 0 -100 -44 -100 -105c0 -60 41 -105 100 -105s100 45 100 105z" />
    <glyph glyph-name="uni24DF" unicode="&#x24df;" 
d="M865 337c4 -224 -189 -419 -415 -415c-226 -4 -419 191 -415 415c-4 224 189 419 415 415c226 4 419 -191 415 -415zM815 337c4 198 -166 374 -365 370c-199 4 -369 -172 -365 -370c-4 -198 166 -374 365 -370c199 -4 369 172 365 370zM669 369
c0 -107 -76 -192 -178 -192c-49 0 -91 21 -116 60v-156h-99v472h99v-51c25 40 67 61 116 61c102 0 178 -85 178 -194zM573 369c0 63 -39 106 -98 106s-99 -42 -99 -106c0 -63 40 -105 99 -105s98 44 98 105z" />
    <glyph glyph-name="uni24E0" unicode="&#x24e0;" 
d="M865 337c4 -224 -189 -419 -415 -415c-226 -4 -419 191 -415 415c-4 224 189 419 415 415c226 4 419 -191 415 -415zM815 337c4 198 -166 374 -365 370c-199 4 -369 -172 -365 -370c-4 -198 166 -374 365 -370c199 -4 369 172 365 370zM525 504v49h100v-472h-100v155
c-24 -39 -66 -59 -115 -59c-102 0 -178 85 -178 192c0 109 76 194 178 194c48 0 90 -22 115 -59zM525 369c0 64 -40 106 -99 106s-98 -43 -98 -106c0 -61 39 -105 98 -105s99 42 99 105z" />
    <glyph glyph-name="uni24E1" unicode="&#x24e1;" 
d="M865 337c4 -224 -189 -419 -415 -415c-226 -4 -419 191 -415 415c-4 224 189 419 415 415c226 4 419 -191 415 -415zM815 337c4 198 -166 374 -365 370c-199 4 -369 -172 -365 -370c-4 -198 166 -374 365 -370c199 -4 369 172 365 370zM548 511c16 0 30 -2 42 -6v-92
c-13 4 -27 6 -44 6c-57 0 -97 -40 -97 -97v-184h-100v366h100v-58c17 39 55 65 99 65z" />
    <glyph glyph-name="uni24E2" unicode="&#x24e2;" 
d="M35 337c-4 224 189 419 415 415c226 4 419 -191 415 -415c4 -224 -189 -419 -415 -415c-226 -4 -419 191 -415 415zM815 337c4 198 -166 374 -365 370c-199 4 -369 -172 -365 -370c-4 -198 166 -374 365 -370c199 -4 369 172 365 370zM276 231l75 44
c19 -29 56 -52 103 -52c45 0 76 12 76 32c0 21 -14 30 -69 42l-53 12c-76 17 -113 50 -113 105c0 71 66 115 161 115c73 0 137 -35 164 -79l-74 -42c-16 24 -53 44 -92 44c-40 0 -66 -12 -66 -32s16 -29 69 -41l53 -12c77 -17 114 -50 114 -107c0 -69 -72 -115 -172 -115
c-81 0 -147 39 -176 86z" />
    <glyph glyph-name="uni24E3" unicode="&#x24e3;" 
d="M865 337c4 -224 -189 -419 -415 -415c-226 -4 -419 191 -415 415c-4 224 189 419 415 415c226 4 419 -191 415 -415zM815 337c4 198 -166 374 -365 370c-199 4 -369 -172 -365 -370c-4 -198 166 -374 365 -370c199 -4 369 172 365 370zM574 207l22 -79
c-21 -15 -56 -23 -91 -23c-91 0 -140 51 -140 152v135h-77v87h77v97h100v-97h118v-87h-118v-134c0 -43 18 -65 54 -65c18 0 36 5 55 14z" />
    <glyph glyph-name="uni24E4" unicode="&#x24e4;" 
d="M865 337c4 -224 -189 -419 -415 -415c-226 -4 -419 191 -415 415c-4 224 189 419 415 415c226 4 419 -191 415 -415zM815 337c4 198 -166 374 -365 370c-199 4 -369 -172 -365 -370c-4 -198 166 -374 365 -370c199 -4 369 172 365 370zM525 326v190h99v-366h-99v50
c-21 -36 -63 -60 -111 -60c-97 0 -154 64 -154 169v207h100v-201c0 -57 26 -87 77 -87s88 38 88 98z" />
    <glyph glyph-name="uni24E5" unicode="&#x24e5;" 
d="M35 337c-4 224 189 419 415 415c226 4 419 -191 415 -415c4 -224 -189 -419 -415 -415c-226 -4 -419 191 -415 415zM815 337c4 198 -166 374 -365 370c-199 4 -369 -172 -365 -370c-4 -198 166 -374 365 -370c199 -4 369 172 365 370zM351 502l100 -245l101 245h105
l-156 -366h-101l-157 366h108z" />
    <glyph glyph-name="uni24E6" unicode="&#x24e6;" 
d="M35 337c-4 224 189 419 415 415c226 4 419 -191 415 -415c4 -224 -189 -419 -415 -415c-226 -4 -419 191 -415 415zM815 337c4 198 -166 374 -365 370c-199 4 -369 -172 -365 -370c-4 -198 166 -374 365 -370c199 -4 369 172 365 370zM260 502l73 -243l73 239h91l72 -239
l74 243h105l-126 -366h-100l-72 219l-72 -219h-99l-127 366h108z" />
    <glyph glyph-name="uni24E7" unicode="&#x24e7;" 
d="M35 337c-4 224 189 419 415 415c226 4 419 -191 415 -415c4 -224 -189 -419 -415 -415c-226 -4 -419 191 -415 415zM815 337c4 198 -166 374 -365 370c-199 4 -369 -172 -365 -370c-4 -198 166 -374 365 -370c199 -4 369 172 365 370zM247 520h115l89 -113l90 113h112
l-147 -182l149 -184h-115l-91 116l-91 -116h-113l149 184z" />
    <glyph glyph-name="uni24E8" unicode="&#x24e8;" 
d="M865 337c4 -224 -189 -419 -415 -415c-226 -4 -419 191 -415 415c-4 224 189 419 415 415c226 4 419 -191 415 -415zM815 337c4 198 -166 374 -365 370c-199 4 -369 -172 -365 -370c-4 -198 166 -374 365 -370c199 -4 369 172 365 370zM473 323l98 245h105l-157 -372
c-47 -109 -100 -148 -167 -148c-29 0 -62 8 -85 19l22 81c15 -7 33 -11 54 -11c37 0 60 15 79 60l2 5l-161 366h107z" />
    <glyph glyph-name="uni24E9" unicode="&#x24e9;" 
d="M35 337c-4 224 189 419 415 415c226 4 419 -191 415 -415c4 -224 -189 -419 -415 -415c-226 -4 -419 191 -415 415zM815 337c4 198 -166 374 -365 370c-199 4 -369 -172 -365 -370c-4 -198 166 -374 365 -370c199 -4 369 172 365 370zM482 434h-196v86h329v-80l-202 -200
h208v-86h-342v80z" />
    <glyph glyph-name="uni2460" unicode="&#x2460;" 
d="M35 337c-4 224 189 419 415 415c226 4 419 -191 415 -415c4 -224 -189 -419 -415 -415c-226 -4 -419 191 -415 415zM815 337c4 198 -166 374 -365 370c-199 4 -369 -172 -365 -370c-4 -198 166 -374 365 -370c199 -4 369 172 365 370zM425 235v209l-97 -28l-30 83l143 46
h87v-310h102v-89h-330v89h125z" />
    <glyph glyph-name="uni2461" unicode="&#x2461;" 
d="M35 337c-4 224 189 419 415 415c226 4 419 -191 415 -415c4 -224 -189 -419 -415 -415c-226 -4 -419 191 -415 415zM815 337c4 198 -166 374 -365 370c-199 4 -369 -172 -365 -370c-4 -198 166 -374 365 -370c199 -4 369 172 365 370zM501 426c0 25 -22 41 -55 41
c-31 0 -57 -15 -70 -39l-88 43c28 51 86 83 162 83c89 0 153 -51 153 -123c0 -47 -22 -80 -81 -129l-79 -66h179v-89h-320v82l142 121c43 36 57 55 57 76z" />
    <glyph glyph-name="uni2462" unicode="&#x2462;" 
d="M35 337c-4 224 189 419 415 415c226 4 419 -191 415 -415c4 -224 -189 -419 -415 -415c-226 -4 -419 191 -415 415zM815 337c4 198 -166 374 -365 370c-199 4 -369 -172 -365 -370c-4 -198 166 -374 365 -370c199 -4 369 172 365 370zM278 210l91 44
c16 -28 43 -42 81 -42c41 0 67 18 67 47c0 31 -20 44 -75 44h-34l-38 65l102 78h-172v88h302v-84l-115 -86h16c68 0 117 -41 117 -106c0 -76 -70 -131 -170 -131c-79 0 -144 32 -172 83z" />
    <glyph glyph-name="uni2463" unicode="&#x2463;" 
d="M35 337c-4 224 189 419 415 415c226 4 419 -191 415 -415c4 -224 -189 -419 -415 -415c-226 -4 -419 191 -415 415zM815 337c4 198 -166 374 -365 370c-199 4 -369 -172 -365 -370c-4 -198 166 -374 365 -370c199 -4 369 172 365 370zM249 220v78l206 249h101v-244h57
v-83h-57v-79h-96v79h-211zM460 433l-108 -130h108v130z" />
    <glyph glyph-name="uni2464" unicode="&#x2464;" 
d="M35 337c-4 224 189 419 415 415c226 4 419 -191 415 -415c4 -224 -189 -419 -415 -415c-226 -4 -419 191 -415 415zM815 337c4 198 -166 374 -365 370c-199 4 -369 -172 -365 -370c-4 -198 166 -374 365 -370c199 -4 369 172 365 370zM276 210l91 44
c16 -28 43 -42 81 -42c41 0 67 19 67 50c0 33 -24 47 -84 47h-123l12 225h281v-88h-189l-4 -57h42c107 0 168 -49 168 -128s-70 -134 -171 -134c-77 0 -143 32 -171 83z" />
    <glyph glyph-name="uni2465" unicode="&#x2465;" 
d="M35 337c-4 224 189 419 415 415c226 4 419 -191 415 -415c4 -224 -189 -419 -415 -415c-226 -4 -419 191 -415 415zM815 337c4 198 -166 374 -365 370c-199 4 -369 -172 -365 -370c-4 -198 166 -374 365 -370c199 -4 369 172 365 370zM280 280c0 35 14 71 42 108l117 157
h110l-103 -135c7 3 14 5 22 5c80 0 153 -58 153 -135c0 -83 -75 -142 -171 -142s-170 59 -170 142zM522 280c0 35 -28 60 -72 60c-43 0 -71 -25 -71 -60c0 -36 27 -60 71 -60s72 24 72 60z" />
    <glyph glyph-name="uni2466" unicode="&#x2466;" 
d="M35 337c-4 224 189 419 415 415c226 4 419 -191 415 -415c4 -224 -189 -419 -415 -415c-226 -4 -419 191 -415 415zM815 337c4 198 -166 374 -365 370c-199 4 -369 -172 -365 -370c-4 -198 166 -374 365 -370c199 -4 369 172 365 370zM293 437v92h322v-88l-162 -311h-114
l161 307h-207z" />
    <glyph glyph-name="uni2467" unicode="&#x2467;" 
d="M35 337c-4 224 189 419 415 415c226 4 419 -191 415 -415c4 -224 -189 -419 -415 -415c-226 -4 -419 191 -415 415zM815 337c4 198 -166 374 -365 370c-199 4 -369 -172 -365 -370c-4 -198 166 -374 365 -370c199 -4 369 172 365 370zM279 242c0 45 32 81 77 97
c-37 16 -61 47 -61 87c0 67 64 112 155 112c92 0 156 -45 156 -112c0 -40 -24 -71 -61 -87c45 -16 77 -52 77 -97c0 -71 -72 -119 -172 -119c-49 0 -90 11 -123 33c-32 22 -48 51 -48 86zM514 419c0 27 -24 43 -64 43c-39 0 -63 -16 -63 -43s24 -44 63 -44c40 0 64 17 64 44
zM528 248c0 29 -31 48 -78 48s-77 -19 -77 -48s32 -49 77 -49c47 0 78 20 78 49z" />
    <glyph glyph-name="uni2468" unicode="&#x2468;" 
d="M35 337c-4 224 189 419 415 415c226 4 419 -191 415 -415c4 -224 -189 -419 -415 -415c-226 -4 -419 191 -415 415zM815 337c4 198 -166 374 -365 370c-199 4 -369 -172 -365 -370c-4 -198 166 -374 365 -370c199 -4 369 172 365 370zM432 260c-81 0 -152 58 -152 135
c0 81 75 142 170 142c96 0 171 -61 171 -142c0 -35 -14 -71 -42 -108l-117 -157h-111l103 135c-5 -3 -13 -5 -22 -5zM522 395c0 35 -28 60 -72 60c-43 0 -71 -25 -71 -60c0 -36 27 -60 71 -60s72 24 72 60z" />
    <glyph glyph-name="uni2469" unicode="&#x2469;" 
d="M35 337c-4 224 189 419 415 415c226 4 419 -191 415 -415c4 -224 -189 -419 -415 -415c-226 -4 -419 191 -415 415zM815 337c4 198 -166 374 -365 370c-199 4 -369 -172 -365 -370c-4 -198 166 -374 365 -370c199 -4 369 172 365 370zM271 235v207l-73 -26l-24 82l113 47
h75v-310h69v-89h-247v89h87zM455 337c0 127 53 208 141 208s141 -81 141 -208s-53 -207 -141 -207c-87 0 -141 80 -141 207zM649 337c0 77 -18 116 -53 116s-53 -39 -53 -116s18 -115 53 -115s53 38 53 115z" />
    <glyph glyph-name="uni246A" unicode="&#x246a;" 
d="M35 337c-4 224 189 419 415 415c226 4 419 -191 415 -415c4 -224 -189 -419 -415 -415c-226 -4 -419 191 -415 415zM815 337c4 198 -166 374 -365 370c-199 4 -369 -172 -365 -370c-4 -198 166 -374 365 -370c199 -4 369 172 365 370zM289 235v207l-73 -26l-24 82l113 47
h75v-310h69v-89h-247v89h87zM575 235v207l-73 -26l-24 82l113 47h75v-310h69v-89h-247v89h87z" />
    <glyph glyph-name="uni246B" unicode="&#x246b;" 
d="M35 337c-4 224 189 419 415 415c226 4 419 -191 415 -415c4 -224 -189 -419 -415 -415c-226 -4 -419 191 -415 415zM815 337c4 198 -166 374 -365 370c-199 4 -369 -172 -365 -370c-4 -198 166 -374 365 -370c199 -4 369 172 365 370zM623 427c0 25 -16 40 -41 40
c-23 0 -42 -18 -54 -43l-78 47c23 49 75 83 136 83c73 0 128 -51 128 -123c0 -45 -19 -77 -66 -129l-63 -66h144v-89h-264v82l112 121c35 36 46 54 46 77zM271 235v207l-73 -26l-24 82l113 47h75v-310h69v-89h-247v89h87z" />
    <glyph glyph-name="uni246C" unicode="&#x246c;" 
d="M35 337c-4 224 189 419 415 415c226 4 419 -191 415 -415c4 -224 -189 -419 -415 -415c-226 -4 -419 191 -415 415zM815 337c4 198 -166 374 -365 370c-199 4 -369 -172 -365 -370c-4 -198 166 -374 365 -370c199 -4 369 172 365 370zM271 235v207l-73 -26l-24 82l113 47
h75v-310h69v-89h-247v89h87zM448 208l80 48c13 -29 34 -44 61 -44c31 0 50 18 50 47s-20 44 -59 44h-32l-30 65l84 78h-137v88h248v-84l-95 -86h13c56 0 98 -42 98 -106c0 -76 -57 -131 -140 -131c-65 0 -118 30 -141 81z" />
    <glyph glyph-name="uni246D" unicode="&#x246d;" 
d="M35 337c-4 224 189 419 415 415c226 4 419 -191 415 -415c4 -224 -189 -419 -415 -415c-226 -4 -419 191 -415 415zM815 337c4 198 -166 374 -365 370c-199 4 -369 -172 -365 -370c-4 -198 166 -374 365 -370c199 -4 369 172 365 370zM448 220v78l164 249h89v-244h42v-83
h-42v-79h-84v79h-169zM271 235v207l-73 -26l-24 82l113 47h75v-310h69v-89h-247v89h87zM617 422l-80 -119h80v119z" />
    <glyph glyph-name="uni246E" unicode="&#x246e;" 
d="M35 337c-4 224 189 419 415 415c226 4 419 -191 415 -415c4 -224 -189 -419 -415 -415c-226 -4 -419 191 -415 415zM815 337c4 198 -166 374 -365 370c-199 4 -369 -172 -365 -370c-4 -198 166 -374 365 -370c199 -4 369 172 365 370zM271 235v207l-73 -26l-24 82l113 47
h75v-310h69v-89h-247v89h87zM448 208l80 48c13 -29 34 -44 61 -44c31 0 50 19 50 50c0 32 -20 47 -65 47h-101l10 225h233v-88h-150l-3 -57h29c85 0 137 -49 137 -128s-57 -134 -140 -134c-65 0 -118 30 -141 81z" />
    <glyph glyph-name="cid748" unicode="&#xbd;" horiz-adv-x="971" 
d="M165 402v209l-97 -28l-30 83l143 46h87v-310h102v-89h-330v89h125zM807 706l-495 -738h-113l495 738h113zM818 242c0 24 -22 41 -55 41c-31 0 -55 -16 -70 -40l-87 44c27 49 86 83 161 83c45 0 81 -12 110 -35s44 -53 44 -88c0 -47 -22 -80 -81 -129l-79 -67h179v-89
h-320v83l141 121c43 36 57 55 57 76z" />
    <glyph glyph-name="uni2153" unicode="&#x2153;" horiz-adv-x="988" 
d="M165 402v209l-97 -28l-30 83l143 46h87v-310h102v-89h-330v89h125zM807 706l-495 -738h-113l495 738h113zM615 38l91 44c16 -28 43 -42 81 -42c41 0 67 18 67 47c0 31 -22 44 -75 44h-35l-38 65l103 78h-172v88h301v-84l-115 -86h16c68 0 118 -42 118 -106
c0 -76 -70 -132 -171 -132c-79 0 -143 32 -171 84z" />
    <glyph glyph-name="uni2154" unicode="&#x2154;" horiz-adv-x="977" 
d="M236 592c0 24 -22 41 -55 41c-31 0 -55 -16 -70 -40l-87 44c27 49 86 83 161 83c45 0 81 -12 110 -35s44 -53 44 -88c0 -47 -22 -80 -81 -129l-79 -67h179v-88h-320v82l141 121c43 36 57 55 57 76zM796 706l-495 -738h-113l495 738h113zM604 38l91 44
c16 -28 43 -42 81 -42c41 0 67 18 67 47c0 31 -22 44 -75 44h-35l-38 65l103 78h-172v88h301v-84l-115 -86h16c68 0 118 -42 118 -106c0 -76 -70 -132 -171 -132c-79 0 -143 32 -171 84z" />
    <glyph glyph-name="cid751" unicode="&#xbc;" horiz-adv-x="909" 
d="M165 402v209l-97 -28l-30 83l143 46h87v-310h102v-89h-330v89h125zM807 706l-495 -738h-113l495 738h113zM534 42v78l206 249h101v-244h58v-83h-58v-80h-95v80h-212zM746 255l-109 -130h109v130z" />
    <glyph glyph-name="cid752" unicode="&#xbe;" horiz-adv-x="859" 
d="M16 388l91 44c16 -28 43 -42 81 -42c41 0 67 18 67 47c0 31 -22 44 -75 44h-35l-38 65l103 78h-172v88h301v-84l-115 -86h17c68 0 117 -42 117 -106c0 -76 -70 -131 -170 -131c-79 0 -144 32 -172 83zM757 706l-495 -738h-113l495 738h113zM484 42v78l206 249h101v-244
h58v-83h-58v-80h-95v80h-212zM696 255l-109 -130h109v130z" />
    <glyph glyph-name="cid753" unicode="&#x215b;" horiz-adv-x="961" 
d="M165 402v209l-97 -28l-30 83l143 46h87v-310h102v-89h-330v89h125zM807 706l-495 -738h-113l495 738h113zM594 74c0 44 32 81 77 96c-37 17 -61 47 -61 87c0 68 64 113 156 113s156 -45 156 -113c0 -40 -24 -70 -61 -87c45 -15 77 -52 77 -96c0 -71 -72 -120 -172 -120
s-172 49 -172 120zM830 250c0 27 -24 44 -64 44s-64 -17 -64 -44s24 -43 64 -43s64 16 64 43zM843 79c0 29 -32 49 -77 49c-47 0 -77 -20 -77 -49s30 -48 77 -48s77 19 77 48z" />
    <glyph glyph-name="cid754" unicode="&#x215c;" horiz-adv-x="910" 
d="M16 388l91 44c16 -28 43 -42 81 -42c41 0 67 18 67 47c0 31 -22 44 -75 44h-35l-38 65l103 78h-172v88h301v-84l-115 -86h17c68 0 117 -42 117 -106c0 -76 -70 -131 -170 -131c-79 0 -144 32 -172 83zM757 706l-495 -738h-113l495 738h113zM544 74c0 44 32 81 77 96
c-37 16 -61 47 -61 87c0 68 64 113 155 113c92 0 156 -45 156 -113c0 -40 -24 -71 -61 -87c45 -15 77 -52 77 -96c0 -71 -72 -120 -172 -120c-49 0 -90 11 -123 34c-32 22 -48 51 -48 86zM779 250c0 27 -24 44 -64 44c-39 0 -63 -17 -63 -44s24 -43 63 -43c40 0 64 16 64 43
zM793 79c0 29 -31 49 -78 49c-45 0 -77 -20 -77 -49s30 -48 77 -48s78 19 78 48z" />
    <glyph glyph-name="cid755" unicode="&#x215d;" horiz-adv-x="910" 
d="M16 388l91 44c16 -28 43 -42 81 -42c41 0 67 19 67 50c0 33 -24 47 -84 47h-123l12 225h281v-88h-189l-4 -57h42c107 0 168 -49 168 -128s-70 -134 -170 -134c-79 0 -144 32 -172 83zM757 706l-495 -738h-113l495 738h113zM544 74c0 44 32 81 77 96c-37 16 -61 47 -61 87
c0 68 64 113 155 113c92 0 156 -45 156 -113c0 -40 -24 -71 -61 -87c45 -15 77 -52 77 -96c0 -71 -72 -120 -172 -120c-49 0 -90 11 -123 34c-32 22 -48 51 -48 86zM779 250c0 27 -24 44 -64 44c-39 0 -63 -17 -63 -44s24 -43 63 -43c40 0 64 16 64 43zM793 79
c0 29 -31 49 -78 49c-45 0 -77 -20 -77 -49s30 -48 77 -48s78 19 78 48z" />
    <glyph glyph-name="cid756" unicode="&#x215e;" horiz-adv-x="849" 
d="M27 620v92h322v-88l-163 -311h-114l162 307h-207zM695 706l-495 -738h-113l495 738h113zM482 74c0 44 32 81 77 96c-37 17 -61 47 -61 87c0 68 64 113 156 113s156 -45 156 -113c0 -40 -24 -70 -61 -87c45 -15 77 -52 77 -96c0 -71 -72 -120 -172 -120s-172 49 -172 120z
M718 250c0 27 -24 44 -64 44s-64 -17 -64 -44s24 -43 64 -43s64 16 64 43zM731 79c0 29 -32 49 -77 49c-47 0 -77 -20 -77 -49s30 -48 77 -48s77 19 77 48z" />
    <glyph glyph-name="cid757" unicode="&#xe6;" horiz-adv-x="1115" 
d="M1071 190h-434c17 -77 82 -121 169 -121c64 0 119 28 147 69l105 -66c-47 -71 -141 -118 -245 -118c-97 0 -166 30 -209 90v-76h-126v76c-36 -59 -100 -90 -175 -90c-150 0 -262 124 -262 283c-2 157 113 286 262 283c75 0 139 -30 175 -89v75h126v-75
c41 59 105 89 192 89c160 0 278 -111 278 -270c0 -23 -1 -43 -3 -60zM637 286h305c-7 73 -64 122 -152 122c-76 0 -136 -45 -153 -122zM478 237c0 99 -64 164 -153 164c-45 0 -82 -16 -111 -47c-28 -31 -42 -70 -42 -117c0 -93 62 -164 153 -164c89 0 153 65 153 164z" />
    <glyph glyph-name="cid758" unicode="&#x111;" horiz-adv-x="682" 
d="M688 648v-90h-73v-590h-137v74c-36 -57 -100 -88 -175 -88c-150 0 -262 123 -262 279c-2 155 113 282 262 279c75 0 139 -31 175 -87v133h-146v90h146v71h137v-71h73zM478 233c0 96 -64 160 -153 160c-45 0 -82 -15 -111 -46c-28 -30 -42 -68 -42 -114s14 -84 42 -115
c29 -30 66 -45 111 -45c89 0 153 64 153 160z" />
    <glyph glyph-name="cid759" unicode="&#xf0;" horiz-adv-x="650" 
d="M608 214c0 -149 -120 -260 -283 -260s-283 111 -283 260c0 141 117 247 258 247c23 0 40 -3 52 -9l-63 87l-132 -47l-33 76l115 41l-70 97h156l38 -53l132 47l33 -76l-116 -41l122 -172c53 -76 74 -130 74 -197zM477 214c0 81 -61 141 -152 141c-89 0 -152 -60 -152 -141
s63 -142 152 -142c91 0 152 59 152 142z" />
    <glyph glyph-name="cid760" unicode="&#x127;" horiz-adv-x="662" 
d="M599 264v-296h-137v286c0 92 -42 139 -121 139s-137 -61 -137 -152v-273h-136v590h-74v90h74v71h136v-71h147v-90h-147v-137c31 55 93 91 169 91c140 0 226 -91 226 -248z" />
    <glyph glyph-name="dotlessi" unicode="&#x131;" horiz-adv-x="272" 
d="M204 506v-538h-136v538h136z" />
    <glyph glyph-name="cid762" unicode="&#x133;" horiz-adv-x="543" 
d="M51 659c0 45 36 81 85 81c48 0 85 -36 85 -81c0 -47 -36 -81 -85 -81s-85 34 -85 81zM322 659c0 45 37 81 85 81c49 0 86 -36 86 -81c0 -47 -37 -81 -86 -81s-85 34 -85 81zM204 506v-538h-136v538h136zM181 -233l31 110c17 -9 37 -13 60 -13c45 0 67 28 67 89v553h137
v-554c0 -137 -66 -209 -179 -209c-47 0 -92 9 -116 24z" />
    <glyph glyph-name="cid763" unicode="&#x138;" horiz-adv-x="592" 
d="M589 -32h-162l-223 242v-242h-136v538h136v-239l211 239h161l-241 -268z" />
    <glyph glyph-name="cid764" unicode="&#x140;" horiz-adv-x="473" 
d="M204 719v-751h-136v751h136zM285 333c0 45 36 81 85 81c48 0 85 -36 85 -81c0 -47 -36 -81 -85 -81s-85 34 -85 81z" />
    <glyph glyph-name="cid765" unicode="&#x142;" horiz-adv-x="352" 
d="M320 477v-120l-76 -39v-350h-136v282l-76 -39v120l76 39v349h136v-281z" />
    <glyph glyph-name="cid766" unicode="&#xf8;" horiz-adv-x="654" 
d="M327 520c65 0 122 -17 170 -52l51 52l57 -56l-50 -51c37 -48 58 -108 58 -176c0 -161 -121 -283 -286 -283c-64 0 -121 17 -170 52l-50 -52l-58 57l50 51c-39 49 -58 108 -58 175c-3 159 125 285 286 283zM191 152l221 226c-25 15 -53 23 -85 23
c-93 0 -157 -71 -157 -164c0 -31 7 -60 21 -85zM327 73c93 0 157 71 157 164c0 33 -7 61 -21 85l-221 -225c25 -16 54 -24 85 -24z" />
    <glyph glyph-name="cid767" unicode="&#x153;" horiz-adv-x="1083" 
d="M1039 190h-421c17 -77 80 -119 163 -119c57 0 112 26 140 67l105 -66c-47 -71 -141 -118 -245 -118c-96 0 -178 37 -231 100c-52 -63 -131 -100 -223 -100c-161 -2 -289 124 -286 283c-3 159 125 285 286 283c91 0 169 -37 221 -98c51 61 128 98 216 98
c160 0 278 -111 278 -270c0 -23 -1 -43 -3 -60zM618 286h292c-5 71 -64 120 -145 120c-72 0 -130 -44 -147 -120zM483 237c0 92 -63 163 -156 163c-92 0 -155 -71 -155 -163c0 -47 14 -85 43 -116s66 -46 112 -46s83 15 112 46s44 69 44 116z" />
    <glyph glyph-name="cid768" unicode="&#xdf;" horiz-adv-x="713" 
d="M252 -10l44 117c33 -21 71 -32 115 -32c75 0 126 47 126 111c0 81 -64 127 -176 127h-55v118h46c73 0 121 44 121 115c0 64 -52 111 -128 111c-91 0 -141 -46 -141 -130v-559h-136v561c0 159 99 248 275 248c159 0 265 -96 265 -223c0 -93 -51 -162 -134 -174
c108 -4 198 -76 198 -193c0 -137 -105 -233 -262 -233c-63 0 -119 13 -158 36z" />
    <glyph glyph-name="cid769" unicode="&#xfe;" horiz-adv-x="682" 
d="M641 237c3 -157 -112 -285 -262 -283c-76 0 -139 32 -175 91v-290h-136v964h136v-289c36 59 100 90 175 90c150 3 265 -126 262 -283zM511 237c0 47 -14 86 -43 117s-66 47 -111 47c-89 0 -152 -65 -152 -164s63 -164 152 -164c91 0 154 71 154 164z" />
    <glyph glyph-name="cid770" unicode="&#x167;" horiz-adv-x="493" 
d="M439 96l30 -109c-31 -20 -83 -33 -132 -33c-133 0 -203 76 -203 224v13h-91v95h91v101h-115v119h115v143h136v-143h179v-119h-179v-101h155v-95h-155v-12c0 -68 29 -104 85 -104c30 0 58 7 84 21z" />
    <glyph glyph-name="cid771" unicode="&#x14b;" horiz-adv-x="662" 
d="M599 272v-320c0 -137 -66 -209 -179 -209c-47 0 -92 9 -116 24l31 110c17 -9 37 -13 60 -13c45 0 67 28 67 89v309c0 92 -42 139 -121 139c-77 0 -134 -58 -137 -146v-287h-136v538h136v-77c31 55 93 91 169 91c140 0 226 -91 226 -248z" />
    <glyph glyph-name="cid772" unicode="&#x149;" horiz-adv-x="798" 
d="M31 479l15 227h130l-39 -227h-106zM734 272v-304h-136v294c0 92 -42 139 -121 139c-80 0 -137 -60 -137 -152v-281h-137v538h137v-77c29 55 92 91 168 91c140 0 226 -91 226 -248z" />
    <glyph glyph-name="uni3200" unicode="&#x3200;" 
d="M35 337c0 152 65 290 169 385l37 -33c-99 -88 -155 -213 -155 -352c0 -137 56 -263 155 -352l-37 -33c-104 95 -169 233 -169 385zM814 337c0 139 -56 264 -155 352l37 33c104 -95 169 -233 169 -385s-65 -290 -169 -385l-37 33c99 89 155 215 155 352zM229 400v91h403
v-347h-100v256h-303z" />
    <glyph glyph-name="uni3201" unicode="&#x3201;" 
d="M35 337c0 152 65 290 169 385l37 -33c-99 -88 -155 -213 -155 -352c0 -137 56 -263 155 -352l-37 -33c-104 95 -169 233 -169 385zM814 337c0 139 -56 264 -155 352l37 33c104 -95 169 -233 169 -385s-65 -290 -169 -385l-37 33c99 89 155 215 155 352zM368 531v-257h304
v-90h-403v347h99z" />
    <glyph glyph-name="uni3202" unicode="&#x3202;" 
d="M35 337c0 152 65 290 169 385l37 -33c-99 -88 -155 -213 -155 -352c0 -137 56 -263 155 -352l-37 -33c-104 95 -169 233 -169 385zM814 337c0 139 -56 264 -155 352l37 33c104 -95 169 -233 169 -385s-65 -290 -169 -385l-37 33c99 89 155 215 155 352zM653 511v-90h-304
v-168h306v-89h-405v347h403z" />
    <glyph glyph-name="uni3203" unicode="&#x3203;" 
d="M35 337c0 152 65 290 169 385l37 -33c-99 -88 -155 -213 -155 -352c0 -137 56 -263 155 -352l-37 -33c-104 95 -169 233 -169 385zM814 337c0 139 -56 264 -155 352l37 33c104 -95 169 -233 169 -385s-65 -290 -169 -385l-37 33c99 89 155 215 155 352zM556 377v52h-305
v82h403v-213h-305v-53h312v-81h-410v213h305z" />
    <glyph glyph-name="uni3204" unicode="&#x3204;" 
d="M35 337c0 152 65 290 169 385l37 -33c-99 -88 -155 -213 -155 -352c0 -137 56 -263 155 -352l-37 -33c-104 95 -169 233 -169 385zM814 337c0 139 -56 264 -155 352l37 33c104 -95 169 -233 169 -385s-65 -290 -169 -385l-37 33c99 89 155 215 155 352zM652 511v-347
h-403v347h403zM553 421h-205v-168h205v168z" />
    <glyph glyph-name="uni3205" unicode="&#x3205;" 
d="M86 337c0 -137 56 -263 155 -352l-37 -33c-104 95 -169 233 -169 385s65 290 169 385l37 -33c-99 -88 -155 -213 -155 -352zM865 337c0 -152 -65 -290 -169 -385l-37 33c99 89 155 215 155 352c0 139 -56 264 -155 352l37 33c104 -95 169 -233 169 -385zM554 415v94h98
v-351h-403v351h98v-94h207zM347 246h207v80h-207v-80z" />
    <glyph glyph-name="uni3206" unicode="&#x3206;" 
d="M35 337c0 152 65 290 169 385l37 -33c-99 -88 -155 -213 -155 -352c0 -137 56 -263 155 -352l-37 -33c-104 95 -169 233 -169 385zM814 337c0 139 -56 264 -155 352l37 33c104 -95 169 -233 169 -385s-65 -290 -169 -385l-37 33c99 89 155 215 155 352zM400 508v24h100
v-24c0 -67 18 -122 53 -163c36 -41 81 -65 134 -74l-29 -89c-45 6 -87 24 -127 55c-39 31 -66 67 -81 108c-14 -41 -41 -78 -81 -109c-39 -31 -82 -49 -127 -55l-29 90c54 9 99 33 134 74s53 96 53 163z" />
    <glyph glyph-name="uni3207" unicode="&#x3207;" 
d="M35 337c0 152 65 290 169 385l37 -33c-99 -88 -155 -213 -155 -352c0 -137 56 -263 155 -352l-37 -33c-104 95 -169 233 -169 385zM814 337c0 139 -56 264 -155 352l37 33c104 -95 169 -233 169 -385s-65 -290 -169 -385l-37 33c99 89 155 215 155 352zM240 337
c0 105 83 186 210 186s211 -81 211 -186s-84 -186 -211 -186s-210 81 -210 186zM561 337c0 56 -42 99 -111 99s-111 -43 -111 -99s42 -99 111 -99s111 43 111 99z" />
    <glyph glyph-name="uni3208" unicode="&#x3208;" 
d="M241 -15l-37 -33c-104 95 -169 233 -169 385s65 290 169 385l37 -33c-99 -88 -155 -213 -155 -352c0 -137 56 -263 155 -352zM865 337c0 -152 -65 -290 -169 -385l-37 33c99 89 155 215 155 352c0 139 -56 264 -155 352l37 33c104 -95 169 -233 169 -385zM685 258
l-26 -90c-45 3 -87 18 -127 44c-40 27 -67 59 -82 96c-15 -38 -42 -70 -82 -97c-40 -26 -82 -41 -127 -44l-26 91c97 12 171 67 183 163h-163v90h430v-90h-163c12 -96 86 -151 183 -163z" />
    <glyph glyph-name="uni3209" unicode="&#x3209;" 
d="M241 -15l-37 -33c-104 95 -169 233 -169 385s65 290 169 385l37 -33c-99 -88 -155 -213 -155 -352c0 -137 56 -263 155 -352zM865 337c0 -152 -65 -290 -169 -385l-37 33c99 89 155 215 155 352c0 139 -56 264 -155 352l37 33c104 -95 169 -233 169 -385zM685 253
l-23 -88c-45 3 -88 16 -129 39c-41 24 -68 54 -83 90c-14 -36 -42 -66 -83 -90s-83 -37 -128 -40l-24 89c95 8 167 54 182 135h-162v90h163v66h105v-66h163v-90h-162c15 -81 88 -127 181 -135z" />
    <glyph glyph-name="uni320A" unicode="&#x320a;" 
d="M241 -15l-37 -33c-104 95 -169 233 -169 385s65 290 169 385l37 -33c-99 -88 -155 -213 -155 -352c0 -137 56 -263 155 -352zM865 337c0 -152 -65 -290 -169 -385l-37 33c99 89 155 215 155 352c0 139 -56 264 -155 352l37 33c104 -95 169 -233 169 -385zM246 421v90h404
v-347h-99v91l-308 -10l-4 91l312 8v77h-305z" />
    <glyph glyph-name="uni320B" unicode="&#x320b;" 
d="M35 337c0 152 65 290 169 385l37 -33c-99 -88 -155 -213 -155 -352c0 -137 56 -263 155 -352l-37 -33c-104 95 -169 233 -169 385zM814 337c0 139 -56 264 -155 352l37 33c104 -95 169 -233 169 -385s-65 -290 -169 -385l-37 33c99 89 155 215 155 352zM655 511v-82h-306
v-52h300v-79h-300v-53h312v-81h-410v347h404z" />
    <glyph glyph-name="uni320C" unicode="&#x320c;" 
d="M241 -15l-37 -33c-104 95 -169 233 -169 385s65 290 169 385l37 -33c-99 -88 -155 -213 -155 -352c0 -137 56 -263 155 -352zM865 337c0 -152 -65 -290 -169 -385l-37 33c99 89 155 215 155 352c0 139 -56 264 -155 352l37 33c104 -95 169 -233 169 -385zM665 424h-67
v-174h70v-86h-436v86h70v174h-67v87h430v-87zM500 250v174h-99v-174h99z" />
    <glyph glyph-name="uni320D" unicode="&#x320d;" 
d="M35 337c0 152 65 290 169 385l37 -33c-99 -88 -155 -213 -155 -352c0 -137 56 -263 155 -352l-37 -33c-104 95 -169 233 -169 385zM814 337c0 139 -56 264 -155 352l37 33c104 -95 169 -233 169 -385s-65 -290 -169 -385l-37 33c99 89 155 215 155 352zM398 481v54h105
v-54h175v-88h-455v88h175zM255 251c0 69 71 112 195 112s196 -43 196 -112s-72 -112 -196 -112s-195 43 -195 112zM553 251c0 25 -36 40 -103 40s-102 -15 -102 -40s35 -40 102 -40s103 15 103 40z" />
    <glyph glyph-name="uni320E" unicode="&#x320e;" 
d="M241 -15l-37 -33c-104 95 -169 233 -169 385s65 290 169 385l37 -33c-99 -88 -155 -213 -155 -352c0 -137 56 -263 155 -352zM865 337c0 -152 -65 -290 -169 -385l-37 33c99 89 155 215 155 352c0 139 -56 264 -155 352l37 33c104 -95 169 -233 169 -385zM705 310h-55
v-215h-88v480h88v-173h55v-92zM223 469v87h270v-102c0 -193 -123 -294 -254 -310l-26 83c127 22 190 98 190 227v15h-180z" />
    <glyph glyph-name="uni320F" unicode="&#x320f;" 
d="M241 -15l-37 -33c-104 95 -169 233 -169 385s65 290 169 385l37 -33c-99 -88 -155 -213 -155 -352c0 -137 56 -263 155 -352zM865 337c0 -152 -65 -290 -169 -385l-37 33c99 89 155 215 155 352c0 139 -56 264 -155 352l37 33c104 -95 169 -233 169 -385zM705 310h-55
v-215h-88v480h88v-173h55v-92zM522 266l20 -84c-43 -16 -113 -24 -210 -24h-103v398h90v-312h25c77 0 136 7 178 22z" />
    <glyph glyph-name="uni3210" unicode="&#x3210;" 
d="M241 -15l-37 -33c-104 95 -169 233 -169 385s65 290 169 385l37 -33c-99 -88 -155 -213 -155 -352c0 -137 56 -263 155 -352zM865 337c0 -152 -65 -290 -169 -385l-37 33c99 89 155 215 155 352c0 139 -56 264 -155 352l37 33c104 -95 169 -233 169 -385zM705 310h-55
v-215h-88v480h88v-173h55v-92zM522 265l20 -84c-43 -16 -113 -24 -210 -24h-103v399h278v-87h-188v-227h25c75 0 134 8 178 23z" />
    <glyph glyph-name="uni3211" unicode="&#x3211;" 
d="M241 -15l-37 -33c-104 95 -169 233 -169 385s65 290 169 385l37 -33c-99 -88 -155 -213 -155 -352c0 -137 56 -263 155 -352zM865 337c0 -152 -65 -290 -169 -385l-37 33c99 89 155 215 155 352c0 139 -56 264 -155 352l37 33c104 -95 169 -233 169 -385zM705 310h-55
v-215h-88v480h88v-173h55v-92zM523 262l19 -82c-43 -16 -113 -24 -210 -24h-103v240h174v75h-174v85h263v-242h-174v-74h26c75 0 134 7 179 22z" />
    <glyph glyph-name="uni3212" unicode="&#x3212;" 
d="M241 -15l-37 -33c-104 95 -169 233 -169 385s65 290 169 385l37 -33c-99 -88 -155 -213 -155 -352c0 -137 56 -263 155 -352zM865 337c0 -152 -65 -290 -169 -385l-37 33c99 89 155 215 155 352c0 139 -56 264 -155 352l37 33c104 -95 169 -233 169 -385zM705 310h-55
v-215h-88v480h88v-173h55v-92zM229 157v399h275v-399h-275zM317 470v-228h99v228h-99z" />
    <glyph glyph-name="uni3213" unicode="&#x3213;" 
d="M241 -15l-37 -33c-104 95 -169 233 -169 385s65 290 169 385l37 -33c-99 -88 -155 -213 -155 -352c0 -137 56 -263 155 -352zM865 337c0 -152 -65 -290 -169 -385l-37 33c99 89 155 215 155 352c0 139 -56 264 -155 352l37 33c104 -95 169 -233 169 -385zM705 310h-55
v-215h-88v480h88v-173h55v-92zM416 438v119h88v-400h-275v400h88v-119h99zM317 241h99v113h-99v-113z" />
    <glyph glyph-name="uni3214" unicode="&#x3214;" 
d="M241 -15l-37 -33c-104 95 -169 233 -169 385s65 290 169 385l37 -33c-99 -88 -155 -213 -155 -352c0 -137 56 -263 155 -352zM865 337c0 -152 -65 -290 -169 -385l-37 33c99 89 155 215 155 352c0 139 -56 264 -155 352l37 33c104 -95 169 -233 169 -385zM693 310h-55
v-215h-88v480h88v-173h55v-92zM537 221l-47 -76c-30 12 -58 34 -84 65c-25 32 -40 64 -45 95c-6 -32 -22 -64 -48 -96c-25 -31 -53 -53 -83 -66l-48 77c85 40 133 131 133 274v63h90v-63c0 -144 49 -232 132 -273z" />
    <glyph glyph-name="uni3215" unicode="&#x3215;" 
d="M241 -15l-37 -33c-104 95 -169 233 -169 385s65 290 169 385l37 -33c-99 -88 -155 -213 -155 -352c0 -137 56 -263 155 -352zM865 337c0 -152 -65 -290 -169 -385l-37 33c99 89 155 215 155 352c0 139 -56 264 -155 352l37 33c104 -95 169 -233 169 -385zM697 310h-55
v-215h-88v480h88v-173h55v-92zM502 357c0 -129 -53 -211 -146 -211s-146 82 -146 211s53 209 146 209s146 -80 146 -209zM414 357c0 83 -19 124 -58 124s-58 -41 -58 -124c0 -84 19 -126 58 -126s58 42 58 126z" />
    <glyph glyph-name="uni3216" unicode="&#x3216;" 
d="M241 -15l-37 -33c-104 95 -169 233 -169 385s65 290 169 385l37 -33c-99 -88 -155 -213 -155 -352c0 -137 56 -263 155 -352zM865 337c0 -152 -65 -290 -169 -385l-37 33c99 89 155 215 155 352c0 139 -56 264 -155 352l37 33c104 -95 169 -233 169 -385zM705 310h-55
v-215h-88v480h88v-173h55v-92zM548 222l-43 -77c-28 9 -56 29 -83 58c-27 30 -43 59 -49 88c-7 -29 -24 -59 -51 -89c-26 -29 -53 -49 -82 -59l-45 78c81 33 133 117 133 229v20h-109v86h307v-86h-109v-20c0 -111 51 -195 131 -228z" />
    <glyph glyph-name="uni3217" unicode="&#x3217;" 
d="M241 -15l-37 -33c-104 95 -169 233 -169 385s65 290 169 385l37 -33c-99 -88 -155 -213 -155 -352c0 -137 56 -263 155 -352zM865 337c0 -152 -65 -290 -169 -385l-37 33c99 89 155 215 155 352c0 139 -56 264 -155 352l37 33c104 -95 169 -233 169 -385zM547 220
l-40 -78c-29 9 -58 28 -85 55c-27 28 -44 55 -49 82c-5 -27 -22 -55 -49 -83c-27 -27 -56 -46 -86 -55l-41 79c77 28 131 100 131 197v10h-113v85h112v69h91v-69h112v-85h-113v-10c0 -97 53 -168 130 -197zM705 310h-55v-215h-88v480h88v-173h55v-92z" />
    <glyph glyph-name="uni3218" unicode="&#x3218;" 
d="M241 -15l-37 -33c-104 95 -169 233 -169 385s65 290 169 385l37 -33c-99 -88 -155 -213 -155 -352c0 -137 56 -263 155 -352zM865 337c0 -152 -65 -290 -169 -385l-37 33c99 89 155 215 155 352c0 139 -56 264 -155 352l37 33c104 -95 169 -233 169 -385zM705 310h-55
v-215h-88v480h88v-173h55v-92zM228 472v84h270v-115c0 -206 -133 -287 -253 -303l-26 83c93 15 150 50 172 105l-168 -8l-5 85l189 4c1 17 2 31 2 41v24h-181z" />
    <glyph glyph-name="uni3219" unicode="&#x3219;" 
d="M241 -15l-37 -33c-104 95 -169 233 -169 385s65 290 169 385l37 -33c-99 -88 -155 -213 -155 -352c0 -137 56 -263 155 -352zM865 337c0 -152 -65 -290 -169 -385l-37 33c99 89 155 215 155 352c0 139 -56 264 -155 352l37 33c104 -95 169 -233 169 -385zM705 310h-55
v-215h-88v480h88v-173h55v-92zM523 262l19 -82c-43 -16 -113 -24 -210 -24h-103v400h278v-85h-189v-75h178v-82h-178v-74h26c75 0 134 7 179 22z" />
    <glyph glyph-name="uni321A" unicode="&#x321a;" 
d="M241 -15l-37 -33c-104 95 -169 233 -169 385s65 290 169 385l37 -33c-99 -88 -155 -213 -155 -352c0 -137 56 -263 155 -352zM865 337c0 -152 -65 -290 -169 -385l-37 33c99 89 155 215 155 352c0 139 -56 264 -155 352l37 33c104 -95 169 -233 169 -385zM705 310h-55
v-215h-88v480h88v-173h55v-92zM534 258l19 -79c-43 -16 -113 -24 -211 -24h-134v82h49v236h-43v83h318v-83h-44v-226c20 3 35 7 46 11zM343 237h12c21 0 36 0 46 1v235h-58v-236z" />
    <glyph glyph-name="uni321B" unicode="&#x321b;" 
d="M241 -15l-37 -33c-104 95 -169 233 -169 385s65 290 169 385l37 -33c-99 -88 -155 -213 -155 -352c0 -137 56 -263 155 -352zM865 337c0 -152 -65 -290 -169 -385l-37 33c99 89 155 215 155 352c0 139 -56 264 -155 352l37 33c104 -95 169 -233 169 -385zM416 581v-66
h117v-84h-324v84h116v66h91zM705 310h-55v-215h-88v480h88v-173h55v-92zM512 275c0 -77 -58 -132 -141 -132s-141 55 -141 132s58 131 141 131s141 -54 141 -131zM429 275c0 33 -23 55 -58 55s-58 -22 -58 -55s23 -56 58 -56s58 23 58 56z" />
    <glyph glyph-name="uni249C" unicode="&#x249c;" 
d="M86 337c0 -137 56 -263 155 -352l-37 -33c-104 95 -169 233 -169 385s65 290 169 385l37 -33c-99 -88 -155 -213 -155 -352zM865 337c0 -152 -65 -290 -169 -385l-37 33c99 89 155 215 155 352c0 139 -56 264 -155 352l37 33c104 -95 169 -233 169 -385zM536 471v49h100
v-366h-100v49c-25 -37 -67 -58 -115 -58c-102 0 -178 85 -178 192c0 108 76 193 178 193c49 0 91 -20 115 -59zM536 337c0 64 -40 106 -99 106s-98 -45 -98 -106s39 -106 98 -106s99 43 99 106z" />
    <glyph glyph-name="uni249D" unicode="&#x249d;" 
d="M86 337c0 -137 56 -263 155 -352l-37 -33c-104 95 -169 233 -169 385s65 290 169 385l37 -33c-99 -88 -155 -213 -155 -352zM865 337c0 -152 -65 -290 -169 -385l-37 33c99 89 155 215 155 352c0 139 -56 264 -155 352l37 33c104 -95 169 -233 169 -385zM669 304
c0 -108 -76 -193 -178 -193c-49 0 -91 21 -116 60v-50h-99v471h99v-156c25 40 67 61 116 61c102 0 178 -85 178 -193zM573 304c0 61 -39 105 -98 105s-99 -41 -99 -105s40 -106 99 -106s98 45 98 106z" />
    <glyph glyph-name="uni249E" unicode="&#x249e;" 
d="M35 337c0 152 65 290 169 385l37 -33c-99 -88 -155 -213 -155 -352c0 -137 56 -263 155 -352l-37 -33c-104 95 -169 233 -169 385zM814 337c0 139 -56 264 -155 352l37 33c104 -95 169 -233 169 -385s-65 -290 -169 -385l-37 33c99 89 155 215 155 352zM265 337
c0 111 84 193 196 193c71 0 130 -32 165 -85l-82 -46c-19 28 -47 43 -83 43c-59 0 -100 -44 -100 -105c0 -60 41 -105 100 -105c35 0 64 16 83 44l82 -46c-35 -53 -94 -85 -165 -85c-112 0 -196 83 -196 192z" />
    <glyph glyph-name="uni249F" unicode="&#x249f;" 
d="M241 -15l-37 -33c-104 95 -169 233 -169 385s65 290 169 385l37 -33c-99 -88 -155 -213 -155 -352c0 -137 56 -263 155 -352zM865 337c0 -152 -65 -290 -169 -385l-37 33c99 89 155 215 155 352c0 139 -56 264 -155 352l37 33c104 -95 169 -233 169 -385zM525 438v154
h100v-471h-100v49c-24 -39 -66 -59 -115 -59c-102 0 -178 85 -178 193s76 193 178 193c48 0 90 -22 115 -59zM525 304c0 64 -40 105 -99 105s-98 -44 -98 -105s39 -106 98 -106s99 42 99 106z" />
    <glyph glyph-name="uni24A0" unicode="&#x24a0;" 
d="M86 337c0 -137 56 -263 155 -352l-37 -33c-104 95 -169 233 -169 385s65 290 169 385l37 -33c-99 -88 -155 -213 -155 -352zM865 337c0 -152 -65 -290 -169 -385l-37 33c99 89 155 215 155 352c0 139 -56 264 -155 352l37 33c104 -95 169 -233 169 -385zM640 345
c0 -11 -1 -25 -2 -41h-280c12 -49 52 -75 105 -75c37 0 71 17 90 44l77 -48c-33 -49 -98 -80 -167 -80c-118 0 -203 82 -203 192c0 111 81 193 190 193c111 0 190 -74 190 -185zM358 371h186c-4 45 -41 76 -93 76c-45 0 -82 -28 -93 -76z" />
    <glyph glyph-name="uni24A1" unicode="&#x24a1;" 
d="M86 337c0 -137 56 -263 155 -352l-37 -33c-104 95 -169 233 -169 385s65 290 169 385l37 -33c-99 -88 -155 -213 -155 -352zM865 337c0 -152 -65 -290 -169 -385l-37 33c99 89 155 215 155 352c0 139 -56 264 -155 352l37 33c104 -95 169 -233 169 -385zM471 442v-32h121
v-87h-121v-238h-99v238h-77v87h77v32c0 101 48 152 139 152c36 0 71 -9 92 -22l-22 -79c-17 9 -36 13 -55 13c-36 0 -55 -21 -55 -64z" />
    <glyph glyph-name="uni24A2" unicode="&#x24a2;" 
d="M86 337c0 -137 56 -263 155 -352l-37 -33c-104 95 -169 233 -169 385s65 290 169 385l37 -33c-99 -88 -155 -213 -155 -352zM865 337c0 -152 -65 -290 -169 -385l-37 33c99 89 155 215 155 352c0 139 -56 264 -155 352l37 33c104 -95 169 -233 169 -385zM542 531v44h100
v-332c0 -121 -91 -188 -205 -188c-77 0 -139 34 -174 85l79 49c20 -29 54 -48 95 -48c67 0 105 35 105 102v30c-24 -36 -66 -54 -115 -54c-102 0 -178 80 -178 182c0 105 76 184 178 184c49 0 91 -18 115 -54zM542 401c0 59 -40 97 -99 97s-98 -40 -98 -97
c0 -56 39 -95 98 -95s99 38 99 95z" />
    <glyph glyph-name="uni24A3" unicode="&#x24a3;" 
d="M86 337c0 -137 56 -263 155 -352l-37 -33c-104 95 -169 233 -169 385s65 290 169 385l37 -33c-99 -88 -155 -213 -155 -352zM865 337c0 -152 -65 -290 -169 -385l-37 33c99 89 155 215 155 352c0 139 -56 264 -155 352l37 33c104 -95 169 -233 169 -385zM649 329v-208
h-100v200c0 59 -27 89 -78 89c-49 0 -87 -39 -87 -99v-190h-100v471h100v-155c20 36 62 59 111 59c97 0 154 -62 154 -167z" />
    <glyph glyph-name="uni24A4" unicode="&#x24a4;" 
d="M35 337c0 152 65 290 169 385l37 -33c-99 -88 -155 -213 -155 -352c0 -137 56 -263 155 -352l-37 -33c-104 95 -169 233 -169 385zM814 337c0 139 -56 264 -155 352l37 33c104 -95 169 -233 169 -385s-65 -290 -169 -385l-37 33c99 89 155 215 155 352zM389 550
c0 33 26 59 61 59s62 -26 62 -59c0 -32 -27 -58 -62 -58s-61 26 -61 58zM500 448v-367h-100v367h100z" />
    <glyph glyph-name="uni24A5" unicode="&#x24a5;" 
d="M35 337c0 152 65 290 169 385l37 -33c-99 -88 -155 -213 -155 -352c0 -137 56 -263 155 -352l-37 -33c-104 95 -169 233 -169 385zM814 337c0 139 -56 264 -155 352l37 33c104 -95 169 -233 169 -385s-65 -290 -169 -385l-37 33c99 89 155 215 155 352zM422 589
c0 33 26 59 61 59c36 0 62 -26 62 -59c0 -32 -26 -58 -62 -58c-35 0 -61 26 -61 58zM331 50l21 80c13 -5 26 -8 39 -8c28 0 42 17 42 54v311h100v-312c0 -93 -45 -142 -122 -142c-33 0 -64 6 -80 17z" />
    <glyph glyph-name="uni24A6" unicode="&#x24a6;" 
d="M86 337c0 -137 56 -263 155 -352l-37 -33c-104 95 -169 233 -169 385s65 290 169 385l37 -33c-99 -88 -155 -213 -155 -352zM865 337c0 -152 -65 -290 -169 -385l-37 33c99 89 155 215 155 352c0 139 -56 264 -155 352l37 33c104 -95 169 -233 169 -385zM649 487
l-161 -183l169 -183h-116l-147 162v-162h-100v471h100v-266l139 161h116z" />
    <glyph glyph-name="uni24A7" unicode="&#x24a7;" 
d="M35 337c0 152 65 290 169 385l37 -33c-99 -88 -155 -213 -155 -352c0 -137 56 -263 155 -352l-37 -33c-104 95 -169 233 -169 385zM814 337c0 139 -56 264 -155 352l37 33c104 -95 169 -233 169 -385s-65 -290 -169 -385l-37 33c99 89 155 215 155 352zM500 573v-471
h-100v471h100z" />
    <glyph glyph-name="uni24A8" unicode="&#x24a8;" 
d="M241 -15l-37 -33c-104 95 -169 233 -169 385s65 290 169 385l37 -33c-99 -88 -155 -213 -155 -352c0 -137 56 -263 155 -352zM865 337c0 -152 -65 -290 -169 -385l-37 33c99 89 155 215 155 352c0 139 -56 264 -155 352l37 33c104 -95 169 -233 169 -385zM750 157h-99
v201c0 56 -25 88 -69 88c-45 0 -79 -40 -79 -99v-190h-100v201c0 56 -24 88 -68 88c-45 0 -79 -40 -79 -99v-190h-100v366h100v-50c21 36 59 60 103 60c56 0 98 -25 122 -70c25 44 67 70 123 70c93 0 146 -64 146 -168v-208z" />
    <glyph glyph-name="uni24A9" unicode="&#x24a9;" 
d="M86 337c0 -137 56 -263 155 -352l-37 -33c-104 95 -169 233 -169 385s65 290 169 385l37 -33c-99 -88 -155 -213 -155 -352zM865 337c0 -152 -65 -290 -169 -385l-37 33c99 89 155 215 155 352c0 139 -56 264 -155 352l37 33c104 -95 169 -233 169 -385zM640 365v-208
h-99v201c0 57 -27 88 -78 88c-49 0 -87 -39 -87 -99v-190h-100v366h100v-50c20 36 62 60 111 60c97 0 153 -63 153 -168z" />
    <glyph glyph-name="uni24AA" unicode="&#x24aa;" 
d="M35 337c0 152 65 290 169 385l37 -33c-99 -88 -155 -213 -155 -352c0 -137 56 -263 155 -352l-37 -33c-104 95 -169 233 -169 385zM814 337c0 139 -56 264 -155 352l37 33c104 -95 169 -233 169 -385s-65 -290 -169 -385l-37 33c99 89 155 215 155 352zM254 337
c0 111 84 193 196 193s196 -82 196 -193c0 -109 -84 -192 -196 -192s-196 83 -196 192zM550 337c0 61 -40 105 -100 105c-59 0 -100 -44 -100 -105c0 -60 41 -105 100 -105s100 45 100 105z" />
    <glyph glyph-name="uni24AB" unicode="&#x24ab;" 
d="M86 337c0 -137 56 -263 155 -352l-37 -33c-104 95 -169 233 -169 385s65 290 169 385l37 -33c-99 -88 -155 -213 -155 -352zM865 337c0 -152 -65 -290 -169 -385l-37 33c99 89 155 215 155 352c0 139 -56 264 -155 352l37 33c104 -95 169 -233 169 -385zM669 369
c0 -107 -76 -192 -178 -192c-49 0 -91 21 -116 60v-156h-99v472h99v-51c25 40 67 61 116 61c102 0 178 -85 178 -194zM573 369c0 63 -39 106 -98 106s-99 -42 -99 -106c0 -63 40 -105 99 -105s98 44 98 105z" />
    <glyph glyph-name="uni24AC" unicode="&#x24ac;" 
d="M241 -15l-37 -33c-104 95 -169 233 -169 385s65 290 169 385l37 -33c-99 -88 -155 -213 -155 -352c0 -137 56 -263 155 -352zM865 337c0 -152 -65 -290 -169 -385l-37 33c99 89 155 215 155 352c0 139 -56 264 -155 352l37 33c104 -95 169 -233 169 -385zM525 504v49h100
v-472h-100v155c-24 -39 -66 -59 -115 -59c-102 0 -178 85 -178 192c0 109 76 194 178 194c48 0 90 -22 115 -59zM525 369c0 64 -40 106 -99 106s-98 -43 -98 -106c0 -61 39 -105 98 -105s99 42 99 105z" />
    <glyph glyph-name="uni24AD" unicode="&#x24ad;" 
d="M86 337c0 -137 56 -263 155 -352l-37 -33c-104 95 -169 233 -169 385s65 290 169 385l37 -33c-99 -88 -155 -213 -155 -352zM865 337c0 -152 -65 -290 -169 -385l-37 33c99 89 155 215 155 352c0 139 -56 264 -155 352l37 33c104 -95 169 -233 169 -385zM548 511
c16 0 30 -2 42 -6v-92c-13 4 -27 6 -44 6c-57 0 -97 -40 -97 -97v-184h-100v366h100v-58c17 39 55 65 99 65z" />
    <glyph glyph-name="uni24AE" unicode="&#x24ae;" 
d="M35 337c0 152 65 290 169 385l37 -33c-99 -88 -155 -213 -155 -352c0 -137 56 -263 155 -352l-37 -33c-104 95 -169 233 -169 385zM814 337c0 139 -56 264 -155 352l37 33c104 -95 169 -233 169 -385s-65 -290 -169 -385l-37 33c99 89 155 215 155 352zM276 231l75 44
c19 -29 56 -52 103 -52c45 0 76 12 76 32c0 21 -14 30 -69 42l-53 12c-76 17 -113 50 -113 105c0 71 66 115 161 115c73 0 137 -35 164 -79l-74 -42c-16 24 -53 44 -92 44c-40 0 -66 -12 -66 -32s16 -29 69 -41l53 -12c77 -17 114 -50 114 -107c0 -69 -72 -115 -172 -115
c-81 0 -147 39 -176 86z" />
    <glyph glyph-name="uni24AF" unicode="&#x24af;" 
d="M86 337c0 -137 56 -263 155 -352l-37 -33c-104 95 -169 233 -169 385s65 290 169 385l37 -33c-99 -88 -155 -213 -155 -352zM865 337c0 -152 -65 -290 -169 -385l-37 33c99 89 155 215 155 352c0 139 -56 264 -155 352l37 33c104 -95 169 -233 169 -385zM574 207l22 -79
c-21 -15 -56 -23 -91 -23c-91 0 -140 51 -140 152v135h-77v87h77v97h100v-97h118v-87h-118v-134c0 -43 18 -65 54 -65c18 0 36 5 55 14z" />
    <glyph glyph-name="uni24B0" unicode="&#x24b0;" 
d="M86 337c0 -137 56 -263 155 -352l-37 -33c-104 95 -169 233 -169 385s65 290 169 385l37 -33c-99 -88 -155 -213 -155 -352zM865 337c0 -152 -65 -290 -169 -385l-37 33c99 89 155 215 155 352c0 139 -56 264 -155 352l37 33c104 -95 169 -233 169 -385zM525 326v190h99
v-366h-99v50c-21 -36 -63 -60 -111 -60c-97 0 -154 64 -154 169v207h100v-201c0 -57 26 -87 77 -87s88 38 88 98z" />
    <glyph glyph-name="uni24B1" unicode="&#x24b1;" 
d="M35 337c0 152 65 290 169 385l37 -33c-99 -88 -155 -213 -155 -352c0 -137 56 -263 155 -352l-37 -33c-104 95 -169 233 -169 385zM814 337c0 139 -56 264 -155 352l37 33c104 -95 169 -233 169 -385s-65 -290 -169 -385l-37 33c99 89 155 215 155 352zM351 502l100 -245
l101 245h105l-156 -366h-101l-157 366h108z" />
    <glyph glyph-name="uni24B2" unicode="&#x24b2;" 
d="M35 337c0 152 65 290 169 385l37 -33c-99 -88 -155 -213 -155 -352c0 -137 56 -263 155 -352l-37 -33c-104 95 -169 233 -169 385zM814 337c0 139 -56 264 -155 352l37 33c104 -95 169 -233 169 -385s-65 -290 -169 -385l-37 33c99 89 155 215 155 352zM260 502l73 -243
l73 239h91l72 -239l74 243h105l-126 -366h-100l-72 219l-72 -219h-99l-127 366h108z" />
    <glyph glyph-name="uni24B3" unicode="&#x24b3;" 
d="M35 337c0 152 65 290 169 385l37 -33c-99 -88 -155 -213 -155 -352c0 -137 56 -263 155 -352l-37 -33c-104 95 -169 233 -169 385zM814 337c0 139 -56 264 -155 352l37 33c104 -95 169 -233 169 -385s-65 -290 -169 -385l-37 33c99 89 155 215 155 352zM247 520h115
l89 -113l90 113h112l-147 -182l149 -184h-115l-91 116l-91 -116h-113l149 184z" />
    <glyph glyph-name="uni24B4" unicode="&#x24b4;" 
d="M86 337c0 -137 56 -263 155 -352l-37 -33c-104 95 -169 233 -169 385s65 290 169 385l37 -33c-99 -88 -155 -213 -155 -352zM865 337c0 -152 -65 -290 -169 -385l-37 33c99 89 155 215 155 352c0 139 -56 264 -155 352l37 33c104 -95 169 -233 169 -385zM571 568h105
l-157 -372c-47 -109 -100 -148 -167 -148c-29 0 -62 8 -85 19l22 81c15 -7 33 -11 54 -11c37 0 60 15 79 60l2 5l-161 366h107l103 -245z" />
    <glyph glyph-name="uni24B5" unicode="&#x24b5;" 
d="M35 337c0 152 65 290 169 385l37 -33c-99 -88 -155 -213 -155 -352c0 -137 56 -263 155 -352l-37 -33c-104 95 -169 233 -169 385zM814 337c0 139 -56 264 -155 352l37 33c104 -95 169 -233 169 -385s-65 -290 -169 -385l-37 33c99 89 155 215 155 352zM482 434h-196v86
h329v-80l-202 -200h208v-86h-342v80z" />
    <glyph glyph-name="uni2474" unicode="&#x2474;" 
d="M35 337c0 152 65 290 169 385l37 -33c-99 -88 -155 -213 -155 -352c0 -137 56 -263 155 -352l-37 -33c-104 95 -169 233 -169 385zM814 337c0 139 -56 264 -155 352l37 33c104 -95 169 -233 169 -385s-65 -290 -169 -385l-37 33c99 89 155 215 155 352zM425 235v209
l-97 -28l-30 83l143 46h87v-310h102v-89h-330v89h125z" />
    <glyph glyph-name="uni2475" unicode="&#x2475;" 
d="M35 337c0 152 65 290 169 385l37 -33c-99 -88 -155 -213 -155 -352c0 -137 56 -263 155 -352l-37 -33c-104 95 -169 233 -169 385zM814 337c0 139 -56 264 -155 352l37 33c104 -95 169 -233 169 -385s-65 -290 -169 -385l-37 33c99 89 155 215 155 352zM501 426
c0 25 -22 41 -55 41c-31 0 -57 -15 -70 -39l-88 43c28 51 86 83 162 83c89 0 153 -51 153 -123c0 -47 -22 -80 -81 -129l-79 -66h179v-89h-320v82l142 121c43 36 57 55 57 76z" />
    <glyph glyph-name="uni2476" unicode="&#x2476;" 
d="M35 337c0 152 65 290 169 385l37 -33c-99 -88 -155 -213 -155 -352c0 -137 56 -263 155 -352l-37 -33c-104 95 -169 233 -169 385zM814 337c0 139 -56 264 -155 352l37 33c104 -95 169 -233 169 -385s-65 -290 -169 -385l-37 33c99 89 155 215 155 352zM278 210l91 44
c16 -28 43 -42 81 -42c41 0 67 18 67 47c0 31 -20 44 -75 44h-34l-38 65l102 78h-172v88h302v-84l-115 -86h16c68 0 117 -41 117 -106c0 -76 -70 -131 -170 -131c-79 0 -144 32 -172 83z" />
    <glyph glyph-name="uni2477" unicode="&#x2477;" 
d="M35 337c0 152 65 290 169 385l37 -33c-99 -88 -155 -213 -155 -352c0 -137 56 -263 155 -352l-37 -33c-104 95 -169 233 -169 385zM814 337c0 139 -56 264 -155 352l37 33c104 -95 169 -233 169 -385s-65 -290 -169 -385l-37 33c99 89 155 215 155 352zM249 220v78
l206 249h101v-244h57v-83h-57v-79h-96v79h-211zM460 433l-108 -130h108v130z" />
    <glyph glyph-name="uni2478" unicode="&#x2478;" 
d="M35 337c0 152 65 290 169 385l37 -33c-99 -88 -155 -213 -155 -352c0 -137 56 -263 155 -352l-37 -33c-104 95 -169 233 -169 385zM814 337c0 139 -56 264 -155 352l37 33c104 -95 169 -233 169 -385s-65 -290 -169 -385l-37 33c99 89 155 215 155 352zM276 210l91 44
c16 -28 43 -42 81 -42c41 0 67 19 67 50c0 33 -24 47 -84 47h-123l12 225h281v-88h-189l-4 -57h42c107 0 168 -49 168 -128s-70 -134 -171 -134c-77 0 -143 32 -171 83z" />
    <glyph glyph-name="uni2479" unicode="&#x2479;" 
d="M35 337c0 152 65 290 169 385l37 -33c-99 -88 -155 -213 -155 -352c0 -137 56 -263 155 -352l-37 -33c-104 95 -169 233 -169 385zM814 337c0 139 -56 264 -155 352l37 33c104 -95 169 -233 169 -385s-65 -290 -169 -385l-37 33c99 89 155 215 155 352zM280 280
c0 35 14 71 42 108l117 157h110l-103 -135c7 3 14 5 22 5c80 0 153 -58 153 -135c0 -83 -75 -142 -171 -142s-170 59 -170 142zM522 280c0 35 -28 60 -72 60c-43 0 -71 -25 -71 -60c0 -36 27 -60 71 -60s72 24 72 60z" />
    <glyph glyph-name="uni247A" unicode="&#x247a;" 
d="M35 337c0 152 65 290 169 385l37 -33c-99 -88 -155 -213 -155 -352c0 -137 56 -263 155 -352l-37 -33c-104 95 -169 233 -169 385zM814 337c0 139 -56 264 -155 352l37 33c104 -95 169 -233 169 -385s-65 -290 -169 -385l-37 33c99 89 155 215 155 352zM293 437v92h322
v-88l-162 -311h-114l161 307h-207z" />
    <glyph glyph-name="uni247B" unicode="&#x247b;" 
d="M35 337c0 152 65 290 169 385l37 -33c-99 -88 -155 -213 -155 -352c0 -137 56 -263 155 -352l-37 -33c-104 95 -169 233 -169 385zM814 337c0 139 -56 264 -155 352l37 33c104 -95 169 -233 169 -385s-65 -290 -169 -385l-37 33c99 89 155 215 155 352zM279 242
c0 45 32 81 77 97c-37 16 -61 47 -61 87c0 67 64 112 155 112c92 0 156 -45 156 -112c0 -40 -24 -71 -61 -87c45 -16 77 -52 77 -97c0 -71 -72 -119 -172 -119c-49 0 -90 11 -123 33c-32 22 -48 51 -48 86zM514 419c0 27 -24 43 -64 43c-39 0 -63 -16 -63 -43s24 -44 63 -44
c40 0 64 17 64 44zM528 248c0 29 -31 48 -78 48s-77 -19 -77 -48s32 -49 77 -49c47 0 78 20 78 49z" />
    <glyph glyph-name="uni247C" unicode="&#x247c;" 
d="M35 337c0 152 65 290 169 385l37 -33c-99 -88 -155 -213 -155 -352c0 -137 56 -263 155 -352l-37 -33c-104 95 -169 233 -169 385zM814 337c0 139 -56 264 -155 352l37 33c104 -95 169 -233 169 -385s-65 -290 -169 -385l-37 33c99 89 155 215 155 352zM432 260
c-81 0 -152 58 -152 135c0 81 75 142 170 142c96 0 171 -61 171 -142c0 -35 -14 -71 -42 -108l-117 -157h-111l103 135c-5 -3 -13 -5 -22 -5zM522 395c0 35 -28 60 -72 60c-43 0 -71 -25 -71 -60c0 -36 27 -60 71 -60s72 24 72 60z" />
    <glyph glyph-name="uni247D" unicode="&#x247d;" 
d="M35 337c0 152 65 290 169 385l37 -33c-99 -88 -155 -213 -155 -352c0 -137 56 -263 155 -352l-37 -33c-104 95 -169 233 -169 385zM814 337c0 139 -56 264 -155 352l37 33c104 -95 169 -233 169 -385s-65 -290 -169 -385l-37 33c99 89 155 215 155 352zM271 235v207
l-73 -26l-24 82l113 47h75v-310h69v-89h-247v89h87zM455 337c0 127 53 208 141 208s141 -81 141 -208s-53 -207 -141 -207c-87 0 -141 80 -141 207zM649 337c0 77 -18 116 -53 116s-53 -39 -53 -116s18 -115 53 -115s53 38 53 115z" />
    <glyph glyph-name="uni247E" unicode="&#x247e;" 
d="M35 337c0 152 65 290 169 385l37 -33c-99 -88 -155 -213 -155 -352c0 -137 56 -263 155 -352l-37 -33c-104 95 -169 233 -169 385zM814 337c0 139 -56 264 -155 352l37 33c104 -95 169 -233 169 -385s-65 -290 -169 -385l-37 33c99 89 155 215 155 352zM289 235v207
l-73 -26l-24 82l113 47h75v-310h69v-89h-247v89h87zM575 235v207l-73 -26l-24 82l113 47h75v-310h69v-89h-247v89h87z" />
    <glyph glyph-name="uni247F" unicode="&#x247f;" 
d="M35 337c0 152 65 290 169 385l37 -33c-99 -88 -155 -213 -155 -352c0 -137 56 -263 155 -352l-37 -33c-104 95 -169 233 -169 385zM814 337c0 139 -56 264 -155 352l37 33c104 -95 169 -233 169 -385s-65 -290 -169 -385l-37 33c99 89 155 215 155 352zM623 427
c0 25 -16 40 -41 40c-23 0 -42 -18 -54 -43l-78 47c23 49 75 83 136 83c73 0 128 -51 128 -123c0 -45 -19 -77 -66 -129l-63 -66h144v-89h-264v82l112 121c35 36 46 54 46 77zM271 235v207l-73 -26l-24 82l113 47h75v-310h69v-89h-247v89h87z" />
    <glyph glyph-name="uni2480" unicode="&#x2480;" 
d="M35 337c0 152 65 290 169 385l37 -33c-99 -88 -155 -213 -155 -352c0 -137 56 -263 155 -352l-37 -33c-104 95 -169 233 -169 385zM814 337c0 139 -56 264 -155 352l37 33c104 -95 169 -233 169 -385s-65 -290 -169 -385l-37 33c99 89 155 215 155 352zM271 235v207
l-73 -26l-24 82l113 47h75v-310h69v-89h-247v89h87zM448 208l80 48c13 -29 34 -44 61 -44c31 0 50 18 50 47s-20 44 -59 44h-32l-30 65l84 78h-137v88h248v-84l-95 -86h13c56 0 98 -42 98 -106c0 -76 -57 -131 -140 -131c-65 0 -118 30 -141 81z" />
    <glyph glyph-name="uni2481" unicode="&#x2481;" 
d="M35 337c0 152 65 290 169 385l37 -33c-99 -88 -155 -213 -155 -352c0 -137 56 -263 155 -352l-37 -33c-104 95 -169 233 -169 385zM814 337c0 139 -56 264 -155 352l37 33c104 -95 169 -233 169 -385s-65 -290 -169 -385l-37 33c99 89 155 215 155 352zM448 220v78
l164 249h89v-244h42v-83h-42v-79h-84v79h-169zM271 235v207l-73 -26l-24 82l113 47h75v-310h69v-89h-247v89h87zM617 422l-80 -119h80v119z" />
    <glyph glyph-name="uni2482" unicode="&#x2482;" 
d="M35 337c0 152 65 290 169 385l37 -33c-99 -88 -155 -213 -155 -352c0 -137 56 -263 155 -352l-37 -33c-104 95 -169 233 -169 385zM814 337c0 139 -56 264 -155 352l37 33c104 -95 169 -233 169 -385s-65 -290 -169 -385l-37 33c99 89 155 215 155 352zM271 235v207
l-73 -26l-24 82l113 47h75v-310h69v-89h-247v89h87zM448 208l80 48c13 -29 34 -44 61 -44c31 0 50 19 50 50c0 32 -20 47 -65 47h-101l10 225h233v-88h-150l-3 -57h29c85 0 137 -49 137 -128s-57 -134 -140 -134c-65 0 -118 30 -141 81z" />
    <glyph glyph-name="uni00B9" unicode="&#xb9;" horiz-adv-x="389" 
d="M165 482v209l-97 -28l-30 83l143 46h87v-310h102v-89h-330v89h125z" />
    <glyph glyph-name="uni00B2" unicode="&#xb2;" horiz-adv-x="389" 
d="M236 672c0 24 -22 41 -55 41c-31 0 -55 -16 -70 -40l-87 44c27 49 86 83 161 83c45 0 81 -12 110 -35s44 -53 44 -88c0 -47 -22 -80 -81 -129l-79 -67h179v-88h-320v82l141 121c43 36 57 55 57 76z" />
    <glyph glyph-name="uni00B3" unicode="&#xb3;" horiz-adv-x="389" 
d="M16 468l91 44c16 -28 43 -42 81 -42c41 0 67 18 67 47c0 31 -22 44 -75 44h-35l-38 65l103 78h-172v88h301v-84l-115 -86h17c68 0 117 -42 117 -106c0 -76 -70 -131 -170 -131c-79 0 -144 32 -172 83z" />
    <glyph glyph-name="uni2074" unicode="&#x2074;" horiz-adv-x="389" 
d="M15 472v78l205 249h102v-244h57v-83h-57v-79h-96v79h-211zM226 685l-109 -130h109v130z" />
    <glyph glyph-name="uni207F" unicode="&#x207f;" horiz-adv-x="460" 
d="M421 622v-229h-103v221c0 63 -27 95 -81 95c-52 0 -91 -42 -91 -106v-210h-103v399h103v-55c20 37 65 63 117 63c99 0 158 -67 158 -178z" />
    <glyph glyph-name="uni2081" unicode="&#x2081;" horiz-adv-x="389" 
d="M165 -29v210l-97 -28l-30 83l143 46h87v-311h102v-89h-330v89h125z" />
    </font>
</defs>
</svg>
