<svg width="16" height="16" viewBox="0 0 16 16" fill="none" xmlns="http://www.w3.org/2000/svg">
<path d="M14.8571 0C15.1429 0 15.4286 0.142857 15.6429 0.357143C15.8571 0.571429 16 0.857143 16 1.14286V14.8571C16 15.1786 15.8571 15.4643 15.6429 15.6786C15.4286 15.8929 15.1429 16 14.8571 16H1.14286C0.821429 16 0.535714 15.8929 0.321429 15.6786C0.107143 15.4643 0 15.1786 0 14.8571V1.14286C0 0.857143 0.107143 0.571429 0.321429 0.357143C0.535714 0.142857 0.821429 0 1.14286 0H14.8571ZM4.85714 13.7143V6.07143H2.46429V13.7143H4.85714ZM3.64286 5.03571C4 5.03571 4.32143 4.92857 4.60714 4.64286C4.89286 4.35714 5.03571 4.03571 5.03571 3.67857C5.03571 3.32143 4.89286 3 4.60714 2.71429C4.32143 2.42857 4 2.28571 3.64286 2.28571C3.25 2.28571 2.92857 2.42857 2.67857 2.71429C2.39286 3 2.28571 3.32143 2.28571 3.67857C2.28571 4.03571 2.39286 4.35714 2.67857 4.64286C2.92857 4.92857 3.25 5.03571 3.64286 5.03571ZM13.7143 13.7143V9.53572C13.7143 8.35714 13.5357 7.5 13.2143 6.92857C12.75 6.25 11.9643 5.89286 10.8929 5.89286C10.3214 5.89286 9.85714 6.03571 9.42857 6.28571C9.07143 6.5 8.78572 6.78571 8.64286 7.10714H8.60714V6.07143H6.32143V13.7143H8.67857V9.92857C8.67857 9.35714 8.75 8.89286 8.92857 8.57143C9.14286 8.17857 9.53572 7.96429 10.1071 7.96429C10.6429 7.96429 11 8.21429 11.1786 8.64286C11.2857 8.92857 11.3571 9.39286 11.3571 10V13.7143H13.7143Z" fill="white"/>
</svg>
