<svg width="16" height="16" viewBox="0 0 16 16" fill="none" xmlns="http://www.w3.org/2000/svg">
<path d="M10.324 15.9927C13.6088 14.9757 16 11.8588 16 8.1714C16 3.65846 12.4183 0 8 0C3.58172 0 0 3.65846 0 8.1714C0 11.8677 2.40269 14.9907 5.6998 16C5.8996 15.962 5.97644 15.8804 6.02042 15.6619V13.9595C5.98675 14.1116 5.52479 14.119 4.68709 14.1297C3.93914 13.9937 3.63684 13.776 3.35375 13.1083C3.11454 12.5526 2.96227 12.3376 2.68709 12.0869C2.67583 12.0595 2.6089 12.0083 2.52747 11.946C2.3808 11.8338 2.18709 11.6856 2.18709 11.5762C2.13254 11.4312 2.18701 11.4059 2.35375 11.4059C2.6871 11.4059 2.76358 11.4261 3.02042 11.5762C3.49507 11.8911 3.66197 12.0801 3.85375 12.4273C4.22062 12.9286 4.47451 13.074 5.02042 13.1083C5.39622 13.1406 5.62422 13.0957 6.02042 12.9381C6.03972 12.6524 6.07335 12.501 6.18709 12.2571C6.28117 12.0634 6.37476 11.9365 6.52042 11.7464C2.85376 11.5336 2.02042 8.00117 3.68709 5.61784C3.52042 4.76665 3.52042 3.91546 3.85375 3.40475C4.67192 3.46437 5.14885 3.6647 6.02042 4.25594C7.56865 3.90115 8.44424 3.89573 10.0204 4.25594C11.035 3.58936 11.4963 3.42514 12.1871 3.40475C12.5296 4.14501 12.5203 4.59641 12.3538 5.61784C14.187 7.83093 12.8537 11.9166 9.52042 11.7464C9.56696 11.8177 9.48101 11.687 9.52042 11.7464C9.75459 12.0132 9.99618 12.399 10.0204 12.7678C10.03 12.9276 10.0255 13.3589 10.0202 13.8644C10.0142 14.4358 10.0072 15.1021 10.0185 15.5787L10.0204 15.6619C10.0702 15.8556 10.1404 15.9307 10.324 15.9927Z" fill="white"/>
</svg>
