<svg width="16" height="16" viewBox="1 2 14.5 12" fill="none" xmlns="http://www.w3.org/2000/svg">
<path fill-rule="evenodd" clip-rule="evenodd" d="M2 2.5C2 2.22386 2.22386 2 2.5 2H11.5C11.7761 2 12 2.22386 12 2.5V3.5H13.5C14.6046 3.5 15.5 4.39543 15.5 5.5C15.5 6.60457 14.6046 7.5 13.5 7.5H11.9291C11.6526 9.93431 9.5867 11.5 7 11.5C4.23858 11.5 2 9.71396 2 6.5V2.5ZM12 6.5H13.5C14.0523 6.5 14.5 6.05228 14.5 5.5C14.5 4.94772 14.0523 4.5 13.5 4.5H12V6.5ZM1.5 13C1.22386 13 1 13.2239 1 13.5C1 13.7761 1.22386 14 1.5 14H12.5C12.7761 14 13 13.7761 13 13.5C13 13.2239 12.7761 13 12.5 13H1.5Z" fill="white"/>
</svg>
