<svg width="19" height="14" viewBox="0 0 19 14" fill="none" xmlns="http://www.w3.org/2000/svg">
<path d="M17.2188 0C17.7012 0 18.1094 0.182292 18.4805 0.510417C18.8145 0.875 19 1.27604 19 1.75V12.25C19 12.7604 18.8145 13.1615 18.4805 13.4896C18.1094 13.8542 17.7012 14 17.2188 14H1.78125C1.26172 14 0.853516 13.8542 0.519531 13.4896C0.148438 13.1615 0 12.7604 0 12.25V1.75C0 1.27604 0.148438 0.875 0.519531 0.510417C0.853516 0.182292 1.26172 0 1.78125 0H17.2188ZM1.78125 1.16667C1.5957 1.16667 1.44727 1.23958 1.33594 1.34896C1.22461 1.45833 1.1875 1.60417 1.1875 1.75V3.24479C2.04102 3.97396 3.89648 5.46875 6.79102 7.69271L7.125 7.98438C7.60742 8.42188 8.01563 8.71354 8.3125 8.85938C8.75781 9.1875 9.16602 9.33333 9.5 9.33333C9.79688 9.33333 10.2051 9.1875 10.6875 8.85938C10.9473 8.71354 11.3184 8.42188 11.8379 7.98438L12.209 7.69271C15.0664 5.46875 16.9219 3.97396 17.8125 3.24479V1.75C17.8125 1.60417 17.7383 1.45833 17.627 1.34896C17.5156 1.23958 17.3672 1.16667 17.2188 1.16667H1.78125ZM17.2188 12.8333C17.3672 12.8333 17.5156 12.7969 17.627 12.6875C17.7383 12.5781 17.8125 12.4323 17.8125 12.25V4.77604C16.9219 5.46875 15.3262 6.74479 12.9512 8.60417L12.5801 8.89583C11.9863 9.40625 11.5039 9.73438 11.1699 9.95313C10.5391 10.3177 9.98242 10.5 9.5 10.5C8.98047 10.5 8.42383 10.3177 7.83008 9.95313C7.45898 9.73438 6.97656 9.40625 6.41992 8.89583L6.04883 8.60417C3.67383 6.74479 2.04102 5.46875 1.1875 4.77604V12.25C1.1875 12.4323 1.22461 12.5781 1.33594 12.6875C1.44727 12.7969 1.5957 12.8333 1.78125 12.8333H17.2188Z" fill="white"/>
</svg>
